<svg width="24" height="25" viewBox="0 0 24 25" fill="none" xmlns="http://www.w3.org/2000/svg">
<path d="M15.3394 0.0020761C15.1534 0.00951657 14.9739 0.0429987 14.7869 0.0895017L2.1437 3.16986C0.648168 3.5363 -0.287472 5.04486 0.0799018 6.54132L1.85259 13.779C1.96002 14.2102 2.16917 14.6093 2.46254 14.9429C2.75592 15.2766 3.12497 15.5351 3.53879 15.6968V13.953C3.53879 11.3888 5.62491 9.30267 8.18909 9.30267H19.9023L18.1584 2.12354C18.0042 1.49949 17.6394 0.947714 17.1257 0.561257C16.6121 0.174801 15.9808 -0.0226936 15.3385 0.0020761H15.3394ZM16.4722 4.01342L17.2283 7.1812L14.0894 7.93641L13.3044 4.79746L16.4722 4.01342V4.01342ZM8.18909 11.1628C6.64891 11.1628 5.39891 12.4128 5.39891 13.953V21.3934C5.39891 22.9336 6.64891 24.1836 8.18909 24.1836H21.2099C22.7501 24.1836 24.0001 22.9336 24.0001 21.3934V13.953C24.0001 12.4128 22.7501 11.1628 21.2099 11.1628H8.18909ZM8.18909 12.6453H21.2099C21.927 12.6453 22.5176 13.2359 22.5176 13.953V14.883H6.88142V13.953C6.88142 13.2359 7.47201 12.6453 8.18909 12.6453ZM6.88142 17.6732H22.5176V21.3934C22.5176 22.1105 21.927 22.7011 21.2099 22.7011H8.18909C7.84288 22.6991 7.5114 22.5607 7.26659 22.3159C7.02178 22.0711 6.88338 21.7396 6.88142 21.3934V17.6732Z" fill="black"/>
</svg>
