<svg width="96" height="36" viewBox="0 0 96 36" fill="none" xmlns="http://www.w3.org/2000/svg">
<rect width="44" height="36" rx="2" fill="#F1F2F6"/>
<path d="M31.1668 16.3333C31.1668 15.8913 30.9912 15.4674 30.6787 15.1548C30.3661 14.8423 29.9422 14.6667 29.5002 14.6667H24.2335L25.0335 10.8583C25.0502 10.775 25.0585 10.6833 25.0585 10.5917C25.0585 10.25 24.9168 9.93334 24.6918 9.70834L23.8085 8.83334L18.3252 14.3167C18.0168 14.625 17.8335 15.0417 17.8335 15.5V23.8333C17.8335 24.2754 18.0091 24.6993 18.3217 25.0119C18.6342 25.3244 19.0581 25.5 19.5002 25.5H27.0002C27.6918 25.5 28.2835 25.0833 28.5335 24.4833L31.0502 18.6083C31.1252 18.4167 31.1668 18.2167 31.1668 18V16.3333ZM12.8335 25.5H16.1668V15.5H12.8335V25.5Z" fill="#1E272E"/>
<rect x="52" width="44" height="36" rx="2" fill="#F1F2F6"/>
<path d="M79.8335 20.5H83.1668V10.5H79.8335V20.5ZM76.5002 10.5H69.0002C68.3085 10.5 67.7168 10.9167 67.4668 11.5167L64.9502 17.3917C64.8752 17.5833 64.8335 17.7833 64.8335 18V19.6667C64.8335 20.1087 65.0091 20.5326 65.3217 20.8452C65.6342 21.1577 66.0581 21.3333 66.5002 21.3333H71.7585L70.9668 25.1417C70.9502 25.225 70.9418 25.3083 70.9418 25.4C70.9418 25.75 71.0835 26.0583 71.3085 26.2833L72.1918 27.1667L77.6752 21.675C77.9835 21.375 78.1668 20.9583 78.1668 20.5V12.1667C78.1668 11.7246 77.9912 11.3007 77.6787 10.9882C77.3661 10.6756 76.9422 10.5 76.5002 10.5Z" fill="#1E272E"/>
</svg>
