<svg width="24" height="25" viewBox="0 0 24 25" fill="none" xmlns="http://www.w3.org/2000/svg">
<path d="M15.3393 0.00207609C15.1533 0.00951654 14.9738 0.0429985 14.7869 0.0895013L2.14369 3.16985C0.648165 3.53629 -0.28747 5.04484 0.0799015 6.5413L1.85259 13.779C1.96001 14.2101 2.16916 14.6092 2.46253 14.9429C2.75591 15.2765 3.12496 15.5351 3.53878 15.6968V13.9529C3.53878 11.3887 5.62489 9.30263 8.18906 9.30263H19.9022L18.1583 2.12353C18.0041 1.49948 17.6394 0.94771 17.1257 0.561255C16.612 0.1748 15.9807 -0.0226935 15.3384 0.00207609H15.3393ZM16.4721 4.01341L17.2283 7.18118L14.0893 7.93638L13.3044 4.79744L16.4721 4.01341V4.01341ZM8.18906 11.1627C6.64888 11.1627 5.39889 12.4127 5.39889 13.9529V21.3934C5.39889 22.9335 6.64888 24.1835 8.18906 24.1835H21.2098C22.75 24.1835 24 22.9335 24 21.3934V13.9529C24 12.4127 22.75 11.1627 21.2098 11.1627H8.18906ZM8.18906 12.6453H21.2098C21.9269 12.6453 22.5175 13.2358 22.5175 13.9529V14.883H6.8814V13.9529C6.8814 13.2358 7.47198 12.6453 8.18906 12.6453ZM6.8814 17.6731H22.5175V21.3934C22.5175 22.1104 21.9269 22.701 21.2098 22.701H8.18906C7.84285 22.6991 7.51137 22.5607 7.26656 22.3159C7.02175 22.071 6.88335 21.7396 6.8814 21.3934V17.6731Z" fill="black"/>
</svg>
