<svg width="10" height="18" viewBox="0 0 10 18" fill="none" xmlns="http://www.w3.org/2000/svg">
<path d="M9.5565 0.471074C9.416 0.321745 9.24911 0.203274 9.06538 0.122441C8.88166 0.0416077 8.6847 0 8.4858 0C8.28689 0 8.08994 0.0416077 7.90622 0.122441C7.72249 0.203274 7.5556 0.321745 7.4151 0.471074L0.444143 7.86472C0.303351 8.01374 0.191653 8.19075 0.115441 8.38562C0.039229 8.58048 0 8.78938 0 9.00034C0 9.21131 0.039229 9.4202 0.115441 9.61507C0.191653 9.80993 0.303351 9.98694 0.444143 10.136L7.4151 17.5296C7.5557 17.6787 7.72263 17.797 7.90634 17.8777C8.09005 17.9585 8.28695 18 8.4858 18C8.68465 18 8.88155 17.9585 9.06526 17.8777C9.24897 17.797 9.41589 17.6787 9.5565 17.5296C9.69711 17.3805 9.80864 17.2034 9.88474 17.0086C9.96083 16.8137 10 16.6049 10 16.394C10 16.1831 9.96083 15.9742 9.88474 15.7794C9.80864 15.5845 9.69711 15.4075 9.5565 15.2584L3.66384 8.99229L9.5565 2.74232C10.1488 2.11411 10.1336 1.08318 9.5565 0.471074V0.471074Z" fill="#1E272E"/>
</svg>
