<svg width="95" height="15" viewBox="0 0 95 15" fill="none" xmlns="http://www.w3.org/2000/svg">
<path d="M10.2249 0.258448H9.14261L5.10435 6.9458L1.0661 0.258448H0V11.5656H0.85611V1.51838L5.03974 8.46418H5.18512L9.36875 1.51838V11.5656H10.2249V0.258448Z" fill="white"/>
<path d="M18.6994 3.48905L15.8888 10.6771L12.6259 3.48905H11.7536L15.4688 11.7109L15.2911 12.1471C14.7904 13.3262 13.9666 14.1339 12.8843 14.037V14.7962C14.2735 14.9092 15.4688 13.8593 16.0826 12.3086L19.5716 3.48905H18.6994Z" fill="white"/>
<path d="M23.3638 2.06759H20.1332V0H28.7751V2.06759H25.5445V11.5656H23.3638V2.06759Z" fill="white"/>
<path d="M32.7134 11.824C31.895 11.824 31.1573 11.6356 30.5004 11.2586C29.8435 10.8817 29.3266 10.3648 28.9497 9.70796C28.5836 9.0403 28.4005 8.29188 28.4005 7.46269C28.4005 6.67658 28.5836 5.94969 28.9497 5.28203C29.3159 4.60361 29.822 4.06517 30.4681 3.66673C31.1142 3.26829 31.8357 3.06907 32.6326 3.06907C33.4833 3.06907 34.2156 3.25214 34.8294 3.61827C35.4432 3.98441 35.9063 4.48515 36.2186 5.1205C36.5416 5.75586 36.7032 6.46121 36.7032 7.23655C36.7032 7.48423 36.687 7.72114 36.6547 7.94728H30.4681C30.5758 8.60417 30.8342 9.10492 31.2435 9.44951C31.6634 9.78334 32.1642 9.95026 32.7457 9.95026C33.2303 9.95026 33.6449 9.84795 33.9895 9.64335C34.3448 9.42797 34.6248 9.14261 34.8294 8.78724L36.5416 9.6272C35.7017 11.0917 34.4256 11.824 32.7134 11.824ZM34.6679 6.44505C34.6464 6.1866 34.5494 5.93354 34.3771 5.68586C34.2156 5.42741 33.9841 5.21742 33.6826 5.05589C33.3918 4.88359 33.0472 4.79744 32.6488 4.79744C32.1426 4.79744 31.7065 4.94821 31.3404 5.24973C30.985 5.54048 30.7266 5.93892 30.565 6.44505H34.6679Z" fill="white"/>
<path d="M38.2525 0H40.3685V11.5656H38.2525V0Z" fill="white"/>
<path d="M42.3677 0H44.4838V6.29967H44.5968L47.5528 3.32752H50.1535V3.45674L47.0359 6.50966L50.2988 11.4363V11.5656H47.7951L45.5499 7.96344L44.4838 9.01338V11.5656H42.3677V0Z" fill="white"/>
<path d="M55.0146 11.824C54.1639 11.824 53.4047 11.6356 52.7371 11.2586C52.0694 10.871 51.5471 10.3487 51.1702 9.69181C50.8041 9.02415 50.621 8.27573 50.621 7.44654C50.621 6.62812 50.8041 5.88508 51.1702 5.21742C51.5471 4.54977 52.0694 4.02748 52.7371 3.65058C53.4047 3.26291 54.1639 3.06907 55.0146 3.06907C55.8546 3.06907 56.6084 3.26291 57.2761 3.65058C57.9437 4.02748 58.4606 4.54977 58.8267 5.21742C59.2037 5.88508 59.3921 6.62812 59.3921 7.44654C59.3921 8.27573 59.2037 9.02415 58.8267 9.69181C58.4606 10.3487 57.9437 10.871 57.2761 11.2586C56.6084 11.6356 55.8546 11.824 55.0146 11.824ZM55.0146 9.86949C55.4238 9.86949 55.8008 9.77257 56.1453 9.57874C56.4899 9.3849 56.7645 9.10491 56.9691 8.73878C57.1738 8.37264 57.2761 7.9419 57.2761 7.44654C57.2761 6.96195 57.1738 6.53659 56.9691 6.17045C56.7645 5.80432 56.4899 5.52433 56.1453 5.33049C55.8008 5.13666 55.4238 5.03974 55.0146 5.03974C54.6054 5.03974 54.2285 5.13666 53.8839 5.33049C53.5393 5.52433 53.2593 5.80432 53.044 6.17045C52.8394 6.53659 52.7371 6.96195 52.7371 7.44654C52.7371 7.93113 52.8394 8.36188 53.044 8.73878C53.2593 9.10491 53.5393 9.3849 53.8839 9.57874C54.2285 9.77257 54.6054 9.86949 55.0146 9.86949Z" fill="white"/>
<path d="M60.7727 3.32752H62.7595V4.36131H62.8887C63.1472 3.96287 63.4918 3.65058 63.9225 3.42444C64.364 3.18753 64.854 3.06907 65.3924 3.06907C65.974 3.06907 66.4801 3.20907 66.9108 3.48905C67.3416 3.75827 67.6485 4.10287 67.8315 4.52284C68.1008 4.0921 68.4669 3.74211 68.93 3.4729C69.4038 3.20368 69.9584 3.06907 70.5937 3.06907C71.5306 3.06907 72.2413 3.35983 72.7259 3.94133C73.2213 4.51207 73.4689 5.28742 73.4689 6.26737V11.5656H71.3691V6.65504C71.3691 6.13814 71.2452 5.7397 70.9975 5.45972C70.7606 5.17973 70.4268 5.03974 69.996 5.03974C69.4468 5.03974 69.0053 5.2605 68.6715 5.70201C68.3484 6.13276 68.1869 6.7035 68.1869 7.41423V11.5656H66.0709V6.65504C66.0709 6.13814 65.9416 5.7397 65.6832 5.45972C65.4355 5.17973 65.0801 5.03974 64.6171 5.03974C64.1002 5.03974 63.6802 5.2605 63.3572 5.70201C63.0449 6.13276 62.8887 6.7035 62.8887 7.41423V11.5656H60.7727V3.32752Z" fill="white"/>
<path d="M78.4643 11.824C77.4628 11.824 76.6497 11.6194 76.0252 11.2102C75.4113 10.801 74.9806 10.2679 74.7329 9.61104L76.6228 8.78724C76.7951 9.17491 77.0374 9.47105 77.3497 9.67565C77.6728 9.86949 78.0443 9.96641 78.4643 9.96641C78.8519 9.96641 79.175 9.90718 79.4334 9.78873C79.6919 9.6595 79.8211 9.4549 79.8211 9.17491C79.8211 8.90569 79.7027 8.70647 79.4657 8.57725C79.2288 8.43726 78.8735 8.31342 78.3997 8.20573L77.4305 7.99574C76.7628 7.83421 76.2082 7.54346 75.7667 7.12348C75.3252 6.69273 75.1044 6.15968 75.1044 5.52433C75.1044 5.05051 75.2444 4.62515 75.5244 4.24824C75.8152 3.87134 76.2028 3.58058 76.6874 3.37598C77.1828 3.17137 77.7266 3.06907 78.3189 3.06907C80.0203 3.06907 81.1564 3.66673 81.7272 4.86206L79.918 5.65355C79.595 5.07205 79.0781 4.78129 78.3673 4.78129C78.0012 4.78129 77.7105 4.85129 77.4951 4.99128C77.2797 5.1205 77.172 5.28742 77.172 5.49202C77.172 5.8797 77.5382 6.17045 78.2704 6.36429L79.4819 6.65504C80.3003 6.85965 80.9141 7.17194 81.3233 7.59192C81.7433 8.01189 81.9533 8.52879 81.9533 9.1426C81.9533 9.67027 81.7972 10.1387 81.4849 10.5479C81.1834 10.9464 80.7634 11.2586 80.2249 11.4848C79.6973 11.7109 79.1104 11.824 78.4643 11.824Z" fill="white"/>
<path d="M87.3446 11.824C86.5262 11.824 85.7886 11.6356 85.1317 11.2586C84.4748 10.8817 83.9579 10.3648 83.581 9.70796C83.2148 9.0403 83.0318 8.29188 83.0318 7.46269C83.0318 6.67658 83.2148 5.94969 83.581 5.28203C83.9471 4.60361 84.4532 4.06517 85.0994 3.66673C85.7455 3.26829 86.467 3.06907 87.2639 3.06907C88.1146 3.06907 88.8469 3.25214 89.4607 3.61827C90.0745 3.98441 90.5375 4.48515 90.8498 5.1205C91.1729 5.75586 91.3344 6.46121 91.3344 7.23655C91.3344 7.48423 91.3183 7.72114 91.286 7.94728H85.0994C85.2071 8.60417 85.4655 9.10492 85.8747 9.44951C86.2947 9.78334 86.7954 9.95026 87.3769 9.95026C87.8615 9.95026 88.2761 9.84795 88.6207 9.64335C88.9761 9.42797 89.2561 9.14261 89.4607 8.78724L91.1729 9.6272C90.3329 11.0917 89.0569 11.824 87.3446 11.824ZM89.2991 6.44505C89.2776 6.1866 89.1807 5.93354 89.0084 5.68586C88.8469 5.42741 88.6153 5.21742 88.3138 5.05589C88.0231 4.88359 87.6785 4.79744 87.28 4.79744C86.7739 4.79744 86.3378 4.94821 85.9716 5.24973C85.6163 5.54048 85.3578 5.93892 85.1963 6.44505H89.2991Z" fill="white"/>
<path d="M92.8837 0H94.9998V11.5656H92.8837V0Z" fill="white"/>
</svg>
