<svg width="15" height="15" viewBox="0 0 15 15" fill="none" xmlns="http://www.w3.org/2000/svg">
<path d="M14.4 0H0.6C0.268125 0 0 0.268125 0 0.6V14.4C0 14.7319 0.268125 15 0.6 15H14.4C14.7319 15 15 14.7319 15 14.4V0.6C15 0.268125 14.7319 0 14.4 0ZM12.6675 4.37812H11.4694C10.53 4.37812 10.3481 4.82437 10.3481 5.48062V6.92625H12.5906L12.2981 9.18937H10.3481V15H8.01V9.19125H6.05437V6.92625H8.01V5.2575C8.01 3.32062 9.19313 2.265 10.9219 2.265C11.7506 2.265 12.4613 2.32688 12.6694 2.355V4.37812H12.6675Z" fill="#3B5998"/>
</svg>
