<svg width="24" height="22" viewBox="0 0 24 22" fill="none" xmlns="http://www.w3.org/2000/svg">
<path d="M0.799548 21.5659C0.34321 21.3295 -0.0163291 21.1224 0.000572333 21.1056C0.0588566 21.0477 2.24242 20.5844 3.76723 20.3065C7.06679 19.7051 10.9898 19.2237 14.8973 18.9408C16.5065 18.8243 22.3283 18.8204 23.3379 18.9352L24 19.0104L23.2537 19.0219C21.9291 19.0424 18.8912 19.2538 16.511 19.4911C12.0056 19.9402 6.99694 20.7685 3.37348 21.6634C2.6334 21.8461 1.93829 21.9955 1.82859 21.9955C1.71898 21.9955 1.25589 21.8022 0.799548 21.5659V21.5659ZM7.09845 17.0568C7.03074 16.8708 7.31396 16.7876 7.4375 16.7348C7.99217 16.4983 8.38254 16.1129 8.51314 15.6726C8.57563 15.462 8.76605 14.2714 8.93619 13.0268C9.10633 11.7823 9.25927 10.8197 9.27596 10.7632C9.28836 10.7214 9.32185 10.5729 9.50142 10.5569C9.9597 10.5526 10.3 10.5584 10.7696 10.5584C11.0291 10.5336 10.9781 10.8158 10.9577 10.9967C10.9373 11.2251 10.8756 11.6661 10.8034 12.204C10.7157 12.8602 10.5844 13.8409 10.5118 14.3834C10.3486 15.6027 10.2582 15.9781 9.97609 16.6061C9.64032 17.3534 9.12713 17.7876 8.19683 18.0965C8.00897 18.1551 7.47017 18.3373 7.41158 18.1754C7.29 17.7877 7.20364 17.4508 7.09845 17.0568V17.0568ZM17.7818 16.648C17.1619 16.3992 17.191 15.4381 17.8414 15.0438C18.253 14.7943 18.8312 14.8366 19.1284 15.1321C19.8604 15.8602 18.7839 17.05 17.7818 16.648ZM13.0959 16.0738C11.2732 15.7643 11.2854 13.6034 11.6937 12.3686C12.205 10.9393 13.451 10.524 14.4751 10.4878C15.3394 10.4583 16.5375 10.6181 16.8383 10.803C16.9214 10.854 16.8823 11.3494 16.6503 13.1863C16.4892 14.4617 16.313 15.5585 16.2587 15.6235C15.9701 15.9692 14.0366 16.2445 13.0959 16.0738ZM14.6859 14.3638C14.8816 13.6399 14.9642 12.9864 15.1041 12.2228C15.0867 11.9596 14.64 11.9578 14.5263 11.9572C13.9345 11.9572 13.585 12.2875 13.3997 13.0219C13.1457 14.0291 13.411 14.5902 14.1413 14.5902C14.3722 14.5689 14.6131 14.5816 14.6859 14.3638ZM1.36467 15.4907C1.8629 14.2805 3.86403 9.94705 4.34434 9.04963C4.43509 8.82586 4.67417 8.78176 4.83786 8.76608C5.30854 8.74469 5.7154 8.75039 6.12872 8.75334C6.55463 8.75711 6.56088 8.90571 6.61568 9.22044C6.68267 9.53404 7.51361 14.4669 7.70167 15.6511C7.72564 15.8476 7.77409 15.9088 7.51668 15.9093C7.16001 15.9103 6.30152 15.9564 6.0102 15.9345C5.91709 15.9225 5.85645 15.8618 5.84201 15.7934C5.81537 15.6664 5.78536 15.4485 5.76487 15.2211L5.71181 14.6313H4.64262H3.57333L3.33957 15.1985C3.2564 15.4002 3.16554 15.5992 3.09783 15.7313C3.05041 15.8524 2.97973 15.9082 2.87391 15.9311C2.6122 15.9289 1.68457 15.9631 1.33578 15.9326C1.16329 15.8537 1.31929 15.6009 1.36467 15.4907V15.4907ZM5.52334 12.9889C5.49302 12.6702 5.28846 11.0266 5.24042 10.7837C5.22782 10.7576 5.22188 10.7661 5.20887 10.7815C5.08257 10.97 4.39904 12.6383 4.28267 13.0257C4.26864 13.0791 4.30357 13.0988 4.35437 13.0944C4.52779 13.0826 5.23642 13.0694 5.45194 13.0612C5.5134 13.0565 5.51944 13.0351 5.52334 12.9889ZM17.864 13.788C17.8917 13.573 17.9522 12.9899 17.9986 12.492C18.045 11.9942 18.1193 11.2166 18.1636 10.7641C18.1973 10.4207 18.2271 10.0873 18.2399 9.91191C18.2658 9.75465 18.457 9.73611 18.5826 9.73489C19.0014 9.73927 19.3958 9.71462 19.7726 9.74915C19.9506 9.76728 20.0249 9.80639 20.0257 9.91171C19.8558 10.7781 19.2454 13.7673 19.1985 13.9525C19.158 14.1121 19.1416 14.1591 18.8966 14.173C18.5963 14.1682 18.346 14.1838 18.0414 14.1823C17.8668 14.18 17.8201 14.1291 17.864 13.788V13.788ZM9.4124 9.34694C9.4124 8.81884 9.75412 8.41632 10.1821 8.24694C10.5519 8.11809 10.9663 8.1186 11.1869 8.36926C11.5785 8.82189 11.3215 9.49065 10.8642 9.83909C10.2781 10.24 9.42193 10.0031 9.4124 9.34694V9.34694ZM19.9124 8.2339C19.7844 7.95106 19.3738 7.05873 18.9999 6.25095C18.626 5.44316 18.3398 4.73111 18.364 4.66847C18.3882 4.60594 18.8049 4.09118 19.2901 3.52478L20.0798 2.60261C20.1314 2.54058 20.1907 2.4645 20.2623 2.46358C20.7383 2.46593 21.2314 2.49424 21.6856 2.48976C22.0238 2.48691 22.1941 2.46511 21.9431 2.71832C21.7825 2.91611 21.4658 3.2782 21.1037 3.67552C20.5802 4.24966 20.1521 4.73478 20.1521 4.75362C20.1521 4.77236 20.5445 5.62975 21.0242 6.65896C21.4011 7.46757 21.7124 8.19082 21.8173 8.49291C21.8622 8.59547 21.8229 8.68327 21.727 8.70721C21.6001 8.73654 21.3715 8.74815 20.9786 8.74815H20.39C20.2463 8.76312 20.1405 8.73807 20.0852 8.61574L19.9124 8.2339V8.2339ZM2.29763 7.63185C1.76795 7.36938 1.5176 7.03724 1.47192 6.53664C1.44457 6.23659 1.93829 2.20315 2.15688 0.920631C2.21025 0.619455 2.2334 0.602242 2.5238 0.602242H3.09517C3.3953 0.602242 3.66849 0.597252 3.84037 0.606928C4.07514 0.610391 4.03222 0.757465 4.0143 0.933668C3.97394 1.32692 3.84815 2.17891 3.6903 3.27596C3.41015 5.22234 3.33886 5.90913 3.40585 6.01506C3.48431 6.13871 3.68344 6.15908 5.00308 6.17873L6.18352 6.19635C6.46459 6.18077 6.52277 6.24942 6.49501 6.50038C6.42618 6.91594 6.38848 7.24696 6.31996 7.61922C6.27294 7.85155 6.12216 7.79074 5.88728 7.805L4.50731 7.82405C2.73778 7.84615 2.72836 7.84523 2.29763 7.63185V7.63185ZM15.909 7.78137C15.8911 7.74746 15.9404 7.27537 16.0187 6.7323C16.0969 6.18922 16.2602 5.02282 16.3816 4.14037C16.7264 1.63512 16.8396 0.880298 16.8876 0.591548C16.9383 0.25452 16.9387 0.273159 17.2707 0.273159H17.7973C18.0028 0.273159 18.1632 0.270511 18.2871 0.274483C18.76 0.289761 18.6998 0.249224 18.5804 0.977465C18.5354 1.25267 18.3852 2.46389 18.2467 3.4821C17.898 6.04633 17.6693 7.61861 17.6274 7.74022C17.5881 7.8542 15.9678 7.893 15.909 7.78137V7.78137ZM6.91181 7.58622C7.13143 5.75381 7.34121 4.36821 7.58521 2.66301C7.60344 2.4589 7.80523 2.43527 8.04103 2.43496C8.3092 2.43476 8.58177 2.4312 8.83714 2.43965C9.33179 2.44128 9.46188 2.50718 9.41056 2.83626C9.19146 4.43707 8.92062 5.86574 8.63617 7.49334C8.583 7.76895 8.51816 7.7608 8.25327 7.7608C7.94495 7.76182 7.39775 7.7721 7.11822 7.76436C6.95463 7.73564 6.91745 7.71721 6.91181 7.58622ZM10.4031 3.48404C10.5389 2.77546 10.6329 2.66484 10.83 2.53641C11.0732 2.37803 12.8701 2.21293 13.4905 2.29196C13.5771 2.30429 13.6596 2.31977 13.738 2.33841C15.5556 2.76761 15.2731 4.81392 15.1549 5.75534C15.0303 6.65469 14.9081 7.47388 14.8832 7.57563C14.8399 7.75285 14.8012 7.7608 13.978 7.7608C13.7016 7.7608 13.557 7.75133 13.3997 7.73666C13.1455 7.72016 13.1219 7.66333 13.1473 7.47948C13.2399 6.72812 13.3649 6.08014 13.458 5.37828C13.5834 4.42046 13.55 3.47487 12.3548 3.67817C12.1499 3.72981 12.0939 3.74621 12.0656 3.9493C11.9165 4.8954 11.7855 5.87277 11.649 6.7982C11.619 7.01901 11.5772 7.24981 11.5343 7.45443C11.5231 7.50647 11.5171 7.55312 11.5076 7.58765C11.4954 7.62849 11.4671 7.67086 11.4401 7.6289C11.248 7.28108 10.3443 7.33903 9.96728 7.59427C9.77809 7.72505 9.73916 7.79533 9.8164 7.39678C9.83002 7.31224 9.84323 7.22781 9.85614 7.14347C10.0433 5.92258 10.1694 4.72154 10.4031 3.48404V3.48404ZM7.82306 1.38701C7.62116 0.702363 8.22224 0.0256591 8.89532 0.00213128C9.80749 -0.0584706 10.0593 1.18891 9.1261 1.7547C8.58567 2.00057 8.01758 1.94842 7.82306 1.38701V1.38701Z" fill="#E9232A"/>
</svg>
