<svg width="13" height="13" viewBox="0 0 13 13" fill="none" xmlns="http://www.w3.org/2000/svg">
<path d="M12.8007 11.695L9.85364 8.748C10.5631 7.80347 10.9462 6.65377 10.9449 5.47244C10.9449 2.45495 8.48992 0 5.47244 0C2.45495 0 0 2.45495 0 5.47244C0 8.48992 2.45495 10.9449 5.47244 10.9449C6.65377 10.9462 7.80347 10.5631 8.748 9.85364L11.695 12.8007C11.8442 12.934 12.0388 13.0052 12.2388 12.9996C12.4388 12.994 12.6291 12.912 12.7706 12.7706C12.912 12.6291 12.994 12.4388 12.9996 12.2388C13.0052 12.0388 12.934 11.8442 12.8007 11.695V11.695ZM1.56355 5.47244C1.56355 4.69933 1.7928 3.94359 2.22232 3.30078C2.65183 2.65796 3.26232 2.15695 3.97657 1.8611C4.69083 1.56524 5.47677 1.48784 6.23502 1.63866C6.99327 1.78949 7.68977 2.16177 8.23643 2.70844C8.7831 3.25511 9.15539 3.9516 9.30621 4.70985C9.45704 5.4681 9.37963 6.25404 9.08377 6.9683C8.78792 7.68255 8.28691 8.29304 7.64409 8.72255C7.00128 9.15207 6.24554 9.38132 5.47244 9.38132C4.43612 9.38007 3.4426 8.96785 2.70981 8.23506C1.97702 7.50227 1.5648 6.50875 1.56355 5.47244V5.47244Z" fill="#A4B0BE"/>
</svg>
