<svg width="16" height="16" viewBox="0 0 16 16" fill="none" xmlns="http://www.w3.org/2000/svg">
<path d="M8.00001 1.86622e-05C8.19658 1.86622e-05 8.38058 0.0388755 8.55315 0.116589C8.72369 0.18635 8.87863 0.289382 9.00892 0.419672C9.13921 0.549962 9.24224 0.704899 9.312 0.87544C9.38972 1.04687 9.42857 1.23201 9.42857 1.42858C9.42857 1.62515 9.38972 1.80915 9.312 1.98172C9.24234 2.15232 9.13938 2.30734 9.00915 2.43771C8.87759 2.56882 8.72301 2.67458 8.55315 2.74971C8.3777 2.82177 8.18968 2.85829 8.00001 2.85714C7.80344 2.85714 7.61944 2.82171 7.44687 2.74971C7.10465 2.59758 6.83101 2.32394 6.67888 1.98172C6.60682 1.80626 6.5703 1.61825 6.57145 1.42858C6.57145 1.23201 6.60688 1.04801 6.67888 0.87544C6.75545 0.70287 6.86059 0.550872 6.99088 0.419444C7.1223 0.289159 7.2743 0.187446 7.44687 0.116589C7.62084 0.0387567 7.80943 -0.000988189 8.00001 1.86622e-05ZM1.86634 3.43771C1.86476 3.18645 1.93776 2.94038 2.0761 2.73063C2.21444 2.52088 2.4119 2.3569 2.64348 2.25943C2.80211 2.18878 2.97383 2.15228 3.14748 2.15228C3.32113 2.15228 3.49284 2.18878 3.65147 2.25943C3.8069 2.32457 3.94061 2.41714 4.05376 2.536C4.17261 2.64914 4.26518 2.78285 4.33033 2.93714C4.40114 3.09593 4.43773 3.26784 4.43773 3.44171C4.43773 3.61557 4.40114 3.78748 4.33033 3.94627C4.20048 4.25193 3.95713 4.49528 3.65147 4.62513C3.32803 4.75705 2.96578 4.75705 2.64234 4.62513C2.49052 4.56154 2.35151 4.47093 2.23206 4.3577C2.11871 4.23791 2.02809 4.0985 1.96463 3.94627C1.899 3.78479 1.86562 3.61202 1.86634 3.43771V3.43771ZM1.14292 7.14282C1.29312 7.14015 1.44221 7.16897 1.58059 7.22743C1.71897 7.28589 1.84356 7.37269 1.94634 7.48225C2.0559 7.58503 2.1427 7.70963 2.20116 7.848C2.25962 7.98638 2.28844 8.13547 2.28577 8.28567C2.28716 8.4388 2.25681 8.59056 2.19663 8.73138C2.07816 9.00325 1.86143 9.22039 1.58978 9.33937C1.4486 9.39971 1.29644 9.43007 1.14292 9.42852C0.98979 9.42991 0.83803 9.39956 0.697211 9.33937C0.56218 9.28093 0.438411 9.19932 0.3315 9.09823C0.230003 8.99141 0.148002 8.86764 0.089216 8.73252C0.0288802 8.59135 -0.00147497 8.43919 7.38986e-05 8.28567C-0.00165044 8.13633 0.0268182 7.98819 0.083771 7.85012C0.140724 7.71206 0.224986 7.58693 0.3315 7.48225C0.436438 7.3733 0.562562 7.28699 0.702108 7.22862C0.841653 7.17024 0.991669 7.14104 1.14292 7.14282V7.14282ZM2.15206 13.1336C2.1537 12.9381 2.21186 12.7472 2.31953 12.584C2.42721 12.4207 2.5798 12.2921 2.75891 12.2136C2.88169 12.161 3.01389 12.1339 3.14748 12.1339C3.28107 12.1339 3.41326 12.161 3.53605 12.2136C3.66176 12.2674 3.76804 12.3394 3.85719 12.4285C3.99662 12.5702 4.09133 12.7497 4.12953 12.9448C4.16773 13.1398 4.14774 13.3418 4.07204 13.5256C3.96504 13.767 3.76808 13.9571 3.52305 14.0555C3.27803 14.1539 3.00428 14.1528 2.76005 14.0525C2.52535 13.9482 2.33736 13.761 2.23206 13.5268C2.17874 13.4026 2.15151 13.2688 2.15206 13.1336V13.1336ZM8.00001 14.2856C8.23772 14.2856 8.44001 14.369 8.60686 14.5359C8.68783 14.6146 8.75181 14.709 8.79486 14.8134C8.8379 14.9178 8.8591 15.0299 8.85715 15.1428C8.8591 15.2556 8.8379 15.3677 8.79486 15.4721C8.75181 15.5765 8.68783 15.6709 8.60686 15.7496C8.52818 15.8306 8.43373 15.8946 8.32936 15.9376C8.22499 15.9806 8.1129 16.0018 8.00001 15.9999C7.88713 16.0018 7.77504 15.9806 7.67066 15.9376C7.56629 15.8946 7.47185 15.8306 7.39316 15.7496C7.31219 15.6709 7.24821 15.5765 7.20517 15.4721C7.16212 15.3677 7.14092 15.2556 7.14288 15.1428C7.14288 14.905 7.2263 14.7028 7.39316 14.5359C7.47185 14.4549 7.56629 14.391 7.67066 14.3479C7.77504 14.3049 7.88713 14.2837 8.00001 14.2856V14.2856ZM12.1337 13.1336C12.1337 12.9313 12.2023 12.7622 12.3394 12.6251C12.4765 12.4879 12.6457 12.4194 12.848 12.4194C13.0503 12.4194 13.2205 12.4879 13.3565 12.6251C13.4937 12.7622 13.5623 12.9313 13.5623 13.1336C13.5623 13.3359 13.4937 13.5062 13.3565 13.6422C13.2903 13.7094 13.211 13.7623 13.1235 13.7977C13.0361 13.833 12.9423 13.8501 12.848 13.8479C12.7537 13.8501 12.6599 13.833 12.5724 13.7977C12.485 13.7623 12.4057 13.7094 12.3394 13.6422C12.2722 13.5759 12.2193 13.4967 12.184 13.4092C12.1486 13.3217 12.1315 13.228 12.1337 13.1336ZM14.8571 7.71424C14.9322 7.71341 15.0066 7.728 15.0758 7.75709C15.145 7.78618 15.2075 7.82917 15.2594 7.88339C15.3136 7.9353 15.3566 7.99779 15.3857 8.06698C15.4148 8.13618 15.4294 8.21061 15.4285 8.28567C15.4294 8.36073 15.4148 8.43516 15.3857 8.50435C15.3566 8.57355 15.3136 8.63604 15.2594 8.68795C15.2075 8.74217 15.145 8.78515 15.0758 8.81425C15.0066 8.84334 14.9322 8.85792 14.8571 8.85709C14.782 8.85792 14.7076 8.84334 14.6384 8.81425C14.5692 8.78515 14.5067 8.74217 14.4548 8.68795C14.4006 8.63604 14.3576 8.57355 14.3285 8.50435C14.2994 8.43516 14.2848 8.36073 14.2857 8.28567C14.2848 8.21061 14.2994 8.13618 14.3285 8.06698C14.3576 7.99779 14.4006 7.9353 14.4548 7.88339C14.5067 7.82917 14.5692 7.78618 14.6384 7.75709C14.7076 7.728 14.782 7.71341 14.8571 7.71424V7.71424ZM12.848 1.86629C13.0628 1.86629 13.2651 1.90743 13.4548 1.992C13.8312 2.15483 14.1315 2.45473 14.2948 2.83085C14.3782 3.02057 14.4205 3.22285 14.4205 3.43656C14.4205 3.65142 14.3782 3.8537 14.2948 4.04456C14.1315 4.42068 13.8312 4.72058 13.4548 4.88341C13.2639 4.96702 13.0576 5.00984 12.8491 5.00912C12.6343 5.00912 12.432 4.96684 12.2411 4.88341C11.8653 4.72015 11.5655 4.42034 11.4023 4.04456C11.3185 3.85326 11.2757 3.64654 11.2766 3.43771C11.2766 3.22285 11.3188 3.02057 11.4023 2.83085C11.5651 2.45451 11.865 2.1542 12.2411 1.99086C12.432 1.90743 12.6343 1.86515 12.848 1.86515V1.86629Z" fill="#747D8C"/>
</svg>
