<svg width="14" height="11" viewBox="0 0 14 11" fill="none" xmlns="http://www.w3.org/2000/svg">
<path d="M4.32185 8.4916L1.42224 5.59199C1.266 5.43575 1.05409 5.34797 0.833131 5.34797C0.612171 5.34797 0.400261 5.43575 0.244019 5.59199C0.0877761 5.74824 0 5.96015 0 6.18111C0 6.29051 0.0215498 6.39885 0.0634185 6.49993C0.105287 6.60101 0.166655 6.69286 0.244019 6.77022L3.73692 10.2631C4.06281 10.589 4.58925 10.589 4.91514 10.2631L13.756 1.42224C13.9123 1.266 14 1.05409 14 0.833132C14 0.612171 13.9123 0.400261 13.756 0.244019C13.5998 0.0877763 13.3879 0 13.1669 0C12.9459 0 12.734 0.0877763 12.5778 0.244019L4.32185 8.4916Z" fill="#EC2028"/>
</svg>
