<svg width="13" height="13" viewBox="0 0 13 13" fill="none" xmlns="http://www.w3.org/2000/svg">
<path d="M12.8008 11.6951L9.85373 8.74809C10.5632 7.80354 10.9463 6.65383 10.945 5.47249C10.945 2.45498 8.49 0 5.47249 0C2.45498 0 0 2.45498 0 5.47249C0 8.49 2.45498 10.945 5.47249 10.945C6.65383 10.9463 7.80354 10.5632 8.74809 9.85373L11.6951 12.8008C11.8443 12.9341 12.0389 13.0053 12.2389 12.9997C12.4389 12.9941 12.6292 12.9122 12.7707 12.7707C12.9122 12.6292 12.9941 12.4389 12.9997 12.2389C13.0053 12.0389 12.9341 11.8443 12.8008 11.6951V11.6951ZM1.56357 5.47249C1.56357 4.69938 1.79282 3.94363 2.22234 3.30081C2.65186 2.65799 3.26235 2.15697 3.97661 1.86112C4.69087 1.56526 5.47682 1.48785 6.23508 1.63868C6.99334 1.7895 7.68984 2.16179 8.23651 2.70846C8.78318 3.25514 9.15547 3.95164 9.3063 4.70989C9.45712 5.46815 9.37971 6.2541 9.08386 6.96837C8.788 7.68263 8.28698 8.29312 7.64417 8.72263C7.00135 9.15215 6.2456 9.38141 5.47249 9.38141C4.43616 9.38016 3.44263 8.96793 2.70984 8.23514C1.97704 7.50234 1.56481 6.50882 1.56357 5.47249V5.47249Z" fill="#A4B0BE"/>
</svg>
