<svg width="24" height="22" viewBox="0 0 24 22" fill="none" xmlns="http://www.w3.org/2000/svg">
<path d="M0.799549 21.5659C0.343211 21.3295 -0.0163291 21.1225 0.000572334 21.1057C0.0588567 21.0477 2.24242 20.5844 3.76724 20.3065C7.06681 19.7051 10.9898 19.2238 14.8973 18.9408C16.5065 18.8243 22.3283 18.8204 23.338 18.9352L24 19.0105L23.2538 19.022C21.9291 19.0425 18.8913 19.2538 16.511 19.4911C12.0056 19.9403 6.99695 20.7685 3.37349 21.6634C2.63341 21.8461 1.9383 21.9956 1.82859 21.9956C1.71899 21.9956 1.25589 21.8022 0.799549 21.5659V21.5659ZM7.09846 17.0568C7.03075 16.8709 7.31398 16.7877 7.43751 16.7348C7.99219 16.4983 8.38256 16.1129 8.51316 15.6727C8.57565 15.462 8.76607 14.2714 8.93621 13.0269C9.10635 11.7823 9.25928 10.8197 9.27598 10.7632C9.28837 10.7214 9.32187 10.5729 9.50143 10.557C9.95972 10.5526 10.3 10.5584 10.7697 10.5584C11.0291 10.5336 10.9781 10.8159 10.9577 10.9968C10.9373 11.2251 10.8756 11.6661 10.8035 12.204C10.7157 12.8602 10.5845 13.841 10.5118 14.3834C10.3487 15.6027 10.2582 15.9781 9.97611 16.6062C9.64033 17.3534 9.12714 17.7876 8.19685 18.0966C8.00899 18.1551 7.47019 18.3373 7.4116 18.1754C7.29001 17.7877 7.20366 17.4508 7.09846 17.0568V17.0568ZM17.7818 16.648C17.1619 16.3992 17.1911 15.4381 17.8414 15.0438C18.253 14.7943 18.8312 14.8367 19.1284 15.1322C19.8605 15.8602 18.7839 17.05 17.7818 16.648ZM13.0959 16.0739C11.2732 15.7643 11.2854 13.6035 11.6937 12.3686C12.205 10.9393 13.451 10.5241 14.4752 10.4878C15.3394 10.4584 16.5376 10.6182 16.8383 10.803C16.9215 10.8541 16.8823 11.3495 16.6503 13.1864C16.4892 14.4618 16.313 15.5585 16.2587 15.6235C15.9702 15.9693 14.0367 16.2446 13.0959 16.0739ZM14.686 14.3638C14.8816 13.6399 14.9642 12.9864 15.1041 12.2228C15.0867 11.9597 14.64 11.9578 14.5263 11.9572C13.9345 11.9572 13.585 12.2875 13.3997 13.0219C13.1457 14.0291 13.411 14.5902 14.1413 14.5902C14.3722 14.5689 14.6131 14.5816 14.686 14.3638ZM1.36467 15.4908C1.86291 14.2806 3.86404 9.94707 4.34434 9.04965C4.4351 8.82588 4.67418 8.78178 4.83787 8.76609C5.30855 8.7447 5.71541 8.75041 6.12873 8.75336C6.55464 8.75713 6.56089 8.90573 6.61569 9.22045C6.68268 9.53406 7.51362 14.467 7.70169 15.6511C7.72566 15.8477 7.77411 15.9089 7.51669 15.9093C7.16002 15.9103 6.30153 15.9564 6.01021 15.9345C5.9171 15.9225 5.85646 15.8618 5.84202 15.7935C5.81538 15.6665 5.78537 15.4485 5.76488 15.2212L5.71182 14.6313H4.64263H3.57333L3.33958 15.1986C3.2564 15.4002 3.16555 15.5992 3.09784 15.7313C3.05041 15.8524 2.97973 15.9083 2.87392 15.9312C2.6122 15.9289 1.68457 15.9632 1.33579 15.9326C1.16329 15.8538 1.31929 15.601 1.36467 15.4908V15.4908ZM5.52335 12.9889C5.49303 12.6702 5.28847 11.0266 5.24043 10.7837C5.22783 10.7576 5.22189 10.7662 5.20888 10.7815C5.08258 10.9701 4.39904 12.6383 4.28268 13.0257C4.26865 13.0791 4.30358 13.0988 4.35438 13.0944C4.5278 13.0826 5.23643 13.0694 5.45195 13.0612C5.51341 13.0565 5.51946 13.0351 5.52335 12.9889ZM17.8641 13.788C17.8917 13.573 17.9523 12.9899 17.9987 12.492C18.0451 11.9942 18.1193 11.2167 18.1637 10.7641C18.1974 10.4207 18.2271 10.0873 18.2399 9.91193C18.2658 9.75467 18.457 9.73613 18.5826 9.73491C19.0015 9.73929 19.3958 9.71464 19.7726 9.74917C19.9506 9.7673 20.025 9.80641 20.0257 9.91172C19.8559 10.7781 19.2455 13.7673 19.1986 13.9525C19.158 14.1121 19.1416 14.1592 18.8966 14.173C18.5964 14.1682 18.346 14.1838 18.0415 14.1823C17.8668 14.18 17.8201 14.1291 17.8641 13.788V13.788ZM9.41242 9.34695C9.41242 8.81885 9.75414 8.41633 10.1821 8.24695C10.5519 8.11811 10.9663 8.11862 11.187 8.36928C11.5786 8.82191 11.3216 9.49067 10.8642 9.8391C10.2781 10.24 9.42195 10.0031 9.41242 9.34695V9.34695ZM19.9124 8.23392C19.7845 7.95107 19.3738 7.05875 18.9999 6.25096C18.6261 5.44317 18.3399 4.73112 18.364 4.66848C18.3882 4.60595 18.8049 4.09119 19.2901 3.52479L20.0798 2.60262C20.1314 2.54059 20.1907 2.46451 20.2623 2.46359C20.7383 2.46593 21.2314 2.49425 21.6856 2.48977C22.0239 2.48691 22.1941 2.46512 21.9431 2.71832C21.7825 2.91612 21.4658 3.2782 21.1037 3.67553C20.5803 4.24967 20.1521 4.73479 20.1521 4.75363C20.1521 4.77237 20.5445 5.62976 21.0242 6.65898C21.4012 7.46758 21.7125 8.19083 21.8174 8.49292C21.8622 8.59549 21.8229 8.68329 21.727 8.70722C21.6001 8.73656 21.3716 8.74817 20.9786 8.74817H20.3901C20.2463 8.76314 20.1405 8.73808 20.0852 8.61576L19.9124 8.23392V8.23392ZM2.29763 7.63187C1.76795 7.3694 1.5176 7.03726 1.47192 6.53665C1.44457 6.2366 1.9383 2.20315 2.15689 0.920633C2.21026 0.619457 2.23341 0.602244 2.5238 0.602244H3.09517C3.3953 0.602244 3.66849 0.597253 3.84037 0.606929C4.07515 0.610392 4.03223 0.757466 4.01431 0.93367C3.97395 1.32692 3.84816 2.17891 3.69031 3.27596C3.41016 5.22235 3.33886 5.90914 3.40585 6.01507C3.48432 6.13872 3.68345 6.15909 5.00309 6.17875L6.18353 6.19637C6.4646 6.18078 6.52279 6.24943 6.49503 6.50039C6.42619 6.91595 6.3885 7.24697 6.31997 7.61924C6.27295 7.85156 6.12217 7.79076 5.88729 7.80502L4.50732 7.82406C2.73779 7.84616 2.72836 7.84525 2.29763 7.63187V7.63187ZM15.909 7.78139C15.8911 7.74747 15.9405 7.27539 16.0187 6.73231C16.0969 6.18924 16.2603 5.02283 16.3817 4.14038C16.7264 1.63513 16.8396 0.8803 16.8877 0.591549C16.9384 0.254521 16.9387 0.27316 17.2708 0.27316H17.7974C18.0029 0.27316 18.1633 0.270511 18.2871 0.274484C18.76 0.289761 18.6998 0.249224 18.5805 0.977466C18.5354 1.25267 18.3852 2.4639 18.2468 3.48211C17.8981 6.04634 17.6693 7.61863 17.6274 7.74024C17.5881 7.85421 15.9678 7.89302 15.909 7.78139V7.78139ZM6.91183 7.58624C7.13144 5.75382 7.34123 4.36822 7.58522 2.66302C7.60345 2.4589 7.80525 2.43527 8.04105 2.43497C8.30922 2.43477 8.58179 2.4312 8.83716 2.43965C9.33181 2.44128 9.4619 2.50718 9.41058 2.83627C9.19147 4.43707 8.92064 5.86575 8.63618 7.49335C8.58302 7.76896 8.51818 7.76081 8.25329 7.76081C7.94497 7.76183 7.39777 7.77212 7.11823 7.76438C6.95464 7.73566 6.91746 7.71722 6.91183 7.58624ZM10.4032 3.48405C10.5389 2.77546 10.6329 2.66485 10.83 2.53641C11.0733 2.37803 12.8701 2.21293 13.4905 2.29197C13.5771 2.30429 13.6596 2.31977 13.7381 2.33841C15.5556 2.76762 15.2731 4.81393 15.1549 5.75535C15.0304 6.6547 14.9082 7.4739 14.8833 7.57565C14.8399 7.75287 14.8012 7.76081 13.9781 7.76081C13.7016 7.76081 13.5571 7.75134 13.3997 7.73667C13.1455 7.72017 13.1219 7.66334 13.1473 7.4795C13.2399 6.72813 13.3649 6.08015 13.458 5.37829C13.5834 4.42047 13.55 3.47488 12.3548 3.67818C12.1499 3.72981 12.0939 3.74621 12.0656 3.94931C11.9165 4.89541 11.7855 5.87278 11.649 6.79821C11.619 7.01902 11.5772 7.24982 11.5343 7.45444C11.5232 7.50649 11.5171 7.55314 11.5076 7.58766C11.4954 7.62851 11.4671 7.67088 11.4401 7.62891C11.248 7.28109 10.3444 7.33904 9.9673 7.59428C9.77811 7.72506 9.73918 7.79534 9.81642 7.39679C9.83004 7.31226 9.84325 7.22782 9.85616 7.14349C10.0433 5.92259 10.1694 4.72155 10.4032 3.48405V3.48405ZM7.82307 1.38701C7.62117 0.702364 8.22225 0.0256591 8.89534 0.00213129C9.8075 -0.0584707 10.0593 1.18891 9.12612 1.7547C8.58568 2.00057 8.01759 1.94842 7.82307 1.38701V1.38701Z" fill="#E9232A"/>
</svg>
