<svg width="20" height="20" viewBox="0 0 20 20" fill="none" xmlns="http://www.w3.org/2000/svg">
<path d="M10.0001 1.66669C5.40008 1.66669 1.66675 5.40002 1.66675 10C1.66675 14.6 5.40008 18.3334 10.0001 18.3334C14.6001 18.3334 18.3334 14.6 18.3334 10C18.3334 5.40002 14.6001 1.66669 10.0001 1.66669ZM10.0001 16.6667C6.31675 16.6667 3.33341 13.6834 3.33341 10C3.33341 6.31669 6.31675 3.33335 10.0001 3.33335C13.6834 3.33335 16.6667 6.31669 16.6667 10C16.6667 13.6834 13.6834 16.6667 10.0001 16.6667Z" fill="#EC2028"/>
<path d="M10 6C7.792 6 6 7.792 6 10C6 12.208 7.792 14 10 14C12.208 14 14 12.208 14 10C14 7.792 12.208 6 10 6Z" fill="#EC2028"/>
</svg>
