<svg width="20" height="20" viewBox="0 0 20 20" fill="none" xmlns="http://www.w3.org/2000/svg">
<path d="M10 1.66667C5.40002 1.66667 1.66669 5.40001 1.66669 10C1.66669 14.6 5.40002 18.3333 10 18.3333C14.6 18.3333 18.3334 14.6 18.3334 10C18.3334 5.40001 14.6 1.66667 10 1.66667ZM10 16.6667C6.31669 16.6667 3.33335 13.6833 3.33335 10C3.33335 6.31667 6.31669 3.33334 10 3.33334C13.6834 3.33334 16.6667 6.31667 16.6667 10C16.6667 13.6833 13.6834 16.6667 10 16.6667Z" fill="#EC2028"/>
<path d="M10 6C7.792 6 6 7.792 6 10C6 12.208 7.792 14 10 14C12.208 14 14 12.208 14 10C14 7.792 12.208 6 10 6Z" fill="#EC2028"/>
</svg>
