<svg width="113" height="112" viewBox="0 0 113 112" fill="none" xmlns="http://www.w3.org/2000/svg">
<path fill-rule="evenodd" clip-rule="evenodd" d="M36.7096 9.45145C72.4239 9.45145 102.614 33.0564 112.551 65.5194V111.999H0V18.4422C10.9814 12.7027 23.4722 9.45145 36.7096 9.45145Z" fill="#F9D4DB"/>
<path d="M37.3564 77.861C41.6694 77.7283 56.1674 74.0955 58.9708 73.3822C59.286 73.3159 59.5514 73.1334 59.7339 72.868L60.4637 71.8229L63.3003 68.2399C63.6652 67.7754 64.1961 67.51 64.7767 67.51H69.4048C69.4048 67.51 70.1015 67.2778 70.5327 68.8703L70.5493 68.9864C71.6773 68.9366 72.8717 68.8868 73.9001 68.8537C73.6845 67.9081 70.1512 52.5807 68.4924 48.3341C66.7672 43.9714 57.0632 40.7699 57.0632 40.7699V40.7367C56.6982 40.7202 56.3167 40.6704 55.9352 40.604L55.9186 40.7699C47.9563 44.5852 42.2168 36.6561 41.4039 35.4451C38.0697 36.9878 24.9983 43.3577 23.1736 48.9313C21.1 55.1684 18.7279 68.2731 19.8559 79.6028C19.9057 80.0673 20.2043 80.4488 20.6356 80.5981C21.1 80.7806 21.7304 80.9796 22.3276 81.046C22.228 80.482 22.1285 79.8848 22.0456 79.2544V79.2379C26.0931 78.0103 37.3564 77.861 37.3564 77.861Z" fill="#EC2029"/>
<path d="M29.8587 90.7832L29.5436 111.999H74.5638C73.9335 104.999 73.0377 95.9421 71.9926 87.9632C71.5945 84.8281 71.1632 81.8422 70.7154 79.2213C70.7154 79.2213 66.7176 82.2071 60.7791 80.4156C60.7791 80.4156 40.0107 89.0912 29.8587 90.7832Z" fill="#EC2029"/>
<path d="M55.9353 40.604C56.3168 40.6703 56.6984 40.7201 57.0633 40.7367C60.1487 40.8694 63.118 39.476 64.8432 36.6228C69.3385 29.1582 69.9855 18.21 69.9855 18.21C70.0021 18.0607 70.0187 17.9114 70.0021 17.7621C69.9855 16.9659 69.6703 16.2194 68.8575 16.0535C68.0281 15.871 58.2908 10.7951 56.1676 16.2028C56.1676 16.2028 50.0631 20.7148 49.7977 20.947C49.5489 21.1958 48.4375 26.1059 48.4375 26.1059C48.4375 26.1059 48.0062 26.7031 47.7574 26.0562H46.3639C45.6672 26.1557 45.1198 26.0893 44.672 25.9069C44.672 25.9069 44.4397 33.9521 42.1671 35.0967C42.1671 35.0967 41.8851 35.2128 41.4041 35.4451C42.2169 36.656 47.9564 44.5851 55.9187 40.7699L55.9353 40.604Z" fill="white"/>
<path d="M42.9301 20.4494C42.7642 22.44 42.8803 25.1438 44.6718 25.9069C45.1197 26.0894 45.6671 26.1557 46.3638 26.0562H47.7572C47.5748 25.5088 47.525 24.132 48.006 20.8475C48.1719 19.6863 47.8733 18.492 47.1269 17.5962C46.5297 16.8829 45.6671 16.4019 44.5557 17.0654C43.7263 17.5465 43.1955 18.4256 43.0628 19.3877C43.013 19.7029 42.9632 20.0513 42.9301 20.4328C42.9301 20.4494 42.9301 20.4494 42.9301 20.4494Z" fill="white"/>
<path d="M70.002 17.7622C70.002 17.7622 74.7794 12.7857 72.0755 8.70502C69.7034 5.17174 69.2556 8.52255 69.1892 9.46807C69.239 8.32349 69.3717 3.51292 67.5304 3.34704C65.4237 3.18116 66.2697 5.66938 66.2697 5.66938C66.2697 5.66938 56.0514 -3.96833 50.992 2.31858C50.992 2.31858 43.4278 3.24751 42.6979 10.1814C41.968 16.9162 42.8804 20.2504 42.9301 20.4328C42.9633 20.0513 43.0131 19.703 43.0629 19.3878C43.1956 18.4257 43.7264 17.5465 44.5558 17.0654C45.6672 16.4019 46.5298 16.883 47.127 17.5963C47.8734 18.492 48.172 19.6864 48.0061 20.8475C47.5251 24.132 47.5748 25.5088 47.7573 26.0562C48.0061 26.7032 48.4374 26.106 48.4374 26.106C48.4374 26.106 49.5488 21.1959 49.7976 20.9471C50.0631 20.7148 56.1675 16.2029 56.1675 16.2029C58.2908 10.7951 68.028 15.8711 68.8574 16.0536C69.6703 16.2195 69.9854 16.9659 70.002 17.7622Z" fill="black"/>
<path d="M71.6276 78.1098L70.7152 79.2212C71.1631 81.8422 71.5944 84.828 71.9925 87.9632C76.2888 87.5651 80.1373 78.0601 80.2534 77.7615C79.706 78.1596 78.8102 78.6738 77.7154 78.7402C77.7154 78.7402 74.1821 78.3586 73.2034 77.4795C73.1371 77.4961 73.0707 77.5126 73.0044 77.5292L71.6276 78.1098Z" fill="white"/>
<path d="M77.2344 72.7518C75.9737 72.7684 76.0567 74.1452 76.0567 74.1452C76.1064 74.3111 76.2225 74.4438 76.3884 74.5765C77.7818 75.605 82.5924 75.0908 82.5924 75.0908C84.1683 74.1287 83.9526 72.0385 83.8531 71.4082L83.0734 71.4248C82.526 71.6736 81.9289 71.7897 81.2985 71.8229V71.8395C81.1326 72.1215 80.27 72.5196 80.27 72.5196C80.1373 72.7353 78.4951 72.7518 77.2344 72.7518Z" fill="white"/>
<path d="M74.4643 66.7801C74.4643 66.7801 73.7676 67.9579 73.9168 68.8536C74.2984 68.837 74.6467 68.8204 74.9619 68.8039L78.2629 65.8678L78.18 65.7682C78.18 65.7682 75.9904 64.1758 74.4643 66.7801Z" fill="white"/>
<path d="M80.8838 77.2307C80.8175 77.2473 78.7605 76.9985 77.2344 76.4345C77.2344 76.4345 75.924 76.6169 75.5424 76.534C74.9618 76.8326 74.0993 77.2473 73.2035 77.4795C74.1822 78.3587 77.7155 78.7402 77.7155 78.7402C78.8103 78.6739 79.7061 78.1596 80.2535 77.7615C80.27 77.7615 80.27 77.7615 80.27 77.7615C80.6682 77.4629 80.8838 77.2307 80.8838 77.2307Z" fill="white"/>
<path d="M76.4216 74.9415L75.5922 75.0079C75.5756 75.605 76.3055 76.0695 77.2344 76.4344C78.7605 76.9984 80.8175 77.2473 80.8838 77.2307C82.6256 76.252 82.5924 75.0908 82.5924 75.0908C82.5924 75.0908 77.7818 75.605 76.3884 74.5766L76.4216 74.9415Z" fill="white"/>
<path d="M70.5493 68.9863L70.5327 68.8702C70.1014 67.2778 69.4047 67.51 69.4047 67.51H64.7766C64.1961 67.51 63.6652 67.7754 63.3003 68.2399L60.4637 71.8229L59.7338 72.868C59.5514 73.1334 59.286 73.3158 58.9708 73.3822C56.1674 74.0955 41.6693 77.7283 37.3564 77.861C37.3564 77.861 26.0931 78.0103 22.0455 79.2378V79.2544C22.1285 79.8848 22.228 80.4819 22.3275 81.0459C23.1735 85.956 24.484 88.0959 25.4295 89.7381C25.9106 90.6007 26.8063 91.0983 27.7519 91.0486C28.3822 90.9988 29.0955 90.9159 29.8586 90.7832C40.0105 89.0912 60.7789 80.4156 60.7789 80.4156C66.7175 82.2071 70.7152 79.2212 70.7152 79.2212L71.6276 78.1098L73.0044 77.5292C73.0707 77.5126 73.1371 77.4961 73.2034 77.4795C74.0992 77.2472 74.9618 76.8325 75.5424 76.5339C75.9239 76.6169 77.2343 76.4344 77.2343 76.4344C76.3054 76.0695 75.5755 75.605 75.5921 75.0078L76.4215 74.9415L76.3884 74.5765C76.2225 74.4438 76.1064 74.3111 76.0566 74.1453C76.0566 74.1453 75.9736 72.7684 77.2343 72.7518C78.495 72.7518 80.1373 72.7353 80.27 72.5196C80.27 72.5196 81.1326 72.1215 81.2984 71.8395V71.8229C79.4074 71.9224 77.4666 71.2257 77.4666 71.2257L79.424 70.4627C79.424 70.4627 81.6302 69.9319 81.597 68.9034C81.597 68.837 81.597 68.7707 81.5639 68.7043C81.2155 67.5266 77.5495 68.6214 76.8196 68.7043C76.6372 68.7209 75.9405 68.7541 74.9618 68.8039C74.6466 68.8205 74.2982 68.837 73.9167 68.8536C73.9167 68.8702 73.9167 68.8868 73.9167 68.9034C73.9167 68.9034 73.9167 68.8868 73.9001 68.8536C72.8717 68.8868 71.6773 68.9366 70.5493 68.9863Z" fill="white"/>
<path d="M81.597 68.9034L83.0734 67.9247L85.5119 66.3323C86.1588 65.901 85.8934 64.8725 85.1303 64.8393L80.1373 64.5905C79.8719 64.5739 79.5899 64.6734 79.3908 64.8559L78.2628 65.8678L74.9618 68.8039C75.9405 68.7541 76.6372 68.721 76.8197 68.7044C77.5495 68.6214 81.2155 67.5266 81.5639 68.7044C81.597 68.7707 81.597 68.8371 81.597 68.9034Z" fill="white"/>
<path d="M83.0735 67.9247L81.5971 68.9034C81.6303 69.9318 79.4241 70.4627 79.4241 70.4627L77.4667 71.2257C77.4667 71.2257 79.4075 71.9224 81.2985 71.8229C81.9289 71.7897 82.526 71.6736 83.0735 71.4248L83.8531 71.4082C83.8365 71.2921 83.8033 71.2257 83.8033 71.2257C84.2844 69.7328 83.1232 67.991 83.1232 67.991L83.0735 67.9247Z" fill="white"/>
<path d="M44.6718 25.9069C44.6718 25.9069 44.4396 33.9522 42.167 35.0967C42.167 35.0967 41.885 35.2129 41.4039 35.4451C38.0697 36.9878 24.9983 43.3576 23.1736 48.9313C21.1 55.1684 18.7279 68.2731 19.8559 79.6028C19.9057 80.0672 20.2043 80.4488 20.6356 80.5981C21.1 80.7805 21.7304 80.9796 22.3276 81.0459C22.3773 81.0625 22.4271 81.0625 22.4769 81.0625" stroke="#231F1F" stroke-width="0.0790944"/>
<path d="M21.3158 79.5198C21.5315 79.4203 21.7637 79.3208 22.0457 79.2378C26.0932 78.0103 37.3566 77.861 37.3566 77.861C41.6695 77.7283 56.1675 74.0955 58.9709 73.3822C59.2861 73.3158 59.5515 73.1334 59.734 72.868" stroke="#231F1F" stroke-width="0.0790944"/>
<path d="M59.7341 72.868L60.464 71.8229L63.3005 68.2399" stroke="#231F1F" stroke-width="0.0790944"/>
<path d="M63.3005 68.2399C63.6654 67.7754 64.1962 67.51 64.7768 67.51" stroke="#231F1F" stroke-width="0.0790944"/>
<path d="M64.7768 67.51H69.4049" stroke="#231F1F" stroke-width="0.0790944"/>
<path d="M69.4049 67.51C69.4049 67.51 70.1016 67.2778 70.5329 68.8702" stroke="#231F1F" stroke-width="0.0790944"/>
<path d="M36.3445 51.2205C36.3445 51.2205 37.4725 75.9202 37.3564 77.861" stroke="#231F1F" stroke-width="0.0790944"/>
<path d="M57.0632 40.7699C57.0632 40.7699 66.7673 43.9714 68.4924 48.3341C70.1512 52.5807 73.6845 67.9081 73.9002 68.8537C73.9168 68.8868 73.9168 68.9034 73.9168 68.9034" stroke="#231F1F" stroke-width="0.0790944"/>
<path d="M41.3045 35.2958C41.3045 35.2958 41.3377 35.3456 41.404 35.4451C42.2168 36.6561 47.9563 44.5852 55.9186 40.7699" stroke="#231F1F" stroke-width="0.0790944"/>
<path d="M29.8587 90.7832L29.5436 111.999" stroke="#231F1F" stroke-width="0.0790944"/>
<path d="M78.18 65.7682C78.18 65.7682 75.9904 64.1758 74.4643 66.7801C74.4643 66.7801 73.7676 67.9579 73.9168 68.8536C73.9168 68.8702 73.9168 68.8868 73.9168 68.9034" stroke="#231F1F" stroke-width="0.0790944"/>
<path d="M66.2697 69.0859C66.3195 69.1191 68.2934 69.0693 70.5494 68.9864C71.6774 68.9366 72.8718 68.8868 73.9002 68.8536C73.9168 68.8371 73.9168 68.8536 73.9168 68.8536C74.2984 68.8371 74.6467 68.8205 74.9619 68.8039C75.9406 68.7541 76.6373 68.7209 76.8198 68.7044C77.5496 68.6214 81.2156 67.5266 81.564 68.7044C81.5971 68.7707 81.5971 68.8371 81.5971 68.9034C81.6303 69.9319 79.4241 70.4627 79.4241 70.4627" stroke="#231F1F" stroke-width="0.0790944"/>
<path d="M79.424 70.4627L77.4666 71.2257L75.6751 71.9225L72.2413 72.221" stroke="#231F1F" stroke-width="0.0790944"/>
<path d="M76.5378 74.9249L76.4216 74.9415L75.5922 75.0078L72.3409 75.2732" stroke="#231F1F" stroke-width="0.0790944"/>
<path d="M76.2226 76.169C76.2226 76.169 75.9572 76.3183 75.5425 76.5339C74.9619 76.8325 74.0993 77.2472 73.2036 77.4795C73.1372 77.496 73.0709 77.5126 73.0045 77.5292" stroke="#231F1F" stroke-width="0.0790944"/>
<path d="M73.0044 77.5293L71.6276 78.1099L70.7152 79.2213" stroke="#231F1F" stroke-width="0.0790944"/>
<path d="M70.7152 79.2213C70.7152 79.2213 66.7175 82.2071 60.7789 80.4156C60.7789 80.4156 40.0105 89.0912 29.8586 90.7832C29.0955 90.9159 28.3822 90.9988 27.7519 91.0486C26.8063 91.0984 25.9106 90.6007 25.4295 89.7381C24.484 88.0959 23.1735 85.956 22.3275 81.046C22.228 80.482 22.1285 79.8848 22.0455 79.2544" stroke="#231F1F" stroke-width="0.0790944"/>
<path d="M80.2534 77.7615C79.706 78.1596 78.8103 78.6738 77.7154 78.7402C77.7154 78.7402 74.1822 78.3586 73.2035 77.4795C73.1869 77.4629 73.1869 77.4629 73.1703 77.4463" stroke="#231F1F" stroke-width="0.0790944"/>
<path d="M83.1233 67.991C83.1233 67.991 84.2844 69.7328 83.8034 71.2257C83.8034 71.2257 83.8366 71.2921 83.8532 71.4082C83.9527 72.0386 84.1683 74.1287 82.5925 75.0908C82.5925 75.0908 82.6256 76.252 80.8839 77.2307C80.8839 77.2307 80.6682 77.4629 80.2701 77.7615" stroke="#231F1F" stroke-width="0.0790944"/>
<path d="M77.4667 71.2257C77.4667 71.2257 79.4075 71.9224 81.2985 71.8229C81.9289 71.7897 82.526 71.6736 83.0735 71.4248" stroke="#231F1F" stroke-width="0.0790944"/>
<path d="M82.5924 75.0908C82.5924 75.0908 77.7818 75.605 76.3884 74.5766C76.2225 74.4439 76.1064 74.3112 76.0567 74.1453C76.0567 74.1453 75.9737 72.7685 77.2344 72.7519C78.4951 72.7519 80.1373 72.7353 80.27 72.5196C80.27 72.5196 81.1326 72.1215 81.2985 71.8395" stroke="#231F1F" stroke-width="0.0790944"/>
<path d="M80.8838 77.2306C80.8175 77.2472 78.7605 76.9984 77.2344 76.4344C76.3055 76.0695 75.5756 75.605 75.5922 75.0078" stroke="#231F1F" stroke-width="0.0790944"/>
<path d="M77.2345 76.4345C77.2345 76.4345 75.9241 76.6169 75.5425 76.534C75.526 76.534 75.4928 76.534 75.4762 76.5174" stroke="#231F1F" stroke-width="0.0790944"/>
<path d="M80.2701 77.7615C80.2701 77.7615 80.2701 77.7615 80.2535 77.7615C80.1373 78.0601 76.2889 87.5651 71.9926 87.9632" stroke="#231F1F" stroke-width="0.0790944"/>
<path d="M42.9302 20.4328C42.9634 20.0513 43.0131 19.7029 43.0629 19.3877C43.1956 18.4256 43.7264 17.5464 44.5558 17.0654C45.6673 16.4019 46.5298 16.8829 47.127 17.5962C47.8735 18.492 48.1721 19.6863 48.0062 20.8475C47.5251 24.1319 47.5749 25.5088 47.7574 26.0562C48.0062 26.7031 48.4375 26.1059 48.4375 26.1059C48.4375 26.1059 49.5489 21.1958 49.7977 20.947C50.0631 20.7148 56.1676 16.2028 56.1676 16.2028C58.2908 10.7951 68.0281 15.871 68.8575 16.0535C69.6703 16.2194 69.9855 16.9659 70.0021 17.7621C70.0187 17.9114 70.0021 18.0607 69.9855 18.21C69.9855 18.21 69.3386 29.1582 64.8432 36.6228C63.118 39.476 60.1487 40.8694 57.0633 40.7367C56.6984 40.7201 56.3168 40.6703 55.9353 40.604C55.0064 40.4547 54.0774 40.1561 53.1817 39.7082C51.2575 38.7627 49.101 36.2081 47.8071 33.4877" stroke="#231F1F" stroke-width="0.0790944"/>
<path d="M46.3638 26.0562C45.6671 26.1558 45.1197 26.0894 44.6718 25.9069C42.8803 25.1439 42.7642 22.44 42.9301 20.4494" stroke="#231F1F" stroke-width="0.0790944"/>
<path d="M69.1726 9.70031C69.1726 9.70031 69.1726 9.61737 69.1892 9.46807C69.239 8.32349 69.3717 3.51292 67.5304 3.34704C65.4237 3.18116 66.2697 5.66938 66.2697 5.66938C66.2697 5.66938 56.0514 -3.96833 50.992 2.31858C50.992 2.31858 43.4278 3.24751 42.6979 10.1814C41.968 16.9162 42.8804 20.2504 42.9301 20.4328C42.9301 20.4494 42.9301 20.4494 42.9301 20.4494" stroke="#231F1F" stroke-width="0.0790944"/>
<path d="M70.0019 17.7621C70.0019 17.7621 74.7793 12.7856 72.0754 8.70496C69.7033 5.17168 69.2555 8.52249 69.1891 9.46801" stroke="#231F1F" stroke-width="0.0790944"/>
<path d="M74.9618 68.8039L78.2628 65.8678L79.3908 64.8559" stroke="#231F1F" stroke-width="0.0790944"/>
<path d="M79.391 64.8559C79.59 64.6734 79.872 64.5739 80.1374 64.5905" stroke="#231F1F" stroke-width="0.0790944"/>
<path d="M80.1373 64.5905L85.1303 64.8393" stroke="#231F1F" stroke-width="0.0790944"/>
<path d="M85.1304 64.8393C85.8935 64.8725 86.1589 65.9009 85.512 66.3322" stroke="#231F1F" stroke-width="0.0790944"/>
<path d="M85.5121 66.3323L83.0736 67.9247L81.5973 68.9034" stroke="#231F1F" stroke-width="0.0790944"/>
<path d="M84.8651 65.9839L80.3863 65.818" stroke="#231F1F" stroke-width="0.0790944"/>
<path d="M80.3861 65.818C80.1871 65.818 79.9714 65.8844 79.8221 66.0005" stroke="#231F1F" stroke-width="0.0790944"/>
<path d="M79.8222 66.0005L77.2345 67.9911" stroke="#231F1F" stroke-width="0.0790944"/>
<path d="M69.4047 67.51L66.7174 54.1732" stroke="#231F1F" stroke-width="0.0790944"/>
<path d="M44.1908 26.106C44.141 27.4994 44.0083 28.8928 43.7927 30.2696C43.5604 31.6796 43.2784 34.1844 41.8519 34.9807C41.0556 35.4285 40.1765 35.7603 39.3471 36.1584C37.5721 37.0376 35.7972 37.9665 34.072 38.9618C30.406 41.0685 26.3585 43.4904 23.8205 46.9407C22.6428 48.5332 22.2115 50.4906 21.7304 52.3651C21.0006 55.2846 20.4366 58.2373 20.0219 61.2065C19.4744 65.0052 19.1427 68.8537 19.0929 72.6855C19.0597 74.7259 19.1261 76.7662 19.292 78.79C19.3417 79.4701 19.3086 80.2332 19.8062 80.764C20.337 81.3114 21.3323 81.5436 22.0456 81.6431C22.5267 81.7095 22.7423 80.9796 22.2613 80.8967C21.83 80.8469 21.4318 80.7308 21.0171 80.5815C20.3702 80.3327 20.1877 80.0507 20.1048 79.3706C20.0219 78.4914 19.9721 77.6122 19.9223 76.7165C19.856 74.9747 19.8394 73.233 19.8891 71.4912C19.9887 68.0243 20.3039 64.5739 20.8015 61.1402C21.2162 58.2538 21.7636 55.3841 22.4769 52.5641C22.958 50.6565 23.4058 48.6991 24.6499 47.1066C27.3041 43.7392 31.3516 41.3671 35.0507 39.2936C36.6764 38.3812 38.3352 37.5021 40.0272 36.6892C40.757 36.3243 41.5367 36.0257 42.25 35.6442C43.8259 34.7816 44.2074 32.31 44.4894 30.7341C44.7548 29.208 44.9207 27.6487 44.9539 26.106C44.9704 25.6084 44.2074 25.6084 44.1908 26.106Z" fill="#1D1819"/>
<path d="M21.4154 80.0506C23.0079 79.3373 24.9653 79.2046 26.6738 79.0388C28.8635 78.8065 31.0531 78.6738 33.2593 78.5743C35.9632 78.4582 38.551 78.4084 41.2217 77.9605C45.7834 77.1643 50.312 76.0861 54.8239 74.9912C55.6865 74.7922 56.5491 74.5765 57.4117 74.3609C57.9923 74.2116 58.6392 74.1287 59.2032 73.8964C59.8999 73.5812 60.2483 72.8182 60.6962 72.2376C60.6132 72.3371 60.9118 71.939 60.9782 71.8727C61.2436 71.5243 61.5256 71.176 61.791 70.8442C62.3384 70.1475 62.8526 69.4342 63.4332 68.7707C64.0967 68.0242 64.81 68.1072 65.7058 68.1072C66.7011 68.1072 67.7129 68.1072 68.7248 68.1072C69.5874 68.1072 69.7367 68.1237 70.0685 69.1854C70.2012 69.6499 70.9476 69.4508 70.8149 68.9697C70.5827 68.2233 70.2509 67.3939 69.3718 67.3275C69.1229 67.2943 69.3552 67.3441 69.0234 67.3275C68.6253 67.3275 68.2272 67.3275 67.8125 67.3275C66.2864 67.3275 64.047 66.8962 62.919 68.1735C61.9403 69.2849 61.0445 70.5124 60.1487 71.6902C59.7175 72.2542 59.4023 72.9841 58.7056 73.2329C58.125 73.4485 57.4781 73.5481 56.8809 73.6974C52.3855 74.8088 47.8735 75.887 43.3284 76.7828C41.4373 77.1477 39.5131 77.5624 37.5723 77.6619C36.5438 77.7283 35.4987 77.7117 34.4537 77.7615C31.9821 77.8444 29.5104 77.9771 27.0554 78.2259C25.0648 78.425 22.8752 78.5577 21.0339 79.3871C20.5694 79.5862 20.9675 80.2497 21.4154 80.0506Z" fill="#1D1819"/>
<path d="M35.8636 51.4195C36.212 58.9505 36.5603 66.465 36.7926 73.996C36.8423 75.3396 36.9584 76.7164 36.8755 78.0601C36.8423 78.5577 37.622 78.5577 37.6551 78.0601C37.7049 76.9487 37.622 75.8207 37.5888 74.7093C37.5224 72.5528 37.4395 70.4129 37.3565 68.2731C37.1741 63.6781 36.975 59.0998 36.776 54.5049C36.7262 53.4764 36.6764 52.448 36.6433 51.4195C36.6101 50.9218 35.847 50.9218 35.8636 51.4195Z" fill="#1D1819"/>
<path d="M56.8643 41.3505C58.606 41.9145 60.298 42.6609 61.9237 43.4903C64.2626 44.7013 67.1158 46.2937 68.1111 48.8815C68.9736 51.1375 69.5542 53.5262 70.168 55.8651C70.9145 58.6685 71.6112 61.5051 72.2913 64.3416C72.6894 65.9507 73.0709 67.5763 73.4524 69.202C73.5686 69.683 74.2984 69.484 74.1989 69.0029C73.2036 64.6568 72.142 60.3273 71.014 56.031C70.367 53.5925 69.7533 51.1043 68.8741 48.7322C67.912 46.1776 65.4569 44.552 63.1678 43.2913C61.227 42.213 59.17 41.3007 57.0633 40.604C56.5989 40.4381 56.3832 41.1846 56.8643 41.3505Z" fill="#1D1819"/>
<path d="M40.9727 35.8432C43.0296 39.1276 46.679 41.9808 50.6104 42.3623C52.4849 42.5448 54.3261 42.0969 56.0015 41.3007C56.466 41.1016 56.0679 40.4381 55.62 40.6372C52.1365 42.2794 48.4539 41.6988 45.4183 39.4428C43.9585 38.3646 42.5983 36.9878 41.6362 35.4451C41.3708 35.0304 40.7073 35.4119 40.9727 35.8432Z" fill="#1D1819"/>
<path d="M29.3775 90.9822C29.3278 95.2454 29.2614 99.5251 29.1951 103.788L29.0624 111.999H29.842L30.0908 95.6601C30.1074 94.1008 30.1406 92.5415 30.1572 90.9822C30.1572 90.4846 29.3941 90.4846 29.3775 90.9822ZM74.8623 111.999C74.2319 105.082 73.5186 98.1483 72.6726 91.2476C72.1916 87.2665 71.6607 83.2853 70.9972 79.3208C70.9143 78.8397 70.1678 79.0388 70.2507 79.5364C72.0589 90.2689 73.1537 101.151 74.0826 111.999H74.8623Z" fill="#1D1819"/>
<path d="M78.2628 65.6356C77.7818 65.2706 77.0851 65.0881 76.4879 65.1047C75.3101 65.1545 74.3978 66.0171 73.9002 67.029C73.5684 67.6925 73.3196 68.4555 73.4523 69.202C73.4854 69.4177 73.7343 69.5172 73.9167 69.4674C74.1324 69.4177 74.2319 69.202 74.1987 69.003C74.0992 68.5053 74.3314 67.9247 74.5305 67.4934C74.7296 67.0787 74.9784 66.6972 75.3101 66.382C75.4926 66.2327 75.7083 66.0834 75.9073 66.0005C76.0898 65.9341 76.2888 65.8844 76.4547 65.8844C76.5377 65.8678 76.6372 65.8678 76.7367 65.8844C76.7533 65.8844 76.8694 65.901 76.8528 65.8844C76.8197 65.8844 76.9524 65.9176 76.969 65.9176C77.1348 65.9507 77.2841 66.0005 77.45 66.0668C77.4832 66.0834 77.4168 66.0503 77.4168 66.0503C77.45 66.0668 77.4666 66.0668 77.4998 66.0834C77.5164 66.1 77.5495 66.1166 77.5827 66.1332C77.6325 66.1498 77.6823 66.183 77.7486 66.2161C77.7818 66.2327 77.8315 66.2659 77.8813 66.2991C78.0472 66.4152 78.3126 66.3323 78.4121 66.1664C78.5282 65.9673 78.4453 65.7517 78.2628 65.6356Z" fill="#1D1819"/>
<path d="M66.0707 69.6499C66.4357 69.7991 67.0494 69.683 67.431 69.6664C68.4263 69.6499 69.4215 69.6167 70.4168 69.5669C72.3742 69.5006 74.3316 69.4342 76.289 69.3181C76.936 69.2849 77.5663 69.119 78.1967 69.0029C78.5948 68.92 81.3816 68.3228 81.083 69.2849C80.884 69.9153 79.7394 70.1309 79.192 70.3134C78.4123 70.5788 77.6327 70.9106 76.853 71.2091C76.4383 71.375 76.007 71.5575 75.5758 71.7068C75.3767 71.7897 75.6421 71.7234 75.4928 71.74C75.3269 71.7731 75.1445 71.7731 74.9786 71.7897C74.0331 71.8727 73.0875 71.9556 72.142 72.0386C71.6444 72.0717 71.6444 72.8514 72.142 72.8016C73.0709 72.7187 73.9999 72.6523 74.9122 72.5694C75.5758 72.5196 76.0402 72.3537 76.6706 72.1049C77.5829 71.7566 78.4787 71.3584 79.4076 71.0598C80.1209 70.811 80.9171 70.612 81.4645 70.0314C82.1612 69.3347 81.929 68.3062 80.9669 68.0574C79.8389 67.7588 78.5119 68.1403 77.417 68.3726C75.7582 68.7209 73.9999 68.6546 72.3079 68.7209C70.9642 68.7873 69.604 68.837 68.2604 68.8702C67.7793 68.8868 67.3148 68.9034 66.8504 68.9034C66.7011 68.9034 66.5352 68.92 66.3859 68.9034C66.303 68.9034 66.1537 68.8702 66.2698 68.9034C65.8219 68.7209 65.6229 69.4674 66.0707 69.6499Z" fill="#1D1819"/>
<path d="M76.4383 74.7424C75.2274 74.842 73.9999 74.9415 72.7723 75.041C72.6065 75.0576 72.424 75.0742 72.2415 75.0742C72.0425 75.0908 71.86 75.2401 71.86 75.4723C71.86 75.6714 72.0425 75.8704 72.2415 75.8538C73.469 75.7543 74.6966 75.6548 75.9075 75.5553C76.09 75.5387 76.2724 75.5221 76.4383 75.5055C76.654 75.4889 76.8364 75.3562 76.8364 75.124C76.8364 74.9249 76.654 74.7259 76.4383 74.7424Z" fill="#1D1819"/>
<path d="M75.9406 76.0363C74.8955 76.6667 73.7675 76.9984 72.6396 77.4297C71.8931 77.7117 71.3623 77.9108 70.848 78.5245C70.4167 79.0554 70.4167 79.1383 69.803 79.4867C68.8906 79.9843 67.9119 80.3327 66.9 80.5483C65.2412 80.9132 63.4995 80.8801 61.8407 80.5151C61.2767 80.399 60.862 80.1502 60.3311 80.3492C59.3027 80.7308 58.3074 81.1787 57.2955 81.5768C53.1485 83.2356 48.9848 84.828 44.7714 86.2878C40.2097 87.8803 35.5816 89.4561 30.8374 90.4017C29.8587 90.6007 28.8468 90.7832 27.8349 90.8495C26.2259 90.9491 25.5789 89.6718 24.932 88.4609C23.4391 85.6409 22.7424 82.4891 22.3111 79.354C22.2447 78.8563 21.4983 79.072 21.5646 79.553C21.9793 82.5223 22.6263 85.4916 23.9367 88.212C24.3348 89.0083 24.7495 89.9372 25.3301 90.6173C26.1761 91.6126 27.3207 91.6955 28.515 91.5462C33.1431 91.0154 37.6717 89.4893 42.0676 88.0296C46.7454 86.4703 51.3735 84.7451 55.9685 82.937C57.3287 82.4062 58.6723 81.8588 60.0326 81.2948C60.2316 81.2118 60.5468 81.0128 60.7624 80.9962C60.8122 80.9962 60.9781 81.0957 61.0278 81.1123C61.4591 81.245 61.907 81.3279 62.3549 81.3943C63.2672 81.5436 64.1796 81.6099 65.1085 81.5602C66.9332 81.4606 69.3551 80.9962 70.8149 79.7687C71.13 79.4867 71.4286 79.0885 71.6774 78.7402C71.8267 78.508 71.5116 78.7236 71.9097 78.5743C72.1419 78.4748 72.3741 78.3753 72.6064 78.2757C73.8671 77.7449 75.1444 77.4131 76.3221 76.6998C76.7534 76.4344 76.3553 75.7709 75.9406 76.0363Z" fill="#1D1819"/>
<path d="M82.6921 68.3892C82.9907 68.8536 83.2063 69.3679 83.339 69.8987C83.4551 70.3632 83.4385 70.7779 83.3556 71.2589C83.339 71.4248 83.339 71.5243 83.3722 71.6902C83.4385 72.1547 83.4717 72.6357 83.4054 73.1002C83.3556 73.4486 83.2561 73.7969 83.1068 74.0955C82.8911 74.4936 82.6257 74.6927 82.2939 74.9581C82.0285 75.2069 82.0949 75.5719 81.9124 75.887C81.5641 76.5174 80.9669 76.7994 80.4361 77.2307C79.5569 77.9771 78.4621 78.6738 77.2677 78.508C76.5876 78.425 75.9241 78.3089 75.2606 78.143C74.6302 77.9937 73.834 77.8278 73.3363 77.38C72.9714 77.0316 72.424 77.579 72.7889 77.9274C73.5852 78.6572 74.8459 78.8729 75.8743 79.072C76.8033 79.2378 77.6659 79.4203 78.5948 79.1549C79.6896 78.8563 80.4693 78.143 81.3816 77.5127C82.0783 77.0482 82.8911 76.2188 82.8745 75.2899C82.8248 75.406 82.7584 75.5221 82.6921 75.6382C84.0357 74.7756 84.3675 73.15 84.1352 71.657C84.1352 71.5907 84.1021 71.4912 84.1021 71.4248C84.1021 71.3253 84.1352 71.3419 84.1186 71.3916C84.2016 70.8774 84.2348 70.4129 84.1352 69.8987C84.0025 69.2352 83.7205 68.5716 83.3556 68.0077C83.0736 67.5929 82.4101 67.9745 82.6921 68.3892Z" fill="#1D1819"/>
<path d="M77.2676 71.8063C77.9312 72.0386 78.6445 72.2045 79.3577 72.304C80.635 72.503 81.9787 72.503 83.173 71.9556C83.6209 71.7566 83.2228 71.093 82.7749 71.2921C81.7299 71.7732 80.4526 71.7068 79.3412 71.5243C78.7108 71.4248 78.0805 71.2755 77.4667 71.0599C77.0022 70.894 76.8032 71.6405 77.2676 71.8063Z" fill="#1D1819"/>
<path d="M82.4928 74.9083C81.033 75.0742 79.5069 75.1405 78.0472 74.9415C77.6325 74.8751 77.168 74.7922 76.8031 74.6263C76.6538 74.56 76.5211 74.477 76.4381 74.4107C76.3884 74.3443 76.3884 74.3443 76.3552 74.3111L76.3054 74.2282C76.5045 74.1784 76.3054 74.4273 76.3386 74.3111C76.3718 74.2116 76.3386 74.0955 76.3552 74.0291C76.4049 73.8467 76.4547 73.6808 76.5874 73.5481C76.7699 73.3656 77.0021 73.349 77.2344 73.349C77.6325 73.349 78.0472 73.349 78.4619 73.3324C78.8434 73.3158 79.2249 73.3158 79.6065 73.2661C79.8387 73.2329 80.1207 73.2163 80.3363 73.0836C80.4193 73.0338 80.4027 73.0007 80.4856 72.9343C80.2036 73.15 80.3861 73.0338 80.4359 73.0173C80.552 72.9841 80.6847 72.9011 80.7842 72.8348C81.0662 72.6855 81.3482 72.503 81.5473 72.2376C81.8293 71.8395 81.1657 71.458 80.8837 71.8395C80.7345 72.022 80.4359 72.1547 80.2368 72.2542C80.1705 72.304 80.0709 72.3371 79.988 72.3869C79.9548 72.4035 79.988 72.3869 79.905 72.4533C79.8055 72.5528 79.8221 72.5528 79.9216 72.4367C79.9548 72.4201 79.9548 72.4201 79.905 72.4367C79.8387 72.4201 79.6894 72.4864 79.6065 72.4864C79.4406 72.5196 79.2913 72.5196 79.1254 72.5362C78.6941 72.5528 78.2628 72.5694 77.8481 72.5694C77.168 72.586 76.4547 72.5196 75.9737 73.0836C75.7082 73.3988 75.5755 73.8467 75.559 74.2448C75.559 75.0576 76.604 75.4225 77.2509 75.5718C78.2794 75.8041 79.3576 75.8207 80.4027 75.8041C81.0994 75.7875 81.7961 75.7543 82.4928 75.688C82.9904 75.6382 82.9904 74.8585 82.4928 74.9083Z" fill="#1D1819"/>
<path d="M80.6848 77.0648C80.8672 77.0316 80.6848 77.0482 80.6184 77.0316C80.5686 77.0316 80.5023 77.0316 80.4525 77.015C80.353 76.9985 80.5023 77.0316 80.4359 77.015C80.3862 77.015 80.353 76.9985 80.3032 76.9985C79.8885 76.9321 79.4904 76.8657 79.0757 76.7828C78.1634 76.5837 77.1847 76.3515 76.3884 75.8539C76.2225 75.7378 76.123 75.6714 75.9737 75.5055C76.0235 75.5553 75.9571 75.4558 75.9405 75.4392C75.924 75.4226 75.924 75.406 75.9074 75.3894C75.8742 75.323 75.924 75.4226 75.9074 75.3894C75.8908 75.3396 75.8908 75.3065 75.8742 75.2733C75.8576 75.2235 75.8742 75.2899 75.8742 75.2899C75.8742 75.2733 75.8742 75.2401 75.8742 75.2069C75.8908 74.7093 75.1111 74.7093 75.1111 75.2069C75.0945 76.2022 76.2391 76.6999 77.0188 76.9985C77.9809 77.3634 78.9928 77.579 80.0046 77.7283C80.2866 77.7615 80.6018 77.861 80.8838 77.8113C81.3649 77.7283 81.1658 76.9819 80.6848 77.0648Z" fill="#1D1819"/>
<path d="M77.0354 76.252C77.0023 76.252 76.9857 76.2686 76.9691 76.2686C76.9193 76.2686 77.1018 76.252 77.0188 76.252C77.0188 76.252 77.0023 76.2686 76.9857 76.2686C76.9525 76.2686 76.9193 76.2686 76.8861 76.2686C76.7037 76.3017 76.5378 76.3183 76.3553 76.3349C76.1563 76.3515 75.9738 76.3681 75.7747 76.3681C75.6918 76.3681 75.6254 76.3847 75.5425 76.3681C75.5259 76.3681 75.5093 76.3681 75.4927 76.3681C75.443 76.3681 75.6254 76.3847 75.5425 76.3681C75.5093 76.3681 75.4264 76.3349 75.5757 76.4013C75.3932 76.3183 75.1444 76.3349 75.0449 76.534C74.9619 76.6998 74.9951 76.9653 75.1776 77.0648C75.4596 77.1809 75.7747 77.1477 76.0567 77.1311C76.3553 77.1146 76.6539 77.0814 76.9525 77.0316C77.0354 77.0316 77.135 77.015 77.2345 76.9984C77.3174 76.9818 77.417 76.8989 77.4667 76.816C77.5165 76.733 77.5331 76.6169 77.4999 76.534C77.4335 76.3017 77.2345 76.2188 77.0354 76.252Z" fill="#1D1819"/>
<path d="M79.8057 77.861C79.6896 78.143 79.5569 78.4084 79.4076 78.7568C79.0758 79.5032 78.6943 80.2663 78.3128 80.9962C77.3009 82.9038 76.1397 84.8115 74.5638 86.3044C73.834 87.0011 72.9382 87.6646 71.8932 87.7807C71.4121 87.8305 71.4121 88.5936 71.8932 88.5438C74.0164 88.3281 75.5923 86.5366 76.7867 84.9276C78.0474 83.219 79.0758 81.3279 79.9716 79.3871C80.1706 78.9558 80.3697 78.508 80.5356 78.0601C80.7346 77.5956 79.9882 77.3966 79.8057 77.861Z" fill="#1D1819"/>
<path d="M46.2643 25.8903C44.4065 26.106 43.4941 24.9614 43.2453 23.2362C43.0462 21.8097 43.0131 19.703 43.7761 18.4423C44.1245 17.8783 44.788 17.3309 45.4847 17.3474C46.2312 17.3474 46.8117 18.0607 47.1435 18.6579C47.8236 19.9518 47.4587 21.3452 47.3094 22.6888C47.1767 23.7837 46.8449 25.4259 47.3426 26.4875C47.5416 26.8856 47.9397 27.0681 48.3544 26.8193C48.7028 26.6202 48.7526 26.3051 48.8355 25.9401C49.1341 24.5965 49.4327 23.2362 49.8308 21.9092C50.063 21.1461 50.7597 20.831 51.4398 20.3167C52.6176 19.4541 53.7788 18.575 54.9565 17.7124C55.3381 17.4304 55.7196 17.165 56.0845 16.883C56.4329 16.6176 56.5158 16.2858 56.748 15.9209C58.44 13.2336 62.6368 14.4279 65.0421 15.2242C66.1204 15.5891 67.1654 16.037 68.227 16.4683C68.8076 16.7005 69.355 16.8664 69.4877 17.5963C69.5707 17.9612 69.5209 18.3427 69.4877 18.7077C69.2555 21.6272 68.7413 24.5467 68.028 27.3833C67.4806 29.5729 66.8005 31.746 65.8715 33.8195C64.9592 35.8598 63.881 37.9499 61.9567 39.2106C60.1486 40.405 57.9258 40.8031 55.8025 40.4216C53.447 39.9903 51.6555 38.713 50.1625 36.8717C49.3166 35.8432 48.6198 34.6987 48.0393 33.4877C47.8236 33.0398 47.1601 33.438 47.3757 33.8858C48.4871 36.1584 50.0796 38.4642 52.2361 39.8742C54.011 41.0353 56.3499 41.5164 58.4566 41.2676C60.5799 41.0353 62.5705 40.04 63.9971 38.4642C65.5398 36.7556 66.5019 34.4664 67.2981 32.3431C68.7745 28.4781 69.6205 24.3974 70.1015 20.3167C70.201 19.4873 70.3669 18.5584 70.284 17.729C70.1513 16.2526 69.073 15.9872 67.9119 15.5062C65.1914 14.3782 61.9733 13.0843 58.9543 13.6483C57.395 13.9469 56.5324 14.826 55.7693 16.1365C55.8523 16.0038 55.8357 16.1033 55.703 16.2195C55.5205 16.3522 55.3215 16.4849 55.139 16.6176C54.5418 17.0654 53.9446 17.4967 53.3475 17.9446C52.1863 18.8072 51.0251 19.6698 49.864 20.549C49.0677 21.1627 48.9682 22.0751 48.7194 23.0372C48.5369 23.8168 48.3544 24.5965 48.172 25.3761C48.1222 25.5918 48.0393 25.8406 48.0061 26.0728C47.9895 26.3051 48.0393 26.0894 48.0559 26.0728C47.9397 26.2387 47.9729 26.1558 47.9729 26.1723C47.9895 26.106 48.0227 26.3216 48.0393 26.1392C48.0559 26.0065 47.9563 25.7576 47.9397 25.6083C47.7407 23.5017 48.7194 21.2954 48.172 19.2219C47.6246 17.1318 45.4349 15.6223 43.6102 17.4304C42.4159 18.6247 42.3495 20.6485 42.3993 22.2575C42.4325 23.6675 42.7145 25.3927 43.9918 26.2387C44.6719 26.6866 45.4681 26.7529 46.2643 26.6534C46.7454 26.5871 46.7454 25.824 46.2643 25.8903Z" fill="#1D1819"/>
<path d="M70.1846 18.2266C72.3411 15.9706 74.1658 12.2714 72.5899 9.21922C72.142 8.32346 70.5827 6.01771 69.405 7.32817C68.8244 7.97511 68.7083 9.06993 68.6751 9.91593C68.6585 10.4136 69.4215 10.397 69.4547 9.91593C69.5874 8.07464 69.7201 5.4703 68.6087 3.89443C68.0281 3.09819 66.7177 2.83278 66.0044 3.6456C65.4736 4.25936 65.5565 5.25465 65.8053 5.98453C66.021 5.85183 66.2366 5.73571 66.4357 5.60301C64.9925 4.24278 63.3337 3.03184 61.6085 2.03655C59.0871 0.576794 55.7861 -0.750258 52.8997 0.493853C52.1864 0.79244 51.5395 1.25691 51.0087 1.82091C50.9589 1.85408 50.6437 2.31855 50.8926 2.13608C50.8594 2.15267 50.793 2.13608 50.7599 2.15267C50.6769 2.18585 50.5608 2.18585 50.4779 2.20243C49.5323 2.36831 48.62 2.68349 47.7408 3.06502C44.672 4.42525 42.5985 7.02959 42.2004 10.3804C41.9018 12.935 41.8188 15.5559 42.0511 18.1105C42.134 18.9896 42.217 19.902 42.4658 20.748C42.5985 21.229 43.345 21.03 43.2123 20.5489C42.5487 18.2764 42.6317 15.6554 42.7478 13.3165C42.8473 11.16 42.9468 8.90405 44.1246 7.02959C44.9208 5.7523 46.0986 4.7736 47.4091 4.0769C48.3214 3.61243 49.2835 3.24749 50.2788 3.03184C50.511 2.98208 50.7433 2.96549 50.9589 2.89914C50.8262 2.93231 51.1414 2.79961 51.2243 2.71667C51.5395 2.46784 51.7717 2.11949 52.0703 1.87067C54.5751 -0.136497 58.0255 0.991498 60.5469 2.33514C62.4711 3.3636 64.3124 4.65748 65.9049 6.15041C66.1703 6.39924 66.6679 6.15041 66.5352 5.76889C66.3859 5.30442 66.2034 4.45842 66.6347 4.09348C67.6134 3.26408 68.2604 4.79019 68.4263 5.4703C68.7912 6.88029 68.7912 8.45617 68.6751 9.91593C68.9405 9.91593 69.1893 9.91593 69.4547 9.91593C69.4713 9.30216 69.5377 8.5557 69.8528 8.02488C70.6159 6.74759 72.2084 10.1647 72.3245 10.7453C72.8387 13.217 71.296 15.9374 69.6372 17.6792C69.2888 18.0441 69.8362 18.5915 70.1846 18.2266Z" fill="#1D1819"/>
<path d="M75.1444 69.2684C75.9738 68.5385 76.8033 67.8086 77.6327 67.0621C78.1303 66.6143 78.6445 66.1498 79.1588 65.7019C79.4574 65.4365 79.6564 65.1877 80.1043 65.1877C81.3982 65.1877 82.7086 65.3204 84.0025 65.3867C84.3177 65.3867 84.8485 65.3204 85.1637 65.4697C85.877 65.8014 85.0144 66.3323 84.7158 66.5313C83.5878 67.2778 82.4432 68.0243 81.3152 68.7707C80.9005 69.0361 81.2821 69.7162 81.6968 69.4343C82.8082 68.7044 83.9362 67.9745 85.0476 67.228C85.512 66.9294 86.0429 66.664 86.159 66.0503C86.2751 65.254 85.6613 64.7066 84.9315 64.6569C83.5049 64.5573 82.0617 64.5076 80.6351 64.4412C80.0379 64.408 79.5071 64.3749 79.0095 64.7896C78.6445 65.1047 78.2962 65.4365 77.9313 65.7683C76.8198 66.747 75.7084 67.7423 74.597 68.7375C74.2321 69.0693 74.7795 69.6001 75.1444 69.2684Z" fill="#1D1819"/>
<path d="M84.7656 65.8014C83.5712 65.7517 82.3935 65.7185 81.2157 65.6687C80.7512 65.6521 80.1707 65.5526 79.7394 65.7517C79.2583 65.9839 78.827 66.4152 78.4123 66.7304C77.9147 67.1119 77.4336 67.4934 76.936 67.8749C76.5544 68.1735 76.936 68.8371 77.3175 68.5385C78.1801 67.8749 79.0095 67.1948 79.8887 66.5645C80.2204 66.3322 80.7015 66.4318 81.083 66.4484C81.7963 66.465 82.5096 66.4981 83.2229 66.5147C83.7371 66.5313 84.2513 66.5479 84.7656 66.5645C85.2632 66.5977 85.2632 65.818 84.7656 65.8014Z" fill="#1D1819"/>
<path d="M69.6702 67.6095C68.8906 63.7279 68.1109 59.8297 67.3147 55.9315C67.2152 55.3841 67.099 54.8366 66.9829 54.2726C66.8834 53.7916 66.1535 53.9906 66.2364 54.4717C67.0327 58.3699 67.8123 62.2681 68.592 66.1498C68.7081 66.7138 68.8242 67.2612 68.9237 67.8252C69.0233 68.3062 69.7697 68.1072 69.6702 67.6095Z" fill="#1D1819"/>
<path d="M19.5243 16.236C20.9509 19.5702 24.7993 21.1295 28.1336 19.7029C31.4678 18.2929 33.0105 14.4279 31.6005 11.0937C30.1739 7.75943 26.3254 6.21673 22.9912 7.62673C19.657 9.05331 18.0977 12.9018 19.5243 16.236Z" fill="#EC2029" stroke="#1D1819" stroke-width="0.352675"/>
<path d="M22.7756 12.0226C23.1737 12.9516 24.2519 13.3994 25.1809 13.0013C26.1098 12.6032 26.5411 11.525 26.143 10.596C25.7449 9.66711 24.6667 9.23581 23.7377 9.63393C22.8088 10.032 22.3775 11.0937 22.7756 12.0226ZM29.4275 16.7005L28.598 14.7597C28.1004 13.5819 26.7236 13.0179 25.5458 13.5321C24.3681 14.0298 23.8207 15.39 24.3183 16.5844L25.1477 18.5252C25.9274 18.5584 26.7236 18.4257 27.5032 18.1105C28.2663 17.7787 28.9132 17.2977 29.4275 16.7005Z" fill="white" stroke="#1D1819" stroke-width="0.352675"/>
<path d="M80.6351 43.2747L80.5687 43.0922V43.0757C79.0924 39.4926 79.1919 35.6276 80.5355 32.2768C81.9123 28.8596 84.583 25.9733 88.2324 24.414L88.4315 24.3476C92.0311 22.8713 95.8796 22.9708 99.2304 24.3145C102.648 25.6913 105.534 28.362 107.093 32.0114L107.176 32.2104C108.636 35.81 108.553 39.6585 107.193 43.0093C105.816 46.4265 103.145 49.3128 99.4958 50.8721L99.3133 50.955H99.2967C95.7137 52.4148 91.8487 52.3318 88.4978 50.9716C85.0807 49.5948 82.1943 46.9241 80.6351 43.2747ZM82.4598 42.5117C83.8034 45.6634 86.2916 47.9692 89.2277 49.1469C92.1804 50.3413 95.581 50.4076 98.7327 49.064L98.7493 49.0474C101.884 47.7038 104.19 45.2155 105.368 42.2794C106.562 39.3267 106.629 35.9427 105.285 32.791L105.268 32.7744C103.925 29.6227 101.437 27.3169 98.5005 26.1391C95.5478 24.9448 92.1638 24.8784 89.0121 26.2221L88.9955 26.2387C85.8437 27.5823 83.538 30.0705 82.3602 33.0066C81.1659 35.9593 81.0995 39.3599 82.4432 42.5117H82.4598Z" fill="#EC2029" stroke="#1D1819" stroke-width="0.352675"/>
<path d="M102.565 38.348C102.548 38.4973 102.548 38.5636 102.531 38.6134C102.498 39.0281 102.266 39.2603 101.918 39.2438C101.536 39.2272 101.37 38.9618 101.354 38.5305C101.337 37.8006 101.37 37.0541 101.254 36.3408C100.657 32.9568 97.9033 30.3857 94.5028 29.9378C93.9719 29.8714 93.7563 29.6558 93.8061 29.2577C93.8558 28.8762 94.1378 28.6937 94.652 28.7766C99.4128 29.4402 102.565 33.4379 102.565 37.7011C102.565 37.9499 102.565 38.1987 102.565 38.348Z" fill="#EC2029" stroke="#1D1819" stroke-width="0.352675"/>
<path d="M94.2539 31.7957C97.4388 32.2104 99.7446 35.0304 99.5289 38.2319C99.4958 38.7129 99.2635 38.9452 98.882 38.9286C98.5005 38.8954 98.318 38.6466 98.3512 38.1821C98.5005 35.5114 96.7421 33.3384 94.1046 32.9403C93.6236 32.8739 93.4411 32.6583 93.4909 32.2767C93.5406 31.9118 93.8226 31.7293 94.2539 31.7957Z" fill="#EC2029" stroke="#1D1819" stroke-width="0.352675"/>
<path d="M96.4767 37.9665C96.4435 38.4144 96.2444 38.6301 95.8795 38.6135C95.498 38.5969 95.3321 38.3812 95.3321 37.9499C95.3487 36.8717 94.8013 36.2082 93.6899 35.9428C93.2254 35.8432 92.9932 35.4285 93.242 35.0968C93.3747 34.9309 93.6567 34.8148 93.8723 34.8314C95.3984 34.9475 96.6094 36.4072 96.4767 37.9665Z" fill="#EC2029" stroke="#1D1819" stroke-width="0.352675"/>
<path fill-rule="evenodd" clip-rule="evenodd" d="M85.4289 37.3195C86.3081 40.3883 88.1494 42.8102 90.6376 44.7344C91.7822 45.6302 93.0429 46.2937 94.8676 46.5094C95.5477 46.6089 96.4435 46.3767 97.2563 45.7131C97.6544 45.398 97.7207 45.0496 97.5383 44.6183C97.1899 43.7226 96.6425 42.9761 95.8795 42.4121C95.1662 41.8979 95.05 41.931 94.5026 42.5614C93.8059 43.3742 92.9599 43.3908 92.2964 42.578C91.0523 41.0519 89.7916 39.5092 88.5641 37.9499C88.3816 37.7342 88.2489 37.4522 88.1991 37.1868C88.083 36.5399 88.448 36.0256 89.2608 35.7105C89.6589 35.5446 89.7418 35.3289 89.6091 34.9474C89.2442 33.8028 88.5309 32.9071 87.4527 32.3265C87.2702 32.227 86.9218 32.227 86.7394 32.3265C86.0924 32.708 85.628 33.272 85.3957 34.0019C85.0474 35.1133 85.1303 36.2247 85.4289 37.3195Z" fill="#EC2029" stroke="#1D1819" stroke-width="0.352675"/>
</svg>
