<svg width="148" height="134" viewBox="0 0 148 134" fill="none" xmlns="http://www.w3.org/2000/svg">
<path fill-rule="evenodd" clip-rule="evenodd" d="M76.6428 21.3316C103.071 21.3316 127.423 29.2602 148 42.6632V133.653H0V46.4388C21.5204 30.5816 47.9489 21.3316 76.6428 21.3316Z" fill="#F9D4DB"/>
<path d="M57.3877 102.316C63.9949 102.127 70.602 102.127 77.2091 102.127C78.153 102.127 79.0969 102.127 80.0408 102.127C79.852 102.316 79.852 102.505 79.6632 102.694C75.8877 97.5969 72.301 92.3112 68.5255 87.0255C67.9592 86.0816 67.3928 85.5153 66.2602 85.3265C65.8826 85.3265 65.5051 85.3265 65.3163 85.3265C63.8061 85.3265 62.1071 85.3265 60.5969 85.3265C56.0663 85.5153 51.3469 85.5153 46.8163 85.5153C44.7398 85.5153 42.6633 85.5153 40.5867 85.5153C40.0204 85.5153 39.2653 85.5153 38.5102 85.5153C38.1326 85.5153 37.7551 85.5153 37.3775 85.5153C36.8112 85.5153 37 85.8928 37.1888 86.2704C37.7551 87.2142 38.3214 87.9693 38.8877 88.9132C39.8316 90.6122 40.7755 92.3112 41.9081 93.8214C42.0969 94.3877 41.3418 94.7653 41.153 94.3877C40.2092 92.8775 39.2653 91.1785 38.3214 89.6683C37.7551 88.9132 37.1888 87.9693 36.6224 87.0255C36.2449 86.4591 35.8673 85.8928 36.0561 85.3265C36.4337 84.3826 37.9439 84.5714 38.699 84.5714C40.5867 84.5714 42.2857 84.5714 43.9847 84.5714C49.0816 84.5714 53.9898 84.5714 58.8979 84.5714C60.7857 84.5714 62.6734 84.5714 64.5612 84.5714C65.5051 84.5714 66.6377 84.3826 67.5816 84.7602C68.7143 85.3265 69.4694 86.8367 70.2245 87.7806C71.1683 89.2908 72.301 90.801 73.4336 92.3112C75.6989 95.7091 77.9642 98.9183 80.4183 102.316C80.6071 102.505 80.4183 102.883 80.0408 102.883C73.4336 102.883 66.8265 103.071 60.2194 103.071C59.2755 103.071 58.3316 103.071 57.3877 103.071C56.8214 103.071 56.8214 102.316 57.3877 102.316Z" fill="#1D1819"/>
<path d="M125.724 106.469C124.025 107.98 121.76 108.357 120.25 108.168C119.495 108.168 118.74 107.98 118.173 107.413C117.418 107.036 115.342 105.148 114.398 103.826C114.209 103.638 114.02 103.638 114.02 103.449C114.775 103.071 115.53 102.694 115.719 101.939C115.719 101.939 117.985 101.184 117.985 99.4846C117.985 99.4846 120.061 99.1071 119.684 95.7091V95.1428H119.872C119.872 95.1428 121.76 95.8979 122.704 96.0867C123.648 96.4642 127.046 98.5407 127.801 100.051C128.367 101.184 128.178 103.449 126.668 105.337C126.291 105.714 126.102 106.092 125.724 106.469Z" fill="white"/>
<path d="M114.964 89.102L116.663 88.9132C117.23 88.9132 117.796 89.6683 117.607 90.2346L116.097 94.0101V94.1989C114.398 93.8214 110.811 93.0663 109.49 93.255C107.791 93.4438 108.546 95.5203 108.546 95.5203L106.847 94.954C106.469 94.7652 106.092 94.5765 105.714 94.3877C105.525 94.3877 105.525 94.3877 105.337 94.3877L105.525 94.1989L106.847 90.0459C107.036 89.6683 107.602 89.2908 108.168 89.2908L114.964 89.102Z" fill="white"/>
<path d="M129.689 99.1071C129.689 99.1071 130.066 102.316 126.668 105.337C128.178 103.449 128.367 101.184 127.801 100.051C127.046 98.5408 123.648 96.4642 122.704 96.0867C121.76 95.8979 119.872 95.1428 119.872 95.1428H119.684L118.928 91.1785L118.551 89.102C118.362 88.7245 117.985 88.3469 117.418 88.3469C116.663 88.3469 115.531 88.3469 114.964 88.9132V89.102L108.168 89.2908C107.602 89.2908 107.036 89.6683 106.847 90.0459L105.525 94.1989L105.337 94.3877C104.393 94.0102 104.015 94.7653 104.015 94.7653C101.939 94.5765 102.316 96.0867 102.316 96.0867L102.883 96.8418C102.316 97.0306 102.316 97.5969 102.316 97.5969C102.316 97.5969 104.393 103.638 110.622 104.582C111.189 104.582 111.755 104.393 112.321 104.204L113.076 103.826C113.076 103.826 113.454 103.638 114.02 103.449C114.02 103.638 114.209 103.638 114.398 103.826L115.531 133.653H58.8979C60.0306 123.459 61.7296 109.867 62.2959 104.77C62.2959 103.449 62.4847 102.694 62.4847 102.694L80.2295 102.505L80.4183 101.372C80.6071 100.429 80.4183 99.2959 79.852 98.5408L69.8469 84.1938C69.0918 83.25 68.1479 82.6836 67.0153 82.6836L51.7245 82.8724C51.7245 82.8724 52.2908 76.6428 54.9336 67.3928C57.3877 58.1428 72.4898 50.2143 72.4898 50.2143C72.8673 50.0255 73.8112 49.4592 74.9438 49.0816C74.9438 49.2704 75.1326 49.4592 75.1326 49.648C77.2091 54.5561 82.1173 57.5765 87.403 57.7653C90.2346 57.9541 93.6326 57.5765 95.7091 55.6888C95.7091 55.6888 99.6734 53.0459 101.184 49.2704L102.127 49.648C103.071 49.8367 104.015 50.2143 104.959 50.5918C109.112 52.6684 120.25 58.5204 123.459 67.3928C123.459 67.3928 130.444 93.8214 129.689 99.1071Z" fill="#EC2029"/>
<path d="M117.607 90.2346C117.796 89.6683 117.229 88.9132 116.663 88.9132L114.964 89.102V88.9132C115.53 88.3469 116.663 88.3469 117.418 88.3469C117.985 88.3469 118.362 88.7244 118.551 89.102L118.928 91.1785L119.684 95.1428V95.7091C120.061 99.1071 117.985 99.4846 117.985 99.4846C117.985 101.184 115.719 101.939 115.719 101.939C115.53 102.694 114.775 103.071 114.02 103.449C113.454 103.638 113.076 103.826 113.076 103.826L112.321 104.204C111.755 104.393 111.189 104.582 110.622 104.582C104.393 103.638 102.316 97.5969 102.316 97.5969C102.316 97.5969 102.316 97.0306 102.883 96.8418L102.316 96.0867C102.316 96.0867 101.939 94.5765 104.015 94.7653C104.015 94.7653 104.393 94.0101 105.337 94.3877C105.525 94.3877 105.525 94.3877 105.714 94.3877C106.092 94.5765 106.469 94.7653 106.847 94.954L108.546 95.5204C108.546 95.5204 107.791 93.4438 109.49 93.255C110.811 93.0663 114.398 93.8214 116.097 94.1989V94.0101L117.607 90.2346Z" fill="white"/>
<path d="M87.2141 13.0255C87.2141 13.2143 86.459 13.5918 85.7039 14.1582C86.6478 13.5918 87.2141 13.2143 87.2141 13.0255ZM100.428 24.7296C100.428 26.2398 98.9182 27.5612 99.107 26.2398C99.2957 25.1071 98.7294 14.7245 98.7294 14.7245C98.7294 14.7245 97.0304 13.0255 97.0304 11.5153C97.0304 11.5153 90.9896 16.0459 86.6478 16.0459C84.0049 16.0459 84.76 15.102 85.7039 14.1582C83.6274 15.6684 79.4743 18.1224 75.6988 18.8775C75.6988 21.7092 75.6988 25.4847 76.2651 27.1837C76.2651 27.1837 75.6988 28.3163 74.9437 26.4286C74.5662 25.4847 74.1886 23.7857 73.9998 22.0867C73.9998 22.0867 73.9998 21.898 73.9998 21.7092C73.8111 20.5765 73.056 19.4439 71.9233 19.0663C71.357 18.6888 70.9794 18.3112 71.1682 17.5561C71.5458 15.6684 70.4131 10.0051 74.9437 7.55103C79.4743 4.90817 84.1937 -3.58672 97.5968 2.64287L98.3519 5.28572C98.3519 5.28572 104.393 10.5714 103.826 16.801C103.826 16.801 104.204 18.3112 102.505 18.5C101.372 18.8775 100.617 19.8214 100.617 20.9541C100.617 20.9541 100.617 21.1429 100.617 21.3316C100.617 23.2194 100.428 24.7296 100.428 24.7296Z" fill="black"/>
<path d="M93.0663 23.5969C93.255 23.5969 93.8214 23.5969 94.0101 23.7857C94.3877 23.7857 94.954 24.352 94.5765 24.9184C94.1989 25.1071 93.4438 25.2959 92.6887 25.2959C92.3112 25.2959 92.1224 25.1071 91.9336 24.9184C91.9336 24.7296 91.9336 24.352 92.1224 24.1633C92.3112 23.9745 92.6887 23.7857 93.0663 23.5969Z" fill="black"/>
<path d="M95.7091 20.7653C93.8213 20.3877 91.7448 20.7653 90.8009 20.9541C90.8009 21.1428 90.6121 20.9541 90.6121 20.7653C91.1785 19.0663 93.0662 18.8775 93.0662 18.8775C93.0662 18.8775 95.8978 19.0663 95.8978 20.5765C95.8978 20.7653 95.8978 20.9541 95.7091 20.7653Z" fill="black"/>
<path d="M82.8725 25.2959C82.1174 25.2959 81.551 25.1071 81.1735 24.7296C80.7959 24.352 81.3623 23.7857 81.7398 23.5969C81.9286 23.5969 82.3061 23.4081 82.6837 23.5969C82.8725 23.7857 83.25 23.9745 83.4388 24.1632C83.6276 24.352 83.6276 24.5408 83.4388 24.9183C83.4388 25.1071 83.25 25.1071 82.8725 25.2959Z" fill="black"/>
<path d="M80.0408 20.5765C80.6071 19.8214 81.551 18.6888 82.6836 18.8775C82.6836 18.8775 84.3826 19.0663 84.9489 20.7653C84.9489 20.9541 84.9489 20.9541 84.7602 20.9541C84.0051 20.7653 81.9285 20.199 80.2296 20.7653C80.0408 20.7653 80.0408 20.5765 80.0408 20.5765Z" fill="black"/>
<path d="M101.184 49.2704C99.6734 53.0459 95.7092 55.6888 95.7092 55.6888C93.6326 57.5765 90.2347 57.9541 87.403 57.7653C82.1173 57.5765 77.2092 54.5561 75.1326 49.6479C75.1326 49.4592 74.9439 49.2704 74.9439 49.0816C75.5102 48.7041 76.2653 48.3265 76.8316 48.1377C77.7755 52.4796 81.3622 54.5561 81.3622 54.5561C81.3622 54.5561 89.8571 59.4643 97.2194 52.2908C97.2194 52.2908 99.1071 49.8367 99.2959 48.5153L101.184 49.2704Z" fill="#D84652"/>
<path d="M102.316 24.9184C101.75 31.148 99.2958 30.9592 99.2958 30.9592C98.7294 34.5459 97.408 37 96.2754 38.699C96.2754 38.699 95.1427 46.0612 98.3519 48.3265L99.2958 48.5153C99.107 49.8367 97.2192 52.2908 97.2192 52.2908C89.857 59.4643 81.3621 54.5561 81.3621 54.5561C81.3621 54.5561 77.7754 52.4796 76.8315 48.1377C77.3978 47.7602 77.7754 47.5714 77.7754 47.5714C80.0407 45.8724 79.8519 38.699 79.8519 38.699C77.0203 35.4898 76.4539 31.5255 76.4539 31.5255C74.9437 32.0918 72.6784 28.6939 72.3009 25.1071C71.9233 21.5204 73.9999 22.0867 73.9999 22.0867C74.1886 23.7857 74.5662 25.4847 74.9437 26.4286C75.6988 28.3163 76.2652 27.1837 76.2652 27.1837C75.6988 25.4847 75.6988 21.7092 75.6988 18.8776C79.4743 18.1225 83.6274 15.6684 85.7039 14.1582C84.7601 15.102 84.005 16.0459 86.6478 16.0459C90.9897 16.0459 97.0305 11.5153 97.0305 11.5153C97.0305 13.0255 98.7294 14.7245 98.7294 14.7245C98.7294 14.7245 99.2958 25.1071 99.107 26.2398C98.9182 27.5612 100.428 26.2398 100.428 24.7296C100.428 24.7296 100.617 23.2194 100.617 21.3316H100.806C103.449 20.199 102.316 24.9184 102.316 24.9184Z" fill="white"/>
<path d="M62.4846 102.694C62.4846 102.694 62.2959 103.449 62.2959 104.77L59.653 109.112C59.2755 109.867 58.7091 110.434 58.1428 111.189C57.0102 112.51 56.2551 113.076 56.2551 113.076C52.2908 115.908 46.8163 108.735 46.8163 108.735L54.9336 104.959C55.3112 104.77 55.6887 104.582 56.0663 104.204C56.2551 103.826 56.2551 103.638 56.2551 103.26L56.8214 102.883C57.0102 102.883 57.1989 102.694 57.3877 102.694H62.4846Z" fill="white"/>
<path d="M54.9337 104.959L46.8164 108.735C46.4388 108.923 46.0613 109.112 45.6837 108.923C44.9286 108.735 43.796 108.357 43.2297 107.224L41.5307 105.525C41.5307 105.525 41.1531 104.959 41.3419 103.826C41.3419 103.638 41.1531 103.26 40.9644 103.26C40.5868 102.883 39.8317 102.505 39.8317 102.128C39.8317 101.561 40.0205 100.806 40.0205 100.24C40.0205 100.051 40.0205 99.8622 39.8317 99.6734C39.4542 98.7295 38.1327 95.1428 40.398 94.3877C40.7756 94.1989 41.1531 94.1989 41.5307 94.1989C43.9848 93.8214 46.8164 94.5765 46.8164 95.1428C46.8164 95.1428 47.5715 96.8418 45.3062 97.2193L43.2297 97.5969L43.9848 98.7295L54.1786 98.5408C54.745 98.5408 55.1225 98.5408 55.5001 98.9183C55.8776 99.1071 56.0664 99.4846 56.0664 100.051C55.8776 100.24 55.6888 100.429 55.5001 100.617C55.8776 100.617 56.4439 100.429 56.8215 100.429C57.3878 100.429 57.7654 100.995 57.7654 101.561C57.7654 101.939 57.5766 102.316 57.3878 102.694C57.199 102.694 57.0103 102.883 56.8215 102.883L56.2552 103.26C56.2552 103.638 56.2552 103.826 56.0664 104.204C55.6888 104.582 55.3113 104.77 54.9337 104.959Z" fill="white"/>
<path d="M45.3062 97.2193C47.5715 96.8418 46.8164 95.1428 46.8164 95.1428C46.8164 94.5765 43.9847 93.8214 41.5307 94.1989L36.6225 86.0816C36.4337 85.704 36.6225 85.3265 36.8113 85.1377C36.8113 85.1377 37.0001 85.1377 37.1888 85.1377L66.449 84.9489C67.2041 84.9489 67.9592 85.3265 68.5255 86.0816C70.6021 89.102 76.6429 97.7857 80.2296 102.505L62.4847 102.694H57.3878C57.5766 102.316 57.7653 101.939 57.7653 101.561C57.7653 100.995 57.3878 100.429 56.8215 100.429C56.4439 100.429 55.8776 100.617 55.5 100.617C55.6888 100.429 55.8776 100.24 56.0664 100.051C56.0664 99.4846 55.8776 99.1071 55.5 98.9183C55.1225 98.5408 54.7449 98.5408 54.1786 98.5408L43.9847 98.7295L43.2296 97.5969L45.3062 97.2193Z" fill="white"/>
<path d="M80.2295 102.505C76.6428 97.7857 70.602 89.102 68.5255 86.0816C67.9591 85.3265 67.204 84.9489 66.4489 84.9489L37.1887 85.1377C37 85.1377 36.8112 85.1377 36.8112 85.1377L37.1887 84.7601C37.3775 84.3826 37.5663 84.005 37.9438 83.6275C38.3214 83.2499 38.6989 83.0612 39.2653 83.0612L51.7244 82.8724L67.0153 82.6836C68.1479 82.6836 69.0918 83.2499 69.8469 84.1938L79.852 98.5408C80.4183 99.2959 80.6071 100.429 80.4183 101.372L80.2295 102.505Z" fill="white"/>
<path d="M73.9999 22.0867C73.9999 22.0867 71.9233 21.5204 72.3009 25.1071C72.6784 28.6938 74.9437 32.0918 76.4539 31.5255C76.4539 31.5255 77.0203 35.4898 79.8519 38.6989C81.3621 40.2091 83.2499 41.3418 85.8927 41.9081" stroke="#231F1F" stroke-width="0.0787585"/>
<path d="M91.5561 41.9081C91.5561 41.9081 94.0102 41.5306 96.2755 38.699C97.4081 37 98.7296 34.5459 99.2959 30.9592C99.2959 30.9592 101.75 31.148 102.316 24.9184C102.316 24.9184 103.449 20.199 100.806 21.3316" stroke="#231F1F" stroke-width="0.0787585"/>
<path d="M79.8519 38.6989C79.8519 38.6989 80.0407 45.8724 77.7754 47.5714C77.7754 47.5714 77.3978 47.7602 76.8315 48.1377C76.2652 48.3265 75.5101 48.704 74.9437 49.0816C73.8111 49.4591 72.8672 50.0255 72.4897 50.2142" stroke="#231F1F" stroke-width="0.0787585"/>
<path d="M42.4744 98.9183L43.9846 98.7295L54.1784 98.5407" stroke="#231F1F" stroke-width="0.0787585"/>
<path d="M54.1784 98.5407C54.7448 98.5407 55.1223 98.5407 55.4999 98.9183C55.8774 99.1071 56.0662 99.4846 56.0662 100.051C55.8774 100.24 55.6886 100.428 55.4999 100.617C55.3111 100.806 55.1223 100.806 54.9335 100.806" stroke="#231F1F" stroke-width="0.0787585"/>
<path d="M54.9337 100.806L44.3623 102.694" stroke="#231F1F" stroke-width="0.0787585"/>
<path d="M44.9286 105.903L50.2143 105.337" stroke="#231F1F" stroke-width="0.0787585"/>
<path d="M50.2142 105.337C50.5918 105.148 50.9693 105.148 51.1581 104.959" stroke="#231F1F" stroke-width="0.0787585"/>
<path d="M51.1582 104.959L56.2552 103.26L56.8215 102.883" stroke="#231F1F" stroke-width="0.0787585"/>
<path d="M56.8213 102.883C57.0101 102.883 57.1989 102.694 57.3877 102.694C57.5764 102.316 57.7652 101.939 57.7652 101.561C57.7652 100.995 57.3877 100.429 56.8213 100.429C56.4438 100.429 55.8775 100.617 55.4999 100.617" stroke="#231F1F" stroke-width="0.0787585"/>
<path d="M56.2551 103.26C56.2551 103.638 56.2551 103.826 56.0663 104.204C55.6888 104.582 55.3112 104.77 54.9337 104.959" stroke="#231F1F" stroke-width="0.0787585"/>
<path d="M54.9336 104.959L46.8163 108.735" stroke="#231F1F" stroke-width="0.0787585"/>
<path d="M46.8163 108.735C46.4388 108.923 46.0612 109.112 45.6837 108.923C44.9286 108.735 43.7959 108.357 43.2296 107.224" stroke="#231F1F" stroke-width="0.0787585"/>
<path d="M43.2296 107.224L41.5306 105.525" stroke="#231F1F" stroke-width="0.0787585"/>
<path d="M41.5307 105.525C41.5307 105.525 41.1531 104.959 41.3419 103.826C41.3419 103.638 41.1531 103.26 40.9644 103.26C40.5868 102.883 39.8317 102.505 39.8317 102.128C39.8317 101.561 40.0205 100.806 40.0205 100.24C40.0205 100.051 40.0205 99.8622 39.8317 99.6734C39.4542 98.7295 38.1327 95.1428 40.398 94.3877C40.7756 94.1989 41.1531 94.1989 41.5307 94.1989C43.9848 93.8214 46.8164 94.5765 46.8164 95.1428C46.8164 95.1428 47.5715 96.8418 45.3062 97.2193" stroke="#231F1F" stroke-width="0.0787585"/>
<path d="M45.306 97.2193L43.2295 97.5969L42.0969 97.7856" stroke="#231F1F" stroke-width="0.0787585"/>
<path d="M57.3876 102.694H62.4846L80.2295 102.505" stroke="#231F1F" stroke-width="0.0787585"/>
<path d="M80.2296 102.505C76.6429 97.7857 70.602 89.102 68.5255 86.0816C67.9592 85.3265 67.2041 84.9489 66.449 84.9489" stroke="#231F1F" stroke-width="0.0787585"/>
<path d="M66.4489 84.9489L37.1887 85.1377" stroke="#231F1F" stroke-width="0.0787585"/>
<path d="M37.1888 85.1377C37.0001 85.1377 36.8113 85.1377 36.8113 85.1377C36.6225 85.3265 36.4337 85.7041 36.6225 86.0816" stroke="#231F1F" stroke-width="0.0787585"/>
<path d="M36.6224 86.0816L41.5306 94.1989" stroke="#231F1F" stroke-width="0.0787585"/>
<path d="M43.2296 97.5969L43.9847 98.7295" stroke="#231F1F" stroke-width="0.0787585"/>
<path d="M117.985 95.1428L117.229 94.7653" stroke="#231F1F" stroke-width="0.0787585"/>
<path d="M117.229 94.7652C116.852 94.5764 116.663 94.3877 116.286 94.1989C116.097 94.1989 116.097 94.1989 116.097 94.1989C114.398 93.8213 110.811 93.0662 109.49 93.255C107.791 93.4438 108.546 95.5203 108.546 95.5203" stroke="#231F1F" stroke-width="0.0787585"/>
<path d="M108.546 95.5204L106.847 94.954" stroke="#231F1F" stroke-width="0.0787585"/>
<path d="M106.847 94.954C106.469 94.7653 106.092 94.5765 105.714 94.3877C105.525 94.3877 105.525 94.3877 105.337 94.3877C104.393 94.0101 104.015 94.7653 104.015 94.7653C101.939 94.5765 102.316 96.0867 102.316 96.0867" stroke="#231F1F" stroke-width="0.0787585"/>
<path d="M102.316 96.0867L102.883 96.8418" stroke="#231F1F" stroke-width="0.0787585"/>
<path d="M102.883 96.8418C102.316 97.0306 102.316 97.5969 102.316 97.5969C102.316 97.5969 104.393 103.638 110.622 104.582C111.189 104.582 111.755 104.393 112.321 104.204" stroke="#231F1F" stroke-width="0.0787585"/>
<path d="M112.321 104.204L113.076 103.826" stroke="#231F1F" stroke-width="0.0787585"/>
<path d="M113.077 103.826C113.077 103.826 113.454 103.638 114.02 103.449C114.776 103.071 115.531 102.694 115.719 101.939C115.719 101.939 117.985 101.184 117.985 99.4846C117.985 99.4846 120.061 99.107 119.684 95.7091" stroke="#231F1F" stroke-width="0.0787585"/>
<path d="M119.684 95.7091V95.1428L118.929 91.1785L118.551 89.102" stroke="#231F1F" stroke-width="0.0787585"/>
<path d="M118.551 89.102C118.362 88.7244 117.985 88.3469 117.418 88.3469C116.663 88.3469 115.531 88.3469 114.964 88.9132" stroke="#231F1F" stroke-width="0.0787585"/>
<path d="M114.02 103.449C114.02 103.638 114.209 103.638 114.398 103.826C115.342 105.148 117.418 107.036 118.173 107.413C118.74 107.98 119.495 108.168 120.25 108.168C121.76 108.357 124.025 107.98 125.724 106.469C126.102 106.092 126.291 105.714 126.668 105.337C128.178 103.449 128.367 101.184 127.801 100.051C127.046 98.5407 123.648 96.4642 122.704 96.0867C121.76 95.8979 119.872 95.1428 119.872 95.1428" stroke="#231F1F" stroke-width="0.0787585"/>
<path d="M122.704 107.791C124.403 107.036 125.724 106.281 126.668 105.337C130.066 102.316 129.689 99.1071 129.689 99.1071C130.444 93.8214 123.459 67.3928 123.459 67.3928C120.25 58.5204 109.112 52.6683 104.959 50.5918C104.015 50.2143 103.071 49.8367 102.127 49.6479" stroke="#231F1F" stroke-width="0.0787585"/>
<path d="M102.128 49.648L101.184 49.2704L99.2959 48.5153L98.352 48.3265" stroke="#231F1F" stroke-width="0.0787585"/>
<path d="M98.3519 48.3265C95.1427 46.0612 96.2754 38.6989 96.2754 38.6989" stroke="#231F1F" stroke-width="0.0787585"/>
<path d="M105.525 94.1989L106.847 90.0459" stroke="#231F1F" stroke-width="0.0787585"/>
<path d="M106.847 90.0459C107.036 89.6683 107.602 89.2908 108.168 89.2908" stroke="#231F1F" stroke-width="0.0787585"/>
<path d="M108.168 89.2908L114.964 89.102L116.663 88.9132" stroke="#231F1F" stroke-width="0.0787585"/>
<path d="M116.663 88.9132C117.23 88.9132 117.796 89.6683 117.607 90.2346" stroke="#231F1F" stroke-width="0.0787585"/>
<path d="M117.607 90.2346L116.097 94.0101" stroke="#231F1F" stroke-width="0.0787585"/>
<path d="M106.658 94.1989L107.602 91.556" stroke="#231F1F" stroke-width="0.0787585"/>
<path d="M107.602 91.5561C107.791 90.9898 108.357 90.6122 108.923 90.6122" stroke="#231F1F" stroke-width="0.0787585"/>
<path d="M108.923 90.6122L116.474 90.2346" stroke="#231F1F" stroke-width="0.0787585"/>
<path d="M115.342 97.9744C115.342 97.9744 109.49 96.2755 108.546 95.5204" stroke="#231F1F" stroke-width="0.0787585"/>
<path d="M104.015 94.7653C104.015 94.7653 103.638 95.3316 104.77 96.653C106.092 97.9744 109.679 99.8622 109.679 99.8622" stroke="#231F1F" stroke-width="0.0787585"/>
<path d="M109.679 99.8622L112.699 100.617" stroke="#231F1F" stroke-width="0.0787585"/>
<path d="M102.883 96.8418C103.26 97.0306 107.036 101.372 108.168 101.75C109.301 102.127 110.811 102.694 110.811 102.694" stroke="#231F1F" stroke-width="0.0787585"/>
<path d="M72.4898 50.2143C72.4898 50.2143 57.3877 58.1428 54.9336 67.3928C52.2908 76.6428 51.7245 82.8724 51.7245 82.8724" stroke="#231F1F" stroke-width="0.0787585"/>
<path d="M114.398 103.826L115.53 133.653" stroke="#231F1F" stroke-width="0.0787585"/>
<path d="M58.8979 133.653C60.0305 123.459 61.7295 109.867 62.2958 104.77C62.2958 103.449 62.4846 102.694 62.4846 102.694" stroke="#231F1F" stroke-width="0.0787585"/>
<path d="M114.02 88.9132C114.02 88.9132 114.964 68.3367 115.342 63.9948" stroke="#231F1F" stroke-width="0.0787585"/>
<path d="M118.928 91.1785C118.928 91.1785 122.893 86.4591 123.27 76.8316" stroke="#231F1F" stroke-width="0.0787585"/>
<path d="M61.7296 64.3724L62.4847 82.6836" stroke="#231F1F" stroke-width="0.0787585"/>
<path d="M46.8163 108.735C46.8163 108.735 52.2908 115.908 56.2551 113.076C56.2551 113.076 57.0102 112.51 58.1428 111.189C58.7091 110.434 59.2755 109.867 59.653 109.112" stroke="#231F1F" stroke-width="0.0787585"/>
<path d="M59.6531 109.112L62.296 104.77" stroke="#231F1F" stroke-width="0.0787585"/>
<path d="M76.8316 48.1377C77.7755 52.4796 81.3622 54.5561 81.3622 54.5561C81.3622 54.5561 89.8571 59.4643 97.2193 52.2908C97.2193 52.2908 99.1071 49.8367 99.2959 48.5153" stroke="#231F1F" stroke-width="0.0787585"/>
<path d="M101.184 49.2704C99.6734 53.0459 95.7092 55.6888 95.7092 55.6888C93.6326 57.5765 90.2347 57.9541 87.403 57.7653C82.1173 57.5765 77.2092 54.5561 75.1326 49.648C75.1326 49.4592 74.9439 49.2704 74.9439 49.0816" stroke="#231F1F" stroke-width="0.0787585"/>
<path d="M85.7039 14.1582C83.6274 15.6684 79.4744 18.1224 75.6989 18.8775" stroke="#231F1F" stroke-width="0.0787585"/>
<path d="M87.4029 13.0255H87.2142C87.2142 13.2143 86.6478 13.5919 85.704 14.1582" stroke="#231F1F" stroke-width="0.0787585"/>
<path d="M85.704 14.1582C86.4591 13.5919 87.2142 13.2143 87.2142 13.0255" stroke="#231F1F" stroke-width="0.0787585"/>
<path d="M75.6989 15.2908C75.6989 15.2908 75.6989 16.801 75.6989 18.8775C75.6989 21.7091 75.6989 25.4847 76.2652 27.1836C76.2652 27.1836 75.6989 28.3163 74.9438 26.4285C74.5662 25.4847 74.1887 23.7857 73.9999 22.0867" stroke="#231F1F" stroke-width="0.0787585"/>
<path d="M73.9998 22.0867C73.9998 22.0867 73.9998 21.898 73.9998 21.7092C73.8111 20.5765 73.056 19.4439 71.9233 19.0663C71.357 18.6888 70.9794 18.3112 71.1682 17.5561C71.5458 15.6684 70.4131 10.0051 74.9437 7.55103C79.4743 4.90817 84.1937 -3.58672 97.5968 2.64287" stroke="#231F1F" stroke-width="0.0787585"/>
<path d="M97.5968 2.64284L98.3519 5.2857" stroke="#231F1F" stroke-width="0.0787585"/>
<path d="M98.352 5.28574C98.352 5.28574 104.393 10.5714 103.826 16.801C103.826 16.801 104.204 18.3112 102.505 18.5" stroke="#231F1F" stroke-width="0.0787585"/>
<path d="M102.505 18.5C101.372 18.8776 100.617 19.8214 100.617 20.9541C100.617 20.9541 100.617 21.1429 100.617 21.3316C100.617 23.2194 100.429 24.7296 100.429 24.7296C100.429 26.2398 98.9183 27.5612 99.1071 26.2398C99.2959 25.1071 98.7296 14.7245 98.7296 14.7245C98.7296 14.7245 97.0306 13.0255 97.0306 11.5153C97.0306 11.5153 90.9898 16.0459 86.6479 16.0459C84.0051 16.0459 84.7602 15.102 85.7041 14.1582" stroke="#231F1F" stroke-width="0.0787585"/>
<path d="M36.8112 85.1377L37.1887 84.7601" stroke="#231F1F" stroke-width="0.0787585"/>
<path d="M37.1887 84.7601C37.3775 84.3826 37.5662 84.005 37.9438 83.6275C38.3213 83.2499 38.6989 83.0611 39.2652 83.0611" stroke="#231F1F" stroke-width="0.0787585"/>
<path d="M39.2654 83.0612L51.7246 82.8724L67.0154 82.6836" stroke="#231F1F" stroke-width="0.0787585"/>
<path d="M67.0152 82.6836C68.1479 82.6836 69.0918 83.2499 69.8469 84.1938" stroke="#231F1F" stroke-width="0.0787585"/>
<path d="M69.8469 84.1938L79.852 98.5408" stroke="#231F1F" stroke-width="0.0787585"/>
<path d="M79.852 98.5407C80.4184 99.2958 80.6071 100.428 80.4184 101.372" stroke="#231F1F" stroke-width="0.0787585"/>
<path d="M80.4183 101.372L80.2295 102.505" stroke="#231F1F" stroke-width="0.0787585"/>
<path d="M73.6224 22.653C72.301 22.0867 72.6785 24.7296 72.6785 25.2959C72.8673 26.8061 73.4336 28.1275 74 29.2602C74.3775 30.0153 75.3214 31.3367 76.2653 31.1479C76.454 31.1479 76.8316 31.1479 76.8316 31.5255C77.5867 36.2449 81.1734 40.5867 86.0816 41.5306C86.4591 41.5306 86.2704 42.4745 85.704 42.2857C80.6071 41.3418 76.8316 36.8112 76.0765 31.7143C76.2653 31.7143 76.2653 31.903 76.454 31.903C75.3214 32.2806 74.3775 31.3367 73.8112 30.5816C72.6785 29.0714 72.1122 27.1836 71.7347 25.2959C71.7347 23.9745 71.9234 21.1428 74 21.7092C74.3775 21.8979 74.1887 22.653 73.6224 22.653Z" fill="#1D1819"/>
<path d="M91.3672 41.5306C92.4999 41.3418 93.6325 40.5867 94.3876 39.8316C97.0305 37.5663 98.1631 34.1683 98.9182 30.7704C98.9182 30.5816 99.107 30.3928 99.2958 30.3928C100.617 30.5816 101.372 27.75 101.561 26.8061C101.75 25.6734 101.939 24.5408 102.127 23.5969C102.127 22.653 102.127 21.1428 100.806 21.7092C100.24 21.8979 100.051 21.1428 100.617 20.9541C103.638 19.6326 102.883 24.5408 102.505 26.051C102.316 27.75 101.939 29.6377 100.806 30.5816C100.428 30.9592 99.8621 31.3367 99.2958 31.3367C99.4846 31.1479 99.4846 31.1479 99.6733 30.9592C99.107 34.5459 97.7856 38.1326 94.9539 40.3979C94.0101 41.3418 92.8774 42.0969 91.556 42.2857C90.9897 42.4745 90.8009 41.5306 91.3672 41.5306Z" fill="#1D1819"/>
<path d="M80.2296 38.6989C80.2296 40.5867 80.2296 42.6632 79.6633 44.551C79.4745 45.6836 79.0969 46.8163 78.1531 47.7602C77.5867 48.3265 76.6429 48.5153 75.8878 48.8928C74.7551 49.4591 73.6225 50.0255 72.6786 50.5918C72.1123 50.7806 71.7347 50.2142 72.1123 49.8367C73.0561 49.4591 74 48.8928 74.9439 48.5153C75.699 48.1377 76.6429 47.7602 77.398 47.1938C78.1531 46.8163 78.5306 45.4948 78.7194 44.551C79.0969 43.4183 79.2857 42.0969 79.2857 40.7755C79.4745 40.0204 79.4745 39.454 79.4745 38.6989C79.4745 38.1326 80.2296 38.1326 80.2296 38.6989Z" fill="#1D1819"/>
<path d="M42.4745 98.352C46.0612 98.352 49.6479 98.1632 53.4235 98.1632C54.1786 97.9744 54.9337 97.9744 55.6888 98.5408C56.8214 99.2959 56.2551 100.995 54.9337 101.372C53.2347 101.75 51.5357 101.939 49.8367 102.127C48.1377 102.505 46.25 102.883 44.3622 103.071C43.7959 103.26 43.6071 102.316 44.1735 102.316C47.3826 101.75 50.7806 101.184 54.1786 100.617C54.3673 100.617 54.5561 100.429 54.7449 100.429C55.3112 100.429 55.8775 99.6734 55.1224 99.2959C54.7449 98.7295 53.801 98.9183 53.2347 98.9183C51.1581 98.9183 49.2704 99.1071 47.1939 99.1071C45.6837 99.1071 43.9847 99.2959 42.4745 99.2959C41.9082 99.2959 41.9082 98.352 42.4745 98.352Z" fill="#1D1819"/>
<path d="M44.9284 105.525C46.6274 105.337 48.3264 105.148 50.2142 104.77C50.7805 104.77 51.5356 104.393 52.2907 104.204C53.4233 103.826 54.556 103.26 55.6886 102.883C55.8774 102.883 56.255 102.694 56.6325 102.505C57.0101 102.316 57.3876 101.939 57.3876 101.372C57.1988 100.617 56.255 100.995 55.6886 100.995C55.1223 101.184 54.7448 100.24 55.3111 100.24C56.255 100.051 57.3876 99.8622 57.954 100.806C58.5203 101.561 58.1427 102.505 57.3876 103.071C57.0101 103.26 56.6325 103.449 56.255 103.638C55.6886 103.826 55.1223 104.015 54.556 104.204C53.4233 104.582 52.4795 104.959 51.3468 105.337C50.4029 105.714 49.4591 105.714 48.5152 105.903C47.1938 106.092 46.0611 106.281 44.9284 106.281C44.3621 106.469 44.3621 105.525 44.9284 105.525Z" fill="#1D1819"/>
<path d="M56.6327 103.26C56.8214 104.77 55.1225 105.337 53.9898 105.903C52.4796 106.658 51.1582 107.224 49.648 107.98C48.7041 108.357 47.7602 108.735 46.8163 109.301C45.8725 109.49 44.9286 109.301 44.1735 108.923C43.4184 108.546 43.0408 107.791 42.4745 107.224C42.0969 106.658 41.5306 106.281 41.1531 105.903C40.9643 105.714 40.9643 105.337 40.7755 105.148C40.5867 104.582 40.9643 103.826 40.398 103.449C40.0204 103.071 39.6429 102.883 39.4541 102.505C39.2653 101.939 39.4541 101.372 39.4541 100.995C39.4541 100.051 39.0765 99.2958 38.8878 98.5407C38.5102 97.0305 38.3214 94.954 39.8316 94.1989C41.7194 93.255 44.551 93.4438 46.25 94.1989C47.5714 94.7652 47.5714 96.2754 46.6276 97.2193C45.8725 97.5969 45.1174 97.7856 44.3623 97.7856C43.6072 97.9744 42.8521 98.1632 42.0969 98.1632C41.7194 98.352 41.3418 97.4081 41.9082 97.4081C42.8521 97.2193 43.9847 97.0305 44.9286 96.8418C45.4949 96.8418 46.25 96.4642 46.4388 95.7091C46.4388 95.3315 46.4388 95.3315 46.0612 95.1428C45.4949 94.7652 44.3623 94.5764 43.4184 94.5764C42.4745 94.3877 41.1531 94.3877 40.2092 94.954C38.8878 95.5203 39.6429 97.7856 40.0204 98.9183C40.2092 99.6734 40.398 100.24 40.2092 100.995C40.2092 101.561 40.2092 101.939 40.5867 102.316C40.7755 102.694 41.3418 102.883 41.5306 103.26C41.7194 103.638 41.5306 104.204 41.5306 104.582C41.5306 104.77 41.7194 104.959 41.7194 105.148C41.7194 105.148 41.9082 105.337 41.7194 105.337C42.0969 105.714 42.4745 106.092 42.8521 106.469C43.4184 106.847 43.6072 107.413 44.1735 107.791C44.7398 108.357 45.6837 108.735 46.4388 108.357C47.1939 108.168 47.949 107.791 48.7041 107.413C50.2143 106.847 51.5357 106.092 52.8571 105.525C53.801 104.959 55.8776 104.393 55.6888 103.26C55.6888 102.694 56.4439 102.694 56.6327 103.26Z" fill="#1D1819"/>
<path d="M43.4185 97.4081C43.6072 97.7856 43.9848 98.1632 44.1736 98.352C44.1736 98.5407 44.1736 98.5407 44.1736 98.5407C44.3623 98.7295 44.3623 98.7295 44.3623 98.9183C44.1736 98.9183 44.1736 99.1071 44.1736 99.1071C43.9848 99.2958 43.796 99.2958 43.796 99.2958C43.6072 99.1071 43.6072 99.1071 43.4185 98.9183C43.2297 98.7295 43.0409 98.352 42.8521 97.9744L42.6633 97.7856C42.6633 97.7856 42.6633 97.5969 42.6633 97.4081C42.6633 97.4081 42.6633 97.2193 42.8521 97.2193C42.8521 97.2193 43.0409 97.2193 43.2297 97.2193C43.2297 97.2193 43.4185 97.2193 43.4185 97.4081Z" fill="#1D1819"/>
<path d="M117.796 95.5204C117.041 95.1428 116.286 94.7653 115.531 94.5765C114.398 94.3877 113.265 94.0102 112.321 93.8214C111.377 93.8214 110.245 93.4438 109.301 93.6326C108.546 93.8214 108.735 94.7653 108.923 95.3316C109.112 95.7091 108.735 95.8979 108.357 95.8979C107.791 95.7091 107.224 95.5204 106.658 95.3316C106.281 95.1428 105.903 94.954 105.337 94.7653C104.77 94.5765 104.582 94.7653 104.204 94.954C103.826 95.1428 103.826 95.1428 103.26 95.1428C102.883 95.1428 102.694 95.3316 102.505 95.7091V95.8979C102.505 96.0867 102.505 95.7091 102.505 95.8979C102.694 96.0867 102.883 96.2755 103.071 96.653C103.26 96.8418 103.26 97.2193 102.883 97.2193C102.694 97.4081 102.694 97.7857 102.694 97.5969C102.694 97.7857 102.694 97.9744 102.883 97.9744C103.071 98.5408 103.449 99.1071 103.826 99.6734C104.959 101.372 106.658 102.883 108.735 103.638C109.301 103.826 109.867 104.015 110.434 104.015C111.189 104.204 111.755 104.015 112.51 103.638C112.888 103.26 113.643 103.071 114.02 102.883C114.398 102.694 114.587 102.694 114.775 102.505C114.964 102.316 114.964 102.128 115.153 101.939C115.342 101.75 115.342 101.561 115.531 101.561C116.474 101.184 117.418 100.617 117.418 99.4847C117.418 99.2959 117.607 99.1071 117.796 99.1071C118.551 98.9183 119.117 97.9744 119.306 97.2193C119.495 96.0867 119.117 94.7653 118.929 93.6326C118.74 92.6887 118.551 91.9336 118.362 91.1785C118.362 90.6122 118.173 89.8571 117.985 89.4796C117.796 88.9132 117.418 88.7245 116.852 88.7245C116.286 88.7245 115.531 88.7245 115.153 89.2908C114.775 89.6683 114.209 89.102 114.587 88.7245C115.153 87.9694 116.474 87.7806 117.418 87.9694C118.362 87.9694 118.74 88.7245 118.929 89.4796C119.306 90.6122 119.495 91.9336 119.684 93.0663C119.872 94.5765 120.439 96.0867 120.061 97.5969C119.872 98.5408 119.117 99.6734 117.985 100.051C118.173 99.8622 118.173 99.6734 118.362 99.4847C118.173 100.995 116.852 101.939 115.719 102.316L115.908 102.128C115.719 103.449 114.209 103.826 113.076 104.204C113.076 104.204 113.076 104.204 112.888 104.204C112.699 104.393 112.699 104.393 112.51 104.582C112.133 104.77 111.755 104.959 111.189 104.959C110.245 104.959 109.112 104.582 108.168 104.393C105.525 103.26 103.26 100.995 102.128 98.5408C101.75 97.5969 101.561 96.8418 102.694 96.4642C102.694 96.653 102.694 97.0306 102.505 97.2193C102.128 96.653 101.75 96.2755 101.75 95.7091C101.939 94.5765 102.883 94.1989 103.826 94.3877C103.638 94.3877 103.638 94.3877 103.449 94.5765C104.015 93.6326 104.959 93.6326 105.903 94.0102C106.658 94.5765 107.602 94.7653 108.546 94.954C108.546 95.1428 108.357 95.3316 108.168 95.5204C107.791 94.954 107.791 94.0102 108.168 93.4438C108.735 92.5 110.056 92.6887 111.189 92.8775C112.51 93.0663 113.832 93.2551 115.153 93.6326C116.286 93.8214 117.23 94.1989 118.173 94.7653C118.551 95.1428 118.173 95.8979 117.796 95.5204Z" fill="#1D1819"/>
<path d="M114.209 103.26C114.775 104.015 115.531 104.77 116.097 105.337C116.663 105.903 117.418 106.469 118.173 107.036C119.872 108.357 122.704 107.791 124.592 106.658C126.479 105.337 127.801 103.071 127.423 100.806C127.235 99.2959 125.347 98.1632 124.025 97.4081C122.515 96.4642 121.005 96.0867 119.684 95.5204C119.117 95.3316 119.306 94.3877 119.872 94.5765C121.383 95.3316 122.893 95.7091 124.403 96.653C125.913 97.4081 127.99 98.7296 128.367 100.617C128.745 102.883 127.612 105.337 125.913 106.658C124.025 108.357 121.005 109.301 118.74 108.357C117.607 107.791 116.852 107.036 115.908 106.281C115.153 105.525 114.209 104.77 113.643 103.638C113.265 103.26 114.02 102.694 114.209 103.26Z" fill="#1D1819"/>
<path d="M122.515 107.413C125.536 106.092 128.745 103.638 129.122 100.051C129.311 98.7296 129.122 97.2194 129.122 95.8979C128.367 89.6683 126.857 83.4388 125.347 77.3979C124.781 74.7551 124.214 72.301 123.459 69.6581C123.082 67.9592 122.704 66.449 121.76 64.9388C117.985 58.5204 111.189 54.1786 104.77 51.1582C103.071 50.2143 101.184 49.8367 99.4847 49.0816C98.9184 49.0816 98.5409 48.8929 98.1633 48.7041C97.4082 48.3265 96.8419 47.5714 96.4643 46.8163C95.3317 44.3622 95.3317 41.1531 95.7092 38.5102C95.7092 37.9439 96.6531 38.1327 96.4643 38.699C96.4643 38.5102 96.4643 38.8878 96.4643 38.8878C96.4643 39.0765 96.4643 39.2653 96.4643 39.4541C96.4643 40.2092 96.2756 40.7755 96.2756 41.5306C96.4643 43.2296 96.4643 45.1173 97.4082 46.6275C97.597 47.0051 97.9745 47.7602 98.5409 47.949C99.1072 48.3265 99.8623 48.3265 100.429 48.5153C101.939 49.0816 103.449 49.648 104.959 50.4031C111.566 53.2347 118.174 57.5765 122.138 63.8061C123.082 65.5051 123.837 67.0153 124.214 68.903C124.781 71.3571 125.536 73.8112 126.102 76.2653C127.612 82.4949 129.122 88.7245 129.878 95.1428C130.066 96.8418 130.255 98.5408 129.878 100.24C129.5 104.015 126.102 106.658 122.893 108.168C122.327 108.357 121.949 107.602 122.515 107.413Z" fill="#1D1819"/>
<path d="M104.959 94.1989C105.337 92.8775 105.903 91.3673 106.281 90.2346C106.658 89.2907 107.224 88.9132 107.98 88.7244C108.546 88.7244 109.112 88.7244 109.49 88.7244C111.189 88.7244 113.077 88.7244 114.775 88.5356C115.908 88.5356 118.173 88.1581 117.985 90.0458C117.796 90.8009 117.418 91.556 117.23 92.1224C116.852 92.8775 116.663 93.4438 116.286 94.1989C116.097 94.7652 115.342 94.5764 115.531 94.0101C116.097 92.6887 116.474 91.556 116.852 90.2346C117.041 90.2346 117.041 89.8571 117.041 89.6683C117.041 89.4795 116.663 89.4795 116.474 89.4795C115.908 89.4795 115.531 89.4795 114.964 89.4795C113.265 89.4795 111.755 89.4795 110.056 89.6683C109.49 89.6683 108.923 89.6683 108.357 89.6683C107.791 89.6683 107.413 89.8571 107.224 90.4234C106.658 91.7448 106.281 93.0662 105.714 94.3877C105.525 94.7652 104.77 94.5764 104.959 94.1989Z" fill="#1D1819"/>
<path d="M106.092 94.1989C106.469 93.2551 106.658 92.5 107.036 91.7449C107.413 90.801 107.98 90.2346 108.923 90.2346C110.622 90.0459 112.51 90.0459 114.398 90.0459C114.964 89.8571 115.719 89.8571 116.286 89.8571C116.852 89.8571 116.852 90.6122 116.286 90.801C114.775 90.801 113.265 90.801 111.755 90.9897C111 90.9897 110.056 90.9897 109.301 90.9897C108.546 90.9897 108.168 91.1785 107.791 91.9336C107.602 92.6887 107.224 93.4438 107.036 94.3877C106.847 94.7653 105.903 94.5765 106.092 94.1989Z" fill="#1D1819"/>
<path d="M115.153 98.352C113.265 97.7857 111.378 97.2194 109.679 96.4642C109.112 96.2755 108.735 96.0867 108.357 95.8979C107.791 95.5204 108.357 94.7653 108.735 95.1428C109.112 95.3316 109.301 95.5204 109.679 95.5204C110.245 95.7091 110.811 96.0867 111.378 96.2755C112.51 96.653 113.643 97.0306 114.776 97.2194C114.964 97.4081 115.153 97.4081 115.342 97.5969C115.908 97.5969 115.719 98.5408 115.153 98.352Z" fill="#1D1819"/>
<path d="M104.204 94.954C104.204 94.7652 104.204 94.954 104.204 94.954V95.1428C104.393 95.7091 104.77 96.2754 105.148 96.4642C105.903 97.2193 106.847 97.7857 107.602 98.352C108.357 98.7295 109.112 98.9183 109.679 99.2959L109.867 99.4846C109.679 99.2959 109.867 99.4846 109.867 99.4846C110.245 99.4846 110.434 99.6734 110.811 99.6734C111.566 99.8622 112.133 100.051 112.888 100.24C113.265 100.429 113.077 101.184 112.51 101.184C111.944 100.995 111.378 100.806 110.811 100.617C110.245 100.429 109.679 100.429 109.301 100.051C108.546 99.6734 107.791 99.2959 107.036 98.9183C106.092 98.352 105.148 97.7857 104.393 97.0306C104.015 96.4642 103.071 95.3316 103.449 94.5765C103.638 94.0101 104.393 94.3877 104.204 94.954Z" fill="#1D1819"/>
<path d="M103.071 96.4642C103.449 96.653 103.638 97.0306 103.826 97.4081C104.393 97.7857 104.959 98.352 105.337 98.9183C105.903 99.4846 106.469 100.051 107.036 100.617C107.224 100.806 107.413 100.995 107.791 101.184C107.979 101.184 108.168 101.372 108.357 101.372C109.112 101.75 110.056 101.939 111 102.316C111.377 102.316 111.189 103.26 110.622 103.071C110.056 102.883 109.301 102.694 108.546 102.316C107.791 102.127 107.413 101.939 106.847 101.372C105.714 100.429 104.582 99.2959 103.638 98.1632C103.449 97.9744 103.071 97.7857 102.883 97.5969C102.883 97.4081 102.694 97.4081 102.694 97.2193C102.505 97.2193 102.694 97.2193 102.694 97.2193C102.127 97.0306 102.505 96.2755 103.071 96.4642Z" fill="#1D1819"/>
<path d="M72.6786 50.5918C68.9031 52.4796 65.5052 54.9336 62.296 57.7653C60.0307 59.8418 57.7654 62.1071 56.2552 64.9387C55.3113 66.6377 54.9337 68.5255 54.3674 70.4132C53.9899 72.301 53.4235 74.3775 53.046 76.454C52.6684 78.5306 52.2909 80.7959 51.9133 82.8724C51.9133 83.4387 51.1582 83.4387 51.1582 82.8724C51.347 81.1734 51.7245 79.4744 51.9133 77.5867C52.2909 75.6989 52.8572 73.6224 53.2348 71.7347C53.8011 69.6581 54.1786 67.5816 54.9337 65.6938C57.3878 60.0306 62.8623 55.6888 67.9592 52.4796C69.2807 51.5357 70.7909 50.5918 72.1123 49.8367C72.6786 49.6479 73.0562 50.403 72.6786 50.5918Z" fill="#1D1819"/>
<path d="M114.587 103.826C114.775 108.923 115.153 114.02 115.342 118.929L115.908 133.653H115.153V133.464C114.775 125.347 114.398 117.418 114.02 109.301C114.02 107.602 113.832 105.714 113.832 103.826C113.832 103.26 114.587 103.26 114.587 103.826ZM58.3316 133.653C58.8979 129.689 59.2755 125.913 59.653 121.949C60.4081 115.719 61.1632 109.301 61.9183 103.071C61.9183 102.883 61.9183 102.883 61.9183 102.694C61.9183 102.127 62.8622 102.127 62.8622 102.694C62.2959 107.036 61.7296 111.377 61.352 115.531C60.5969 121.571 59.8418 127.612 59.2755 133.653H58.3316Z" fill="#1D1819"/>
<path d="M72.3011 50.5918C71.9235 50.5918 71.9235 49.8367 72.3011 49.8367C72.8674 49.8367 72.8674 50.5918 72.3011 50.5918Z" fill="#1D1819"/>
<path d="M113.454 88.9132C113.832 82.3061 114.209 75.5102 114.587 68.7143C114.587 67.2041 114.775 65.5051 114.964 63.9949C114.964 63.4286 115.719 63.4286 115.719 63.9949C114.964 71.3571 114.775 78.9081 114.398 86.2704C114.398 87.2143 114.398 88.1581 114.398 88.9132C114.398 89.4796 113.454 89.4796 113.454 88.9132Z" fill="#1D1819"/>
<path d="M118.551 90.9897C118.74 90.801 118.551 90.9897 118.551 90.9897C118.74 90.801 118.74 90.801 118.74 90.801C118.928 90.6122 119.117 90.4234 119.117 90.0458C119.683 89.2907 120.061 88.3469 120.439 87.403C121.949 84.1938 122.515 80.4183 122.704 76.8316C122.704 76.2652 123.648 76.2652 123.459 76.8316C123.459 80.6071 122.704 84.3826 121.382 87.7805C120.816 89.102 120.061 90.4234 119.306 91.5561C118.928 91.9336 118.362 91.3673 118.551 90.9897Z" fill="#1D1819"/>
<path d="M62.1072 64.3724C62.296 69.6581 62.4847 74.9438 62.6735 80.4183C62.6735 81.1734 62.6735 81.9285 62.8623 82.6836C62.8623 83.2499 61.9184 83.2499 61.9184 82.6836C61.7296 77.3979 61.5409 71.9234 61.3521 66.6377C61.1633 65.8826 61.1633 65.1275 61.1633 64.3724C61.1633 63.8061 61.9184 63.8061 62.1072 64.3724Z" fill="#1D1819"/>
<path d="M47.0051 108.546C47.0051 108.546 47.1939 108.546 47.1939 108.735C47.3827 108.923 47.3827 108.923 47.5714 109.112C47.949 109.679 48.3265 110.056 48.8929 110.622C50.0255 111.566 51.347 112.699 52.8572 113.265C54.5561 113.643 55.6888 113.076 56.6327 111.944C57.9541 110.811 58.898 109.49 59.8418 107.98C60.4082 106.847 61.1633 105.714 61.7296 104.582C62.1072 104.015 62.8623 104.393 62.4847 104.959C60.9745 107.602 59.4643 110.434 57.199 112.699C56.0663 113.832 54.9337 114.398 53.2347 114.209C51.5357 113.832 50.0255 112.888 48.8929 111.755C47.949 110.811 47.0051 110.056 46.4388 109.112C46.0612 108.546 46.8163 108.168 47.0051 108.546Z" fill="#1D1819"/>
<path d="M61.1632 114.209C60.5969 114.209 60.5969 113.454 61.1632 113.454C61.7295 113.454 61.7295 114.209 61.1632 114.209Z" fill="#1D1819"/>
<path d="M45.4949 109.301C44.9286 109.301 44.9286 108.546 45.4949 108.546C46.0613 108.546 46.0613 109.301 45.4949 109.301Z" fill="#1D1819"/>
<path d="M58.7092 103.071C58.1429 103.071 58.1429 102.316 58.7092 102.316C59.2756 102.316 59.2756 103.071 58.7092 103.071Z" fill="#1D1819"/>
<path d="M77.0205 47.9489C78.7195 55.3112 87.9695 57.5765 94.0103 54.1785C96.0868 53.0459 98.1633 50.9693 98.7297 48.5153C98.9184 47.9489 99.6735 48.1377 99.4848 48.704C99.1072 50.7806 97.597 52.6683 96.0868 53.801C93.8215 55.5 90.9899 56.4438 88.1582 56.6326C85.5154 56.6326 82.6838 55.8775 80.4185 54.3673C78.3419 52.8571 76.8317 50.7806 76.2654 48.1377C76.0766 47.5714 77.0205 47.3826 77.0205 47.9489Z" fill="#1D1819"/>
<path d="M101.372 49.2704C100.617 51.5357 99.2957 53.2347 97.5968 54.7449C96.2753 55.6888 94.9539 56.8214 93.6325 57.3877C89.1019 59.2755 83.2498 58.3316 79.2855 55.5C77.0202 53.801 75.3213 51.7245 74.3774 49.0816C74.1886 48.7041 74.9437 48.3265 75.1325 48.8928C77.3978 54.7449 83.2498 57.7653 89.4794 57.3877C90.9896 57.199 92.6886 57.0102 94.01 56.2551C94.7651 55.8775 95.3315 55.3112 95.8978 54.9337C97.9743 53.4235 99.6733 51.5357 100.617 49.0816C100.806 48.7041 101.561 48.8928 101.372 49.2704Z" fill="#1D1819"/>
<path d="M76.0764 15.2908C75.8877 18.5 75.8877 21.8979 76.2652 25.1071C76.2652 25.8622 77.2091 28.3163 75.5101 27.9388C74.5662 27.75 74.3775 26.4286 74.1887 25.6735C73.8111 24.352 73.8111 22.8418 73.4336 21.3316C73.2448 20.5765 72.6785 20.0102 71.9234 19.6326C71.5458 19.2551 71.1683 19.0663 70.7907 18.6888C70.4132 17.9337 70.7907 17.1786 70.7907 16.4235C70.7907 14.5357 70.7907 12.648 71.5458 10.7602C71.9234 9.81632 72.4897 8.87244 73.2448 8.11734C73.8111 7.55102 74.755 7.17346 75.3213 6.60714C76.6428 5.66326 77.7754 4.71938 78.9081 3.77551C81.9285 1.5102 85.1377 0 89.1019 0C91.7448 0 94.1989 0.755102 96.653 1.69898C97.2193 1.88775 97.7856 2.07653 97.9744 2.45408C98.1632 2.64286 98.1632 3.02041 98.1632 3.20918C98.3519 3.77551 98.3519 4.15306 98.5407 4.53061C98.5407 4.71938 98.5407 4.90816 98.7295 4.90816C98.7295 5.28571 98.7295 5.09694 98.5407 5.09694C99.2958 6.04081 100.428 6.79591 101.184 7.73979C102.505 9.62755 103.638 11.7041 104.015 13.9694C104.393 15.2908 104.77 17.7449 103.449 18.6888C103.071 18.8775 102.505 18.8775 102.127 19.0663C101.184 19.6326 100.995 20.3877 100.995 21.1428C100.995 22.4643 100.806 23.5969 100.806 24.7296C100.617 25.4847 100.428 26.4286 99.6734 26.9949C99.107 27.3724 98.5407 26.9949 98.5407 26.4286C98.5407 25.1071 98.5407 23.7857 98.5407 22.4643C98.5407 20.5765 98.3519 18.6888 98.3519 16.801C98.3519 16.2347 98.3519 15.6684 98.3519 15.102C98.3519 14.9133 98.3519 14.9133 98.3519 14.7245C98.1632 15.102 98.5407 15.102 98.3519 14.9133C98.1632 14.9133 97.9744 14.5357 97.7856 14.3469C97.2193 13.5918 96.653 12.648 96.653 11.5153C96.8417 11.5153 97.0305 11.7041 97.2193 11.8928C94.3876 13.9694 90.8009 16.2347 87.0254 16.4235C86.0815 16.6122 83.6275 16.4235 84.5713 14.7245C84.9489 13.7806 86.0815 13.2143 87.0254 12.648C87.403 12.4592 87.7805 13.0255 87.403 13.4031C84.005 16.0459 79.8519 18.3112 75.6989 19.2551C75.1326 19.4439 74.9438 18.5 75.5101 18.5C79.6632 17.5561 83.6275 15.2908 87.0254 12.648C87.2142 12.8367 87.2142 13.2143 87.403 13.4031C86.6479 13.7806 85.8928 14.3469 85.3264 14.9133C84.9489 15.6684 85.5152 15.6684 86.0815 15.6684C87.2142 15.6684 88.1581 15.4796 89.1019 15.2908C91.9336 14.3469 94.5764 12.8367 96.8417 11.1377C97.0305 10.949 97.4081 11.1377 97.4081 11.5153C97.5968 12.648 98.1632 13.4031 98.9183 14.3469C99.107 14.5357 99.107 14.7245 99.107 15.102C99.2958 16.2347 99.2958 17.3673 99.2958 18.5C99.2958 20.199 99.4846 21.8979 99.4846 23.5969C99.4846 24.352 99.4846 24.9184 99.4846 25.4847C99.4846 25.6735 99.4846 26.051 99.4846 26.2398C99.4846 26.2398 99.4846 26.2398 99.4846 26.4286C99.2958 26.6173 99.2958 26.4286 99.2958 26.2398C99.2958 26.2398 99.4846 26.051 99.4846 25.8622C99.8621 25.2959 99.8621 24.1633 100.051 23.4081C100.051 22.2755 99.8621 20.7653 100.428 19.8214C100.806 18.8775 101.561 18.5 102.316 18.1224C103.071 17.9337 103.449 17.5561 103.449 16.801C103.638 12.648 101.372 9.06122 98.5407 6.22959C98.3519 6.04081 98.1632 5.85204 97.9744 5.66326C97.7856 5.28571 97.5968 4.53061 97.5968 4.15306C97.4081 3.77551 97.4081 3.39796 97.2193 3.20918C97.0305 2.64286 97.0305 2.83163 96.2754 2.45408C95.1427 2.07653 93.8213 1.5102 92.4999 1.32143C88.7244 0.377551 84.9489 0.943877 81.5509 3.02041C79.2856 4.34183 77.3979 6.41836 75.1326 7.73979C73.2448 9.06122 72.1122 10.5714 71.9234 12.8367C71.5458 14.3469 71.7346 15.8571 71.5458 17.3673C71.5458 18.1224 71.7346 18.3112 72.3009 18.6888C72.6785 19.0663 73.056 19.4439 73.4336 19.8214C74.1887 20.7653 74.3775 21.8979 74.5662 23.0306C74.5662 24.352 74.755 25.8622 75.5101 26.8061C75.6989 27.1837 75.5101 26.9949 75.6989 26.9949C75.6989 26.9949 75.6989 27.1837 75.6989 26.8061C75.5101 26.6173 75.5101 26.4286 75.5101 26.2398C74.9438 22.8418 75.1326 19.4439 75.1326 16.0459C75.1326 15.6684 75.1326 15.4796 75.1326 15.2908C75.3213 14.7245 76.0764 14.7245 76.0764 15.2908Z" fill="#1D1819"/>
<path d="M36.4337 84.9489C37.1888 84.005 37.7551 82.8724 39.0765 82.6836C39.4541 82.6836 39.6429 82.6836 39.8316 82.6836C41.5306 82.6836 43.0408 82.6836 44.551 82.6836C49.4592 82.4948 54.3673 82.4948 59.2755 82.3061C61.1633 82.3061 63.051 82.3061 64.9388 82.3061C66.0714 82.3061 67.2041 82.1173 68.1479 82.4948C69.6581 83.0612 70.4132 84.3826 71.3571 85.704C72.6786 87.5918 74 89.4795 75.3214 91.1785C76.6428 93.255 77.9643 95.1428 79.4745 97.2193C79.6632 97.5969 80.0408 97.9744 80.2296 98.352C81.1734 99.6734 80.7959 100.995 80.4183 102.505C80.4183 103.071 79.4745 102.883 79.6632 102.316C80.0408 100.995 80.2296 99.8622 79.4745 98.7295C79.2857 98.352 78.9081 97.9744 78.7194 97.7857C77.5867 96.0867 76.4541 94.5765 75.3214 92.8775C73.4337 90.0459 71.5459 87.0254 69.2806 84.3826C68.3367 83.0612 67.0153 83.0612 65.5051 83.2499C63.8061 83.2499 62.1071 83.2499 60.4081 83.2499C55.6888 83.2499 51.1582 83.4387 46.4388 83.4387C44.551 83.4387 42.4745 83.4387 40.5867 83.6275C40.2092 83.6275 39.6429 83.6275 39.2653 83.6275C38.1327 83.6275 37.7551 84.7601 37 85.5152C36.6225 85.8928 36.0561 85.3265 36.4337 84.9489Z" fill="#1D1819"/>
<path d="M17.1785 25.8622H38.8877C40.0203 25.8622 40.7754 26.6173 40.7754 27.75V42.4744C40.7754 43.4183 40.0203 44.3622 38.8877 44.3622H26.4285L23.7857 47.9489C23.5969 48.3265 23.2193 48.3265 23.0306 47.9489L20.3877 44.3622H17.1785C16.0459 44.3622 15.2908 43.4183 15.2908 42.4744V27.75C15.2908 26.6173 16.0459 25.8622 17.1785 25.8622Z" fill="#FEFEFE" stroke="#332C2B" stroke-width="0.352514"/>
<path d="M19.255 29.6377H30.959" stroke="#332C2B" stroke-width="0.352514" stroke-linecap="round"/>
<path d="M19.255 33.2245H30.959" stroke="#332C2B" stroke-width="0.352514" stroke-linecap="round"/>
<path d="M19.255 36.8112H30.959" stroke="#332C2B" stroke-width="0.352514" stroke-linecap="round"/>
<path d="M54.556 20.3877H32.8468C31.7141 20.3877 30.959 21.1428 30.959 22.2755V37C30.959 37.9438 31.7141 38.8877 32.8468 38.8877H45.306L47.9488 42.4745C48.1376 42.852 48.5151 42.852 48.7039 42.4745L51.3468 38.8877H54.556C55.6886 38.8877 56.4437 37.9438 56.4437 37V22.2755C56.4437 21.1428 55.6886 20.3877 54.556 20.3877Z" fill="#EC2029" stroke="#332C2B" stroke-width="0.352514"/>
<path d="M34.357 23.9745H51.9131" stroke="#332C2B" stroke-width="0.352514" stroke-linecap="round"/>
<path d="M34.357 27.5612H51.9131" stroke="#332C2B" stroke-width="0.352514" stroke-linecap="round"/>
<path d="M34.357 31.1479H51.9131" stroke="#332C2B" stroke-width="0.352514" stroke-linecap="round"/>
<path d="M34.357 34.7347H51.9131" stroke="#332C2B" stroke-width="0.352514" stroke-linecap="round"/>
</svg>
