<svg width="14" height="11" viewBox="0 0 14 11" fill="none" xmlns="http://www.w3.org/2000/svg">
<path d="M4.32184 8.49158L1.42224 5.59198C1.266 5.43574 1.05409 5.34796 0.83313 5.34796C0.61217 5.34796 0.40026 5.43574 0.244018 5.59198C0.0877759 5.74822 0 5.96013 0 6.18109C0 6.2905 0.0215497 6.39884 0.0634184 6.49992C0.105287 6.601 0.166655 6.69284 0.244018 6.7702L3.73691 10.2631C4.0628 10.589 4.58924 10.589 4.91513 10.2631L13.756 1.42224C13.9122 1.266 14 1.05409 14 0.83313C14 0.61217 13.9122 0.40026 13.756 0.244018C13.5997 0.0877761 13.3878 0 13.1669 0C12.9459 0 12.734 0.0877761 12.5778 0.244018L4.32184 8.49158Z" fill="#EC2028"/>
</svg>
