<svg width="113" height="112" viewBox="0 0 113 112" fill="none" xmlns="http://www.w3.org/2000/svg">
<path fill-rule="evenodd" clip-rule="evenodd" d="M36.7096 9.45143C72.4239 9.45143 102.614 33.0564 112.551 65.5194V111.999H0V18.4422C10.9814 12.7027 23.4722 9.45143 36.7096 9.45143Z" fill="#F9D4DB"/>
<path d="M37.3565 77.8611C41.6694 77.7284 56.1675 74.0955 58.9709 73.3823C59.2861 73.3159 59.5515 73.1334 59.734 72.868L60.4638 71.823L63.3004 68.2399C63.6653 67.7755 64.1962 67.51 64.7768 67.51H69.4048C69.4048 67.51 70.1015 67.2778 70.5328 68.8703L70.5494 68.9864C71.6774 68.9366 72.8718 68.8869 73.9002 68.8537C73.6846 67.9082 70.1513 52.5807 68.4925 48.3341C66.7673 43.9715 57.0633 40.7699 57.0633 40.7699V40.7368C56.6983 40.7202 56.3168 40.6704 55.9353 40.6041L55.9187 40.7699C47.9564 44.5852 42.2169 36.6561 41.404 35.4451C38.0698 36.9878 24.9983 43.3577 23.1737 48.9313C21.1001 55.1685 18.728 68.2731 19.856 79.6028C19.9058 80.0673 20.2044 80.4488 20.6357 80.5981C21.1001 80.7806 21.7305 80.9796 22.3277 81.046C22.2281 80.482 22.1286 79.8848 22.0457 79.2545V79.2379C26.0932 78.0104 37.3565 77.8611 37.3565 77.8611Z" fill="#EC2029"/>
<path d="M29.8587 90.7832L29.5435 111.999H74.5638C73.9334 104.999 73.0377 95.9422 71.9926 87.9633C71.5945 84.8281 71.1632 81.8422 70.7153 79.2213C70.7153 79.2213 66.7176 82.2072 60.779 80.4156C60.779 80.4156 40.0106 89.0912 29.8587 90.7832Z" fill="#EC2029"/>
<path d="M55.9353 40.604C56.3168 40.6703 56.6983 40.7201 57.0633 40.7367C60.1487 40.8694 63.1179 39.476 64.8431 36.6228C69.3385 29.1582 69.9854 18.21 69.9854 18.21C70.002 18.0607 70.0186 17.9114 70.002 17.7621C69.9854 16.9659 69.6703 16.2194 68.8574 16.0535C68.028 15.871 58.2908 10.7951 56.1675 16.2028C56.1675 16.2028 50.0631 20.7148 49.7976 20.947C49.5488 21.1958 48.4374 26.1059 48.4374 26.1059C48.4374 26.1059 48.0061 26.7031 47.7573 26.0562H46.3639C45.6672 26.1557 45.1198 26.0894 44.6719 25.9069C44.6719 25.9069 44.4397 33.9521 42.1671 35.0967C42.1671 35.0967 41.8851 35.2128 41.404 35.4451C42.2169 36.656 47.9564 44.5851 55.9187 40.7699L55.9353 40.604Z" fill="white"/>
<path d="M42.9301 20.4494C42.7643 22.44 42.8804 25.1438 44.6719 25.9069C45.1198 26.0894 45.6672 26.1557 46.3639 26.0562H47.7573C47.5748 25.5088 47.5251 24.132 48.0061 20.8475C48.172 19.6863 47.8734 18.492 47.127 17.5962C46.5298 16.8829 45.6672 16.4019 44.5558 17.0654C43.7264 17.5465 43.1956 18.4256 43.0629 19.3877C43.0131 19.7029 42.9633 20.0513 42.9301 20.4328C42.9301 20.4494 42.9301 20.4494 42.9301 20.4494Z" fill="white"/>
<path d="M70.002 17.7622C70.002 17.7622 74.7794 12.7857 72.0756 8.70503C69.7034 5.17176 69.2556 8.52256 69.1892 9.46809C69.239 8.32351 69.3717 3.51294 67.5304 3.34706C65.4237 3.18118 66.2697 5.6694 66.2697 5.6694C66.2697 5.6694 56.0514 -3.96832 50.992 2.31859C50.992 2.31859 43.4278 3.24753 42.6979 10.1814C41.968 16.9162 42.8804 20.2504 42.9302 20.4329C42.9633 20.0513 43.0131 19.703 43.0629 19.3878C43.1956 18.4257 43.7264 17.5465 44.5558 17.0655C45.6672 16.4019 46.5298 16.883 47.127 17.5963C47.8734 18.492 48.172 19.6864 48.0061 20.8476C47.5251 24.132 47.5748 25.5088 47.7573 26.0562C48.0061 26.7032 48.4374 26.106 48.4374 26.106C48.4374 26.106 49.5488 21.1959 49.7977 20.9471C50.0631 20.7149 56.1675 16.2029 56.1675 16.2029C58.2908 10.7951 68.028 15.8711 68.8575 16.0536C69.6703 16.2195 69.9854 16.9659 70.002 17.7622Z" fill="black"/>
<path d="M71.6277 78.1098L70.7153 79.2212C71.1632 81.8422 71.5945 84.828 71.9926 87.9632C76.2889 87.5651 80.1374 78.0601 80.2535 77.7615C79.7061 78.1596 78.8103 78.6738 77.7155 78.7402C77.7155 78.7402 74.1822 78.3587 73.2035 77.4795C73.1372 77.4961 73.0708 77.5127 73.0045 77.5292L71.6277 78.1098Z" fill="white"/>
<path d="M77.2345 72.7519C75.9738 72.7684 76.0567 74.1453 76.0567 74.1453C76.1065 74.3111 76.2226 74.4439 76.3885 74.5766C77.7819 75.605 82.5924 75.0908 82.5924 75.0908C84.1683 74.1287 83.9527 72.0386 83.8531 71.4082L83.0735 71.4248C82.5261 71.6736 81.9289 71.7897 81.2986 71.8229V71.8395C81.1327 72.1215 80.2701 72.5196 80.2701 72.5196C80.1374 72.7353 78.4952 72.7519 77.2345 72.7519Z" fill="white"/>
<path d="M74.4642 66.7801C74.4642 66.7801 73.7675 67.9578 73.9168 68.8536C74.2984 68.837 74.6467 68.8204 74.9619 68.8038L78.2629 65.8677L78.18 65.7682C78.18 65.7682 75.9904 64.1757 74.4642 66.7801Z" fill="white"/>
<path d="M80.8839 77.2307C80.8175 77.2473 78.7606 76.9985 77.2345 76.4345C77.2345 76.4345 75.924 76.617 75.5425 76.534C74.9619 76.8326 74.0993 77.2473 73.2035 77.4796C74.1822 78.3587 77.7155 78.7403 77.7155 78.7403C78.8103 78.6739 79.7061 78.1597 80.2535 77.7616C80.2701 77.7616 80.2701 77.7616 80.2701 77.7616C80.6682 77.463 80.8839 77.2307 80.8839 77.2307Z" fill="white"/>
<path d="M76.4216 74.9415L75.5922 75.0079C75.5756 75.6051 76.3055 76.0695 77.2345 76.4345C78.7606 76.9985 80.8175 77.2473 80.8839 77.2307C82.6256 76.252 82.5924 75.0908 82.5924 75.0908C82.5924 75.0908 77.7819 75.6051 76.3885 74.5766L76.4216 74.9415Z" fill="white"/>
<path d="M70.5494 68.9863L70.5329 68.8702C70.1016 67.2778 69.4049 67.51 69.4049 67.51H64.7768C64.1962 67.51 63.6654 67.7754 63.3004 68.2399L60.4638 71.8229L59.734 72.868C59.5515 73.1334 59.2861 73.3158 58.9709 73.3822C56.1675 74.0955 41.6695 77.7283 37.3565 77.861C37.3565 77.861 26.0932 78.0103 22.0457 79.2378V79.2544C22.1286 79.8848 22.2281 80.4819 22.3277 81.0459C23.1737 85.956 24.4841 88.0959 25.4297 89.7381C25.9107 90.6007 26.8065 91.0983 27.752 91.0486C28.3823 90.9988 29.0956 90.9159 29.8587 90.7832C40.0106 89.0912 60.779 80.4156 60.779 80.4156C66.7176 82.2071 70.7153 79.2212 70.7153 79.2212L71.6277 78.1098L73.0045 77.5292C73.0708 77.5126 73.1372 77.4961 73.2036 77.4795C74.0993 77.2472 74.9619 76.8325 75.5425 76.5339C75.924 76.6169 77.2345 76.4344 77.2345 76.4344C76.3055 76.0695 75.5757 75.605 75.5922 75.0078L76.4217 74.9415L76.3885 74.5765C76.2226 74.4438 76.1065 74.3111 76.0567 74.1452C76.0567 74.1452 75.9738 72.7684 77.2345 72.7518C78.4952 72.7518 80.1374 72.7353 80.2701 72.5196C80.2701 72.5196 81.1327 72.1215 81.2986 71.8395V71.8229C79.4075 71.9224 77.4667 71.2257 77.4667 71.2257L79.4241 70.4627C79.4241 70.4627 81.6303 69.9319 81.5972 68.9034C81.5972 68.837 81.5972 68.7707 81.564 68.7043C81.2156 67.5266 77.5496 68.6214 76.8198 68.7043C76.6373 68.7209 75.9406 68.7541 74.9619 68.8039C74.6467 68.8204 74.2984 68.837 73.9168 68.8536C73.9168 68.8702 73.9168 68.8868 73.9168 68.9034C73.9168 68.9034 73.9168 68.8868 73.9003 68.8536C72.8718 68.8868 71.6774 68.9366 70.5494 68.9863Z" fill="white"/>
<path d="M81.5971 68.9034L83.0735 67.9247L85.512 66.3323C86.1589 65.901 85.8935 64.8725 85.1304 64.8393L80.1374 64.5905C79.872 64.5739 79.59 64.6735 79.3909 64.8559L78.2629 65.8678L74.9619 68.8039C75.9406 68.7542 76.6373 68.721 76.8198 68.7044C77.5496 68.6214 81.2156 67.5266 81.564 68.7044C81.5971 68.7707 81.5971 68.8371 81.5971 68.9034Z" fill="white"/>
<path d="M83.0735 67.9247L81.5972 68.9034C81.6303 69.9319 79.4241 70.4627 79.4241 70.4627L77.4667 71.2258C77.4667 71.2258 79.4075 71.9225 81.2986 71.8229C81.9289 71.7898 82.5261 71.6736 83.0735 71.4248L83.8531 71.4082C83.8366 71.2921 83.8034 71.2258 83.8034 71.2258C84.2844 69.7328 83.1233 67.9911 83.1233 67.9911L83.0735 67.9247Z" fill="white"/>
<path d="M44.6719 25.9069C44.6719 25.9069 44.4397 33.9522 42.1671 35.0968C42.1671 35.0968 41.8851 35.2129 41.404 35.4451C38.0698 36.9878 24.9983 43.3577 23.1737 48.9313C21.1001 55.1684 18.728 68.2731 19.856 79.6028C19.9058 80.0673 20.2044 80.4488 20.6357 80.5981C21.1001 80.7805 21.7305 80.9796 22.3277 81.046C22.3774 81.0625 22.4272 81.0625 22.4769 81.0625" stroke="#231F1F" stroke-width="0.0790944"/>
<path d="M21.3158 79.5198C21.5314 79.4203 21.7637 79.3208 22.0457 79.2378C26.0932 78.0103 37.3565 77.861 37.3565 77.861C41.6695 77.7283 56.1675 74.0955 58.9709 73.3822C59.2861 73.3159 59.5515 73.1334 59.734 72.868" stroke="#231F1F" stroke-width="0.0790944"/>
<path d="M59.734 72.868L60.4638 71.8229L63.3004 68.2399" stroke="#231F1F" stroke-width="0.0790944"/>
<path d="M63.3004 68.2399C63.6653 67.7754 64.1962 67.51 64.7768 67.51" stroke="#231F1F" stroke-width="0.0790944"/>
<path d="M64.7768 67.51H69.4049" stroke="#231F1F" stroke-width="0.0790944"/>
<path d="M69.4048 67.51C69.4048 67.51 70.1016 67.2778 70.5328 68.8702" stroke="#231F1F" stroke-width="0.0790944"/>
<path d="M36.3447 51.2205C36.3447 51.2205 37.4726 75.9202 37.3565 77.861" stroke="#231F1F" stroke-width="0.0790944"/>
<path d="M57.0633 40.7699C57.0633 40.7699 66.7673 43.9715 68.4925 48.3341C70.1513 52.5807 73.6846 67.9082 73.9003 68.8537C73.9168 68.8869 73.9168 68.9035 73.9168 68.9035" stroke="#231F1F" stroke-width="0.0790944"/>
<path d="M41.3045 35.2958C41.3045 35.2958 41.3377 35.3456 41.404 35.4451C42.2169 36.6561 47.9564 44.5852 55.9187 40.7699" stroke="#231F1F" stroke-width="0.0790944"/>
<path d="M29.8587 90.7832L29.5435 111.999" stroke="#231F1F" stroke-width="0.0790944"/>
<path d="M78.18 65.7682C78.18 65.7682 75.9904 64.1757 74.4642 66.7801C74.4642 66.7801 73.7675 67.9578 73.9168 68.8536C73.9168 68.8702 73.9168 68.8868 73.9168 68.9034" stroke="#231F1F" stroke-width="0.0790944"/>
<path d="M66.2697 69.0859C66.3195 69.1191 68.2934 69.0693 70.5494 68.9864C71.6774 68.9366 72.8718 68.8869 73.9002 68.8537C73.9168 68.8371 73.9168 68.8537 73.9168 68.8537C74.2984 68.8371 74.6467 68.8205 74.9619 68.8039C75.9406 68.7542 76.6373 68.721 76.8198 68.7044C77.5496 68.6215 81.2156 67.5266 81.564 68.7044C81.5972 68.7707 81.5972 68.8371 81.5972 68.9034C81.6303 69.9319 79.4241 70.4627 79.4241 70.4627" stroke="#231F1F" stroke-width="0.0790944"/>
<path d="M79.4241 70.4627L77.4667 71.2257L75.6752 71.9224L72.2414 72.221" stroke="#231F1F" stroke-width="0.0790944"/>
<path d="M76.5378 74.9249L76.4216 74.9415L75.5922 75.0079L72.341 75.2733" stroke="#231F1F" stroke-width="0.0790944"/>
<path d="M76.2226 76.169C76.2226 76.169 75.9572 76.3183 75.5425 76.5339C74.9619 76.8325 74.0993 77.2472 73.2035 77.4795C73.1372 77.4961 73.0708 77.5126 73.0045 77.5292" stroke="#231F1F" stroke-width="0.0790944"/>
<path d="M73.0045 77.5293L71.6277 78.1099L70.7153 79.2213" stroke="#231F1F" stroke-width="0.0790944"/>
<path d="M70.7153 79.2213C70.7153 79.2213 66.7176 82.2072 60.779 80.4156C60.779 80.4156 40.0106 89.0912 29.8587 90.7832C29.0956 90.9159 28.3823 90.9989 27.752 91.0486C26.8065 91.0984 25.9107 90.6008 25.4297 89.7382C24.4841 88.096 23.1737 85.9561 22.3277 81.046C22.2281 80.482 22.1286 79.8848 22.0457 79.2545" stroke="#231F1F" stroke-width="0.0790944"/>
<path d="M80.2535 77.7615C79.7061 78.1596 78.8103 78.6738 77.7155 78.7402C77.7155 78.7402 74.1822 78.3586 73.2035 77.4795C73.187 77.4629 73.187 77.4629 73.1704 77.4463" stroke="#231F1F" stroke-width="0.0790944"/>
<path d="M83.1233 67.9911C83.1233 67.9911 84.2844 69.7328 83.8034 71.2258C83.8034 71.2258 83.8366 71.2921 83.8531 71.4082C83.9527 72.0386 84.1683 74.1287 82.5924 75.0908C82.5924 75.0908 82.6256 76.252 80.8839 77.2307C80.8839 77.2307 80.6682 77.4629 80.2701 77.7615" stroke="#231F1F" stroke-width="0.0790944"/>
<path d="M77.4667 71.2257C77.4667 71.2257 79.4075 71.9224 81.2986 71.8229C81.9289 71.7897 82.5261 71.6736 83.0735 71.4248" stroke="#231F1F" stroke-width="0.0790944"/>
<path d="M82.5924 75.0908C82.5924 75.0908 77.7819 75.6051 76.3885 74.5766C76.2226 74.4439 76.1065 74.3112 76.0567 74.1453C76.0567 74.1453 75.9738 72.7685 77.2345 72.7519C78.4952 72.7519 80.1374 72.7353 80.2701 72.5197C80.2701 72.5197 81.1327 72.1216 81.2986 71.8396" stroke="#231F1F" stroke-width="0.0790944"/>
<path d="M80.8839 77.2306C80.8175 77.2472 78.7606 76.9984 77.2345 76.4344C76.3055 76.0695 75.5756 75.605 75.5922 75.0078" stroke="#231F1F" stroke-width="0.0790944"/>
<path d="M77.2345 76.4345C77.2345 76.4345 75.924 76.617 75.5425 76.534C75.5259 76.534 75.4927 76.534 75.4761 76.5174" stroke="#231F1F" stroke-width="0.0790944"/>
<path d="M80.2701 77.7615C80.2701 77.7615 80.2701 77.7615 80.2535 77.7615C80.1374 78.0601 76.2889 87.5651 71.9926 87.9632" stroke="#231F1F" stroke-width="0.0790944"/>
<path d="M42.9301 20.4328C42.9633 20.0513 43.0131 19.7029 43.0629 19.3877C43.1956 18.4256 43.7264 17.5465 44.5558 17.0654C45.6672 16.4019 46.5298 16.8829 47.127 17.5962C47.8734 18.492 48.172 19.6863 48.0061 20.8475C47.5251 24.132 47.5748 25.5088 47.7573 26.0562C48.0061 26.7031 48.4374 26.1059 48.4374 26.1059C48.4374 26.1059 49.5488 21.1958 49.7976 20.947C50.0631 20.7148 56.1675 16.2028 56.1675 16.2028C58.2908 10.7951 68.028 15.871 68.8574 16.0535C69.6703 16.2194 69.9854 16.9659 70.002 17.7621C70.0186 17.9114 70.002 18.0607 69.9854 18.21C69.9854 18.21 69.3385 29.1582 64.8431 36.6228C63.1179 39.476 60.1487 40.8694 57.0633 40.7367C56.6983 40.7201 56.3168 40.6703 55.9353 40.604C55.0063 40.4547 54.0774 40.1561 53.1816 39.7082C51.2574 38.7627 49.1009 36.2081 47.8071 33.4877" stroke="#231F1F" stroke-width="0.0790944"/>
<path d="M46.3639 26.0562C45.6672 26.1557 45.1198 26.0894 44.6719 25.9069C42.8804 25.1439 42.7643 22.44 42.9301 20.4494" stroke="#231F1F" stroke-width="0.0790944"/>
<path d="M69.1726 9.70032C69.1726 9.70032 69.1726 9.61738 69.1892 9.46809C69.239 8.32351 69.3717 3.51294 67.5304 3.34706C65.4237 3.18118 66.2697 5.6694 66.2697 5.6694C66.2697 5.6694 56.0514 -3.96832 50.992 2.31859C50.992 2.31859 43.4278 3.24753 42.6979 10.1814C41.968 16.9162 42.8804 20.2504 42.9302 20.4329C42.9302 20.4494 42.9302 20.4494 42.9302 20.4494" stroke="#231F1F" stroke-width="0.0790944"/>
<path d="M70.002 17.7621C70.002 17.7621 74.7794 12.7857 72.0755 8.70497C69.7034 5.17169 69.2556 8.5225 69.1892 9.46802" stroke="#231F1F" stroke-width="0.0790944"/>
<path d="M74.9619 68.8039L78.2629 65.8678L79.3909 64.8559" stroke="#231F1F" stroke-width="0.0790944"/>
<path d="M79.3909 64.8559C79.59 64.6735 79.872 64.5739 80.1374 64.5905" stroke="#231F1F" stroke-width="0.0790944"/>
<path d="M80.1374 64.5904L85.1304 64.8393" stroke="#231F1F" stroke-width="0.0790944"/>
<path d="M85.1304 64.8393C85.8935 64.8725 86.1589 65.9009 85.512 66.3322" stroke="#231F1F" stroke-width="0.0790944"/>
<path d="M85.512 66.3323L83.0735 67.9247L81.5971 68.9034" stroke="#231F1F" stroke-width="0.0790944"/>
<path d="M84.865 65.9839L80.3862 65.818" stroke="#231F1F" stroke-width="0.0790944"/>
<path d="M80.3862 65.818C80.1872 65.818 79.9715 65.8844 79.8222 66.0005" stroke="#231F1F" stroke-width="0.0790944"/>
<path d="M79.8222 66.0005L77.2345 67.991" stroke="#231F1F" stroke-width="0.0790944"/>
<path d="M69.4048 67.5101L66.7176 54.1732" stroke="#231F1F" stroke-width="0.0790944"/>
<path d="M44.1908 26.106C44.1411 27.4994 44.0084 28.8928 43.7927 30.2696C43.5605 31.6796 43.2785 34.1845 41.8519 34.9807C41.0557 35.4286 40.1765 35.7603 39.3471 36.1584C37.5722 37.0376 35.7972 37.9666 34.0721 38.9618C30.4061 41.0685 26.3586 43.4904 23.8206 46.9407C22.6428 48.5332 22.2115 50.4906 21.7305 52.3651C21.0006 55.2846 20.4366 58.2373 20.0219 61.2066C19.4745 65.0052 19.1427 68.8537 19.093 72.6856C19.0598 74.7259 19.1261 76.7663 19.292 78.79C19.3418 79.4701 19.3086 80.2332 19.8063 80.764C20.3371 81.3114 21.3324 81.5436 22.0457 81.6432C22.5267 81.7095 22.7424 80.9796 22.2613 80.8967C21.83 80.8469 21.4319 80.7308 21.0172 80.5815C20.3703 80.3327 20.1878 80.0507 20.1048 79.3706C20.0219 78.4914 19.9721 77.6122 19.9224 76.7165C19.856 74.9747 19.8394 73.233 19.8892 71.4912C19.9887 68.0243 20.3039 64.574 20.8015 61.1402C21.2162 58.2539 21.7637 55.3841 22.4769 52.5641C22.958 50.6565 23.4059 48.6991 24.65 47.1066C27.3041 43.7392 31.3516 41.3671 35.0508 39.2936C36.6764 38.3813 38.3352 37.5021 40.0272 36.6893C40.7571 36.3243 41.5367 36.0257 42.25 35.6442C43.8259 34.7816 44.2074 32.31 44.4894 30.7341C44.7548 29.208 44.9207 27.6487 44.9539 26.106C44.9705 25.6084 44.2074 25.6084 44.1908 26.106Z" fill="#1D1819"/>
<path d="M21.4153 80.0506C23.0078 79.3373 24.9652 79.2046 26.6738 79.0387C28.8634 78.8065 31.053 78.6738 33.2593 78.5743C35.9631 78.4582 38.5509 78.4084 41.2216 77.9605C45.7833 77.1643 50.3119 76.086 54.8239 74.9912C55.6864 74.7922 56.549 74.5765 57.4116 74.3609C57.9922 74.2116 58.6391 74.1286 59.2031 73.8964C59.8998 73.5812 60.2482 72.8182 60.6961 72.2376C60.6131 72.3371 60.9117 71.939 60.9781 71.8727C61.2435 71.5243 61.5255 71.176 61.7909 70.8442C62.3383 70.1475 62.8525 69.4342 63.4331 68.7707C64.0966 68.0242 64.8099 68.1071 65.7057 68.1071C66.701 68.1071 67.7129 68.1071 68.7247 68.1071C69.5873 68.1071 69.7366 68.1237 70.0684 69.1854C70.2011 69.6498 70.9476 69.4508 70.8148 68.9697C70.5826 68.2233 70.2508 67.3939 69.3717 67.3275C69.1229 67.2943 69.3551 67.3441 69.0233 67.3275C68.6252 67.3275 68.2271 67.3275 67.8124 67.3275C66.2863 67.3275 64.0469 66.8962 62.9189 68.1735C61.9402 69.2849 61.0444 70.5124 60.1487 71.6902C59.7174 72.2542 59.4022 72.9841 58.7055 73.2329C58.1249 73.4485 57.478 73.5481 56.8808 73.6974C52.3854 74.8088 47.8734 75.887 43.3283 76.7828C41.4372 77.1477 39.513 77.5624 37.5722 77.6619C36.5437 77.7283 35.4987 77.7117 34.4536 77.7615C31.982 77.8444 29.5103 77.9771 27.0553 78.2259C25.0647 78.425 22.8751 78.5577 21.0338 79.3871C20.5693 79.5862 20.9674 80.2497 21.4153 80.0506Z" fill="#1D1819"/>
<path d="M35.8636 51.4195C36.2119 58.9505 36.5603 66.465 36.7925 73.996C36.8423 75.3396 36.9584 76.7164 36.8755 78.0601C36.8423 78.5577 37.6219 78.5577 37.6551 78.0601C37.7049 76.9487 37.6219 75.8207 37.5888 74.7093C37.5224 72.5528 37.4395 70.4129 37.3565 68.2731C37.174 63.6781 36.975 59.0998 36.7759 54.5049C36.7262 53.4764 36.6764 52.448 36.6432 51.4195C36.6101 50.9218 35.847 50.9218 35.8636 51.4195Z" fill="#1D1819"/>
<path d="M56.8642 41.3505C58.606 41.9145 60.298 42.6609 61.9236 43.4904C64.2625 44.7013 67.1157 46.2938 68.111 48.8815C68.9736 51.1375 69.5541 53.5262 70.1679 55.8651C70.9144 58.6685 71.6111 61.5051 72.2912 64.3417C72.6893 65.9507 73.0708 67.5764 73.4524 69.202C73.5685 69.6831 74.2984 69.484 74.1988 69.0029C73.2035 64.6568 72.1419 60.3273 71.0139 56.031C70.367 53.5925 69.7532 51.1043 68.874 48.7322C67.9119 46.1776 65.4569 44.552 63.1677 43.2913C61.2269 42.2131 59.17 41.3007 57.0633 40.604C56.5988 40.4381 56.3831 41.1846 56.8642 41.3505Z" fill="#1D1819"/>
<path d="M40.9728 35.8432C43.0297 39.1276 46.6791 41.9808 50.6105 42.3623C52.4849 42.5448 54.3262 42.0969 56.0016 41.3007C56.4661 41.1016 56.068 40.4381 55.6201 40.6371C52.1366 42.2794 48.454 41.6988 45.4184 39.4428C43.9586 38.3646 42.5984 36.9877 41.6363 35.445C41.3709 35.0303 40.7074 35.4119 40.9728 35.8432Z" fill="#1D1819"/>
<path d="M29.3776 90.9822C29.3279 95.2454 29.2615 99.5251 29.1952 103.788L29.0624 111.999H29.8421L30.0909 95.6601C30.1075 94.1008 30.1407 92.5415 30.1573 90.9822C30.1573 90.4846 29.3942 90.4846 29.3776 90.9822ZM74.8624 111.999C74.232 105.082 73.5187 98.1483 72.6727 91.2476C72.1917 87.2665 71.6608 83.2853 70.9973 79.3207C70.9144 78.8397 70.1679 79.0387 70.2508 79.5364C72.059 90.2689 73.1538 101.151 74.0827 111.999H74.8624Z" fill="#1D1819"/>
<path d="M78.2629 65.6355C77.7819 65.2706 77.0852 65.0881 76.488 65.1047C75.3102 65.1545 74.3979 66.0171 73.9002 67.0289C73.5685 67.6925 73.3197 68.4555 73.4524 69.202C73.4855 69.4176 73.7344 69.5172 73.9168 69.4674C74.1325 69.4176 74.232 69.202 74.1988 69.0029C74.0993 68.5053 74.3315 67.9247 74.5306 67.4934C74.7296 67.0787 74.9785 66.6972 75.3102 66.382C75.4927 66.2327 75.7083 66.0834 75.9074 66.0005C76.0899 65.9341 76.2889 65.8844 76.4548 65.8844C76.5378 65.8678 76.6373 65.8678 76.7368 65.8844C76.7534 65.8844 76.8695 65.901 76.8529 65.8844C76.8198 65.8844 76.9525 65.9175 76.969 65.9175C77.1349 65.9507 77.2842 66.0005 77.4501 66.0668C77.4833 66.0834 77.4169 66.0502 77.4169 66.0502C77.4501 66.0668 77.4667 66.0668 77.4999 66.0834C77.5165 66.1 77.5496 66.1166 77.5828 66.1332C77.6326 66.1498 77.6823 66.183 77.7487 66.2161C77.7819 66.2327 77.8316 66.2659 77.8814 66.2991C78.0473 66.4152 78.3127 66.3322 78.4122 66.1664C78.5283 65.9673 78.4454 65.7517 78.2629 65.6355Z" fill="#1D1819"/>
<path d="M66.0706 69.6499C66.4356 69.7992 67.0493 69.683 67.4309 69.6664C68.4261 69.6499 69.4214 69.6167 70.4167 69.5669C72.3741 69.5006 74.3315 69.4342 76.2889 69.3181C76.9359 69.2849 77.5662 69.119 78.1966 69.0029C78.5947 68.92 81.3815 68.3228 81.0829 69.2849C80.8839 69.9153 79.7393 70.1309 79.1919 70.3134C78.4122 70.5788 77.6326 70.9106 76.8529 71.2091C76.4382 71.375 76.0069 71.5575 75.5756 71.7068C75.3766 71.7897 75.642 71.7234 75.4927 71.74C75.3268 71.7731 75.1443 71.7731 74.9785 71.7897C74.0329 71.8727 73.0874 71.9556 72.1419 72.0386C71.6442 72.0717 71.6442 72.8514 72.1419 72.8016C73.0708 72.7187 73.9998 72.6523 74.9121 72.5694C75.5756 72.5196 76.0401 72.3537 76.6705 72.1049C77.5828 71.7566 78.4786 71.3584 79.4075 71.0599C80.1208 70.811 80.917 70.612 81.4644 70.0314C82.1611 69.3347 81.9289 68.3062 80.9668 68.0574C79.8388 67.7588 78.5117 68.1403 77.4169 68.3726C75.7581 68.7209 73.9998 68.6546 72.3078 68.7209C70.9641 68.7873 69.6039 68.837 68.2603 68.8702C67.7792 68.8868 67.3147 68.9034 66.8503 68.9034C66.701 68.9034 66.5351 68.92 66.3858 68.9034C66.3029 68.9034 66.1536 68.8702 66.2697 68.9034C65.8218 68.7209 65.6227 69.4674 66.0706 69.6499Z" fill="#1D1819"/>
<path d="M76.4382 74.7424C75.2273 74.842 73.9998 74.9415 72.7722 75.041C72.6064 75.0576 72.4239 75.0742 72.2414 75.0742C72.0424 75.0908 71.8599 75.2401 71.8599 75.4723C71.8599 75.6714 72.0424 75.8704 72.2414 75.8538C73.469 75.7543 74.6965 75.6548 75.9074 75.5552C76.0899 75.5387 76.2723 75.5221 76.4382 75.5055C76.6539 75.4889 76.8363 75.3562 76.8363 75.124C76.8363 74.9249 76.6539 74.7258 76.4382 74.7424Z" fill="#1D1819"/>
<path d="M75.9406 76.0363C74.8955 76.6667 73.7676 76.9985 72.6396 77.4297C71.8931 77.7117 71.3623 77.9108 70.848 78.5246C70.4167 79.0554 70.4167 79.1383 69.803 79.4867C68.8906 79.9843 67.9119 80.3327 66.9001 80.5483C65.2412 80.9133 63.4995 80.8801 61.8407 80.5151C61.2767 80.399 60.862 80.1502 60.3311 80.3493C59.3027 80.7308 58.3074 81.1787 57.2955 81.5768C53.1485 83.2356 48.9848 84.8281 44.7714 86.2878C40.2097 87.8803 35.5816 89.4562 30.8374 90.4017C29.8587 90.6007 28.8468 90.7832 27.8349 90.8496C26.2259 90.9491 25.5789 89.6718 24.932 88.4609C23.4391 85.6409 22.7424 82.4891 22.3111 79.354C22.2447 78.8563 21.4983 79.072 21.5646 79.553C21.9793 82.5223 22.6263 85.4916 23.9367 88.2121C24.3348 89.0083 24.7495 89.9372 25.3301 90.6173C26.1761 91.6126 27.3207 91.6956 28.5151 91.5463C33.1431 91.0154 37.6717 89.4893 42.0676 88.0296C46.7454 86.4703 51.3735 84.7451 55.9685 82.937C57.3287 82.4062 58.6723 81.8588 60.0326 81.2948C60.2316 81.2118 60.5468 81.0128 60.7624 80.9962C60.8122 80.9962 60.9781 81.0957 61.0278 81.1123C61.4591 81.245 61.907 81.328 62.3549 81.3943C63.2672 81.5436 64.1796 81.61 65.1085 81.5602C66.9332 81.4607 69.3551 80.9962 70.8149 79.7687C71.13 79.4867 71.4286 79.0886 71.6774 78.7402C71.8267 78.508 71.5116 78.7236 71.9097 78.5743C72.1419 78.4748 72.3741 78.3753 72.6064 78.2757C73.8671 77.7449 75.1444 77.4132 76.3221 76.6999C76.7534 76.4345 76.3553 75.7709 75.9406 76.0363Z" fill="#1D1819"/>
<path d="M82.692 68.3892C82.9906 68.8537 83.2062 69.3679 83.3389 69.8987C83.455 70.3632 83.4384 70.7779 83.3555 71.2589C83.3389 71.4248 83.3389 71.5244 83.3721 71.6902C83.4384 72.1547 83.4716 72.6358 83.4053 73.1002C83.3555 73.4486 83.256 73.7969 83.1067 74.0955C82.891 74.4936 82.6256 74.6927 82.2938 74.9581C82.0284 75.2069 82.0948 75.5719 81.9123 75.887C81.564 76.5174 80.9668 76.7994 80.436 77.2307C79.5568 77.9771 78.462 78.6738 77.2676 78.508C76.5875 78.425 75.924 78.3089 75.2605 78.143C74.6301 77.9937 73.8339 77.8279 73.3362 77.38C72.9713 77.0316 72.4239 77.579 72.7888 77.9274C73.5851 78.6573 74.8458 78.8729 75.8742 79.072C76.8032 79.2378 77.6658 79.4203 78.5947 79.1549C79.6895 78.8563 80.4692 78.143 81.3815 77.5127C82.0782 77.0482 82.891 76.2188 82.8744 75.2899C82.8247 75.406 82.7583 75.5221 82.692 75.6382C84.0356 74.7756 84.3674 73.15 84.1351 71.6571C84.1351 71.5907 84.102 71.4912 84.102 71.4248C84.102 71.3253 84.1351 71.3419 84.1185 71.3916C84.2015 70.8774 84.2347 70.4129 84.1351 69.8987C84.0024 69.2352 83.7204 68.5717 83.3555 68.0077C83.0735 67.593 82.41 67.9745 82.692 68.3892Z" fill="#1D1819"/>
<path d="M77.2676 71.8063C77.9312 72.0386 78.6445 72.2044 79.3578 72.304C80.635 72.503 81.9787 72.503 83.173 71.9556C83.6209 71.7566 83.2228 71.093 82.7749 71.2921C81.7299 71.7731 80.4526 71.7068 79.3412 71.5243C78.7108 71.4248 78.0805 71.2755 77.4667 71.0599C77.0022 70.894 76.8032 71.6404 77.2676 71.8063Z" fill="#1D1819"/>
<path d="M82.4929 74.9083C81.0332 75.0742 79.507 75.1406 78.0473 74.9415C77.6326 74.8752 77.1681 74.7922 76.8032 74.6263C76.6539 74.56 76.5212 74.477 76.4382 74.4107C76.3885 74.3443 76.3885 74.3443 76.3553 74.3112L76.3055 74.2282C76.5046 74.1784 76.3055 74.4273 76.3387 74.3112C76.3719 74.2116 76.3387 74.0955 76.3553 74.0292C76.4051 73.8467 76.4548 73.6808 76.5875 73.5481C76.77 73.3656 77.0022 73.349 77.2345 73.349C77.6326 73.349 78.0473 73.349 78.462 73.3325C78.8435 73.3159 79.225 73.3159 79.6066 73.2661C79.8388 73.2329 80.1208 73.2163 80.3365 73.0836C80.4194 73.0339 80.4028 73.0007 80.4857 72.9343C80.2037 73.15 80.3862 73.0339 80.436 73.0173C80.5521 72.9841 80.6848 72.9012 80.7843 72.8348C81.0663 72.6855 81.3483 72.503 81.5474 72.2376C81.8294 71.8395 81.1659 71.458 80.8839 71.8395C80.7346 72.022 80.436 72.1547 80.2369 72.2542C80.1706 72.304 80.071 72.3372 79.9881 72.3869C79.9549 72.4035 79.9881 72.3869 79.9052 72.4533C79.8056 72.5528 79.8222 72.5528 79.9217 72.4367C79.9549 72.4201 79.9549 72.4201 79.9052 72.4367C79.8388 72.4201 79.6895 72.4865 79.6066 72.4865C79.4407 72.5196 79.2914 72.5196 79.1255 72.5362C78.6942 72.5528 78.2629 72.5694 77.8482 72.5694C77.1681 72.586 76.4548 72.5196 75.9738 73.0836C75.7084 73.3988 75.5757 73.8467 75.5591 74.2448C75.5591 75.0576 76.6041 75.4226 77.2511 75.5719C78.2795 75.8041 79.3578 75.8207 80.4028 75.8041C81.0995 75.7875 81.7962 75.7543 82.4929 75.688C82.9906 75.6382 82.9906 74.8586 82.4929 74.9083Z" fill="#1D1819"/>
<path d="M80.6848 77.0648C80.8673 77.0316 80.6848 77.0482 80.6184 77.0316C80.5687 77.0316 80.5023 77.0316 80.4526 77.015C80.353 76.9984 80.5023 77.0316 80.436 77.015C80.3862 77.015 80.353 76.9984 80.3033 76.9984C79.8886 76.9321 79.4905 76.8657 79.0757 76.7828C78.1634 76.5837 77.1847 76.3515 76.3885 75.8539C76.2226 75.7377 76.1231 75.6714 75.9738 75.5055C76.0235 75.5553 75.9572 75.4557 75.9406 75.4391C75.924 75.4226 75.924 75.406 75.9074 75.3894C75.8742 75.323 75.924 75.4226 75.9074 75.3894C75.8908 75.3396 75.8908 75.3064 75.8742 75.2733C75.8576 75.2235 75.8742 75.2899 75.8742 75.2899C75.8742 75.2733 75.8742 75.2401 75.8742 75.2069C75.8908 74.7093 75.1112 74.7093 75.1112 75.2069C75.0946 76.2022 76.2392 76.6998 77.0188 76.9984C77.9809 77.3634 78.9928 77.579 80.0047 77.7283C80.2867 77.7615 80.6019 77.861 80.8839 77.8113C81.3649 77.7283 81.1659 76.9818 80.6848 77.0648Z" fill="#1D1819"/>
<path d="M77.0354 76.252C77.0022 76.252 76.9856 76.2686 76.9691 76.2686C76.9193 76.2686 77.1018 76.252 77.0188 76.252C77.0188 76.252 77.0022 76.2686 76.9856 76.2686C76.9525 76.2686 76.9193 76.2686 76.8861 76.2686C76.7036 76.3018 76.5378 76.3184 76.3553 76.3349C76.1562 76.3515 75.9738 76.3681 75.7747 76.3681C75.6918 76.3681 75.6254 76.3847 75.5425 76.3681C75.5259 76.3681 75.5093 76.3681 75.4927 76.3681C75.4429 76.3681 75.6254 76.3847 75.5425 76.3681C75.5093 76.3681 75.4264 76.3349 75.5756 76.4013C75.3932 76.3184 75.1444 76.3349 75.0448 76.534C74.9619 76.6999 74.9951 76.9653 75.1775 77.0648C75.4595 77.1809 75.7747 77.1478 76.0567 77.1312C76.3553 77.1146 76.6539 77.0814 76.9525 77.0316C77.0354 77.0316 77.1349 77.0151 77.2345 76.9985C77.3174 76.9819 77.4169 76.8989 77.4667 76.816C77.5165 76.7331 77.533 76.6169 77.4999 76.534C77.4335 76.3018 77.2345 76.2188 77.0354 76.252Z" fill="#1D1819"/>
<path d="M79.8056 77.861C79.6895 78.143 79.5568 78.4084 79.4075 78.7568C79.0757 79.5033 78.6942 80.2663 78.3127 80.9962C77.3008 82.9038 76.1396 84.8115 74.5638 86.3044C73.8339 87.0011 72.9381 87.6646 71.8931 87.7807C71.412 87.8305 71.412 88.5936 71.8931 88.5438C74.0164 88.3282 75.5922 86.5366 76.7866 84.9276C78.0473 83.219 79.0757 81.3279 79.9715 79.3871C80.1706 78.9558 80.3696 78.508 80.5355 78.0601C80.7346 77.5956 79.9881 77.3966 79.8056 77.861Z" fill="#1D1819"/>
<path d="M46.2644 25.8903C44.4065 26.106 43.4941 24.9614 43.2453 23.2362C43.0463 21.8096 43.0131 19.7029 43.7761 18.4422C44.1245 17.8782 44.788 17.3308 45.4847 17.3474C46.2312 17.3474 46.8118 18.0607 47.1435 18.6579C47.8237 19.9518 47.4587 21.3452 47.3094 22.6888C47.1767 23.7836 46.8449 25.4259 47.3426 26.4875C47.5417 26.8856 47.9398 27.0681 48.3545 26.8193C48.7028 26.6202 48.7526 26.305 48.8355 25.9401C49.1341 24.5964 49.4327 23.2362 49.8308 21.9092C50.0631 21.1461 50.7598 20.8309 51.4399 20.3167C52.6176 19.4541 53.7788 18.5749 54.9566 17.7124C55.3381 17.4304 55.7196 17.1649 56.0846 16.8829C56.4329 16.6175 56.5158 16.2858 56.7481 15.9208C58.4401 13.2336 62.6369 14.4279 65.0422 15.2241C66.1204 15.5891 67.1654 16.037 68.2271 16.4682C68.8077 16.7005 69.3551 16.8664 69.4878 17.5962C69.5707 17.9612 69.521 18.3427 69.4878 18.7076C69.2556 21.6272 68.7413 24.5467 68.028 27.3833C67.4806 29.5729 66.8005 31.7459 65.8716 33.8195C64.9592 35.8598 63.881 37.9499 61.9568 39.2106C60.1487 40.405 57.9258 40.8031 55.8026 40.4215C53.447 39.9903 51.6555 38.713 50.1626 36.8717C49.3166 35.8432 48.6199 34.6986 48.0393 33.4877C47.8237 33.0398 47.1601 33.4379 47.3758 33.8858C48.4872 36.1584 50.0796 38.4641 52.2361 39.8741C54.011 41.0353 56.35 41.5164 58.4567 41.2675C60.5799 41.0353 62.5705 40.04 63.9971 38.4641C65.5398 36.7556 66.5019 34.4664 67.2981 32.3431C68.7745 28.4781 69.6205 24.3974 70.1015 20.3167C70.2011 19.4873 70.367 18.5584 70.284 17.7289C70.1513 16.2526 69.0731 15.9872 67.9119 15.5061C65.1915 14.3781 61.9733 13.0843 58.9543 13.6483C57.395 13.9468 56.5324 14.826 55.7694 16.1365C55.8523 16.0038 55.8357 16.1033 55.703 16.2194C55.5206 16.3521 55.3215 16.4848 55.139 16.6175C54.5419 17.0654 53.9447 17.4967 53.3475 17.9446C52.1863 18.8072 51.0252 19.6698 49.864 20.5489C49.0678 21.1627 48.9682 22.075 48.7194 23.0372C48.5369 23.8168 48.3545 24.5964 48.172 25.3761C48.1222 25.5917 48.0393 25.8406 48.0061 26.0728C47.9895 26.305 48.0393 26.0894 48.0559 26.0728C47.9398 26.2387 47.9729 26.1557 47.9729 26.1723C47.9895 26.106 48.0227 26.3216 48.0393 26.1391C48.0559 26.0064 47.9564 25.7576 47.9398 25.6083C47.7407 23.5016 48.7194 21.2954 48.172 19.2219C47.6246 17.1318 45.435 15.6222 43.6103 17.4304C42.4159 18.6247 42.3496 20.6485 42.3993 22.2575C42.4325 23.6675 42.7145 25.3927 43.9918 26.2387C44.6719 26.6866 45.4681 26.7529 46.2644 26.6534C46.7454 26.587 46.7454 25.824 46.2644 25.8903Z" fill="#1D1819"/>
<path d="M70.1845 18.2266C72.341 15.9706 74.1657 12.2714 72.5898 9.21922C72.1419 8.32346 70.5826 6.01771 69.4049 7.32817C68.8243 7.97511 68.7081 9.06993 68.675 9.91593C68.6584 10.4136 69.4214 10.397 69.4546 9.91593C69.5873 8.07464 69.72 5.4703 68.6086 3.89443C68.028 3.09819 66.7176 2.83278 66.0043 3.6456C65.4735 4.25937 65.5564 5.25465 65.8052 5.98453C66.0209 5.85183 66.2365 5.73571 66.4356 5.60301C64.9924 4.24278 63.3336 3.03184 61.6084 2.03655C59.087 0.576794 55.786 -0.750258 52.8996 0.493853C52.1863 0.79244 51.5394 1.25691 51.0086 1.82091C50.9588 1.85408 50.6436 2.31855 50.8925 2.13608C50.8593 2.15267 50.7929 2.13608 50.7598 2.15267C50.6768 2.18585 50.5607 2.18585 50.4778 2.20243C49.5322 2.36832 48.6199 2.68349 47.7407 3.06502C44.6719 4.42525 42.5984 7.02959 42.2003 10.3804C41.9017 12.935 41.8187 15.5559 42.051 18.1105C42.1339 18.9896 42.2169 19.902 42.4657 20.748C42.5984 21.2291 43.3449 21.03 43.2121 20.5489C42.5486 18.2764 42.6316 15.6554 42.7477 13.3165C42.8472 11.16 42.9467 8.90405 44.1245 7.02959C44.9207 5.7523 46.0985 4.7736 47.409 4.0769C48.3213 3.61243 49.2834 3.24749 50.2787 3.03184C50.5109 2.98208 50.7432 2.96549 50.9588 2.89914C50.8261 2.93231 51.1413 2.79961 51.2242 2.71667C51.5394 2.46784 51.7716 2.11949 52.0702 1.87067C54.575 -0.136497 58.0254 0.991498 60.5468 2.33514C62.471 3.3636 64.3123 4.65748 65.9047 6.15042C66.1702 6.39924 66.6678 6.15042 66.5351 5.76889C66.3858 5.30442 66.2033 4.45842 66.6346 4.09348C67.6133 3.26408 68.2603 4.79019 68.4261 5.4703C68.7911 6.88029 68.7911 8.45617 68.675 9.91593C68.9404 9.91593 69.1892 9.91593 69.4546 9.91593C69.4712 9.30216 69.5376 8.5557 69.8527 8.02488C70.6158 6.74759 72.2082 10.1647 72.3244 10.7453C72.8386 13.217 71.2959 15.9374 69.6371 17.6792C69.2887 18.0441 69.8361 18.5915 70.1845 18.2266Z" fill="#1D1819"/>
<path d="M75.1444 69.2684C75.9738 68.5385 76.8032 67.8086 77.6326 67.0621C78.1302 66.6143 78.6445 66.1498 79.1587 65.7019C79.4573 65.4365 79.6563 65.1877 80.1042 65.1877C81.3981 65.1877 82.7086 65.3204 84.0024 65.3867C84.3176 65.3867 84.8484 65.3204 85.1636 65.4697C85.8769 65.8014 85.0143 66.3323 84.7157 66.5313C83.5877 67.2778 82.4431 68.0242 81.3151 68.7707C80.9004 69.0361 81.282 69.7162 81.6967 69.4342C82.8081 68.7044 83.9361 67.9745 85.0475 67.228C85.512 66.9294 86.0428 66.664 86.1589 66.0503C86.275 65.254 85.6612 64.7066 84.9314 64.6569C83.5048 64.5573 82.0616 64.5076 80.635 64.4412C80.0379 64.408 79.507 64.3749 79.0094 64.7896C78.6445 65.1047 78.2961 65.4365 77.9312 65.7683C76.8198 66.747 75.7084 67.7422 74.5969 68.7375C74.232 69.0693 74.7794 69.6001 75.1444 69.2684Z" fill="#1D1819"/>
<path d="M84.7655 65.8014C83.5711 65.7516 82.3934 65.7185 81.2156 65.6687C80.7512 65.6521 80.1706 65.5526 79.7393 65.7516C79.2582 65.9839 78.8269 66.4152 78.4122 66.7304C77.9146 67.1119 77.4335 67.4934 76.9359 67.8749C76.5544 68.1735 76.9359 68.837 77.3174 68.5385C78.18 67.8749 79.0094 67.1948 79.8886 66.5645C80.2203 66.3322 80.7014 66.4318 81.0829 66.4484C81.7962 66.4649 82.5095 66.4981 83.2228 66.5147C83.737 66.5313 84.2513 66.5479 84.7655 66.5645C85.2631 66.5976 85.2631 65.818 84.7655 65.8014Z" fill="#1D1819"/>
<path d="M69.6703 67.6096C68.8906 63.7279 68.111 59.8297 67.3147 55.9315C67.2152 55.3841 67.0991 54.8367 66.983 54.2727C66.8835 53.7916 66.1536 53.9907 66.2365 54.4717C67.0327 58.3699 67.8124 62.2682 68.592 66.1498C68.7081 66.7138 68.8243 67.2612 68.9238 67.8252C69.0233 68.3063 69.7698 68.1072 69.6703 67.6096Z" fill="#1D1819"/>
<path d="M19.5243 16.236C20.9509 19.5702 24.7993 21.1295 28.1335 19.7029C31.4677 18.2929 33.0104 14.4279 31.6004 11.0936C30.1739 7.75943 26.3254 6.21673 22.9912 7.62672C19.657 9.0533 18.0977 12.9018 19.5243 16.236Z" fill="#EC2029" stroke="#1D1819" stroke-width="0.352675"/>
<path d="M22.7755 12.0226C23.1737 12.9516 24.2519 13.3995 25.1808 13.0013C26.1098 12.6032 26.5411 11.525 26.1429 10.5961C25.7448 9.66712 24.6666 9.23583 23.7377 9.63395C22.8087 10.0321 22.3774 11.0937 22.7755 12.0226ZM29.4274 16.7005L28.598 14.7597C28.1003 13.5819 26.7235 13.0179 25.5458 13.5322C24.368 14.0298 23.8206 15.39 24.3182 16.5844L25.1477 18.5252C25.9273 18.5584 26.7235 18.4257 27.5032 18.1105C28.2662 17.7787 28.9132 17.2977 29.4274 16.7005Z" fill="white" stroke="#1D1819" stroke-width="0.352675"/>
<path d="M80.635 43.2747L80.5687 43.0922V43.0756C79.0923 39.4926 79.1919 35.6276 80.5355 32.2768C81.9123 28.8596 84.583 25.9733 88.2324 24.414L88.4315 24.3476C92.0311 22.8713 95.8796 22.9708 99.2304 24.3144C102.648 25.6913 105.534 28.3619 107.093 32.0113L107.176 32.2104C108.636 35.81 108.553 39.6585 107.193 43.0093C105.816 46.4265 103.145 49.3128 99.4958 50.8721L99.3133 50.955H99.2967C95.7137 52.4148 91.8486 52.3318 88.4978 50.9716C85.0807 49.5948 82.1943 46.9241 80.635 43.2747ZM82.4597 42.5116C83.8034 45.6634 86.2916 47.9691 89.2277 49.1469C92.1804 50.3413 95.581 50.4076 98.7327 49.064L98.7493 49.0474C101.884 47.7037 104.19 45.2155 105.368 42.2794C106.562 39.3267 106.629 35.9427 105.285 32.791L105.268 32.7744C103.925 29.6226 101.437 27.3169 98.5005 26.1391C95.5478 24.9448 92.1638 24.8784 89.0121 26.2221L88.9955 26.2387C85.8437 27.5823 83.538 30.0705 82.3602 33.0066C81.1659 35.9593 81.0995 39.3599 82.4431 42.5116H82.4597Z" fill="#EC2029" stroke="#1D1819" stroke-width="0.352675"/>
<path d="M102.565 38.348C102.548 38.4973 102.548 38.5637 102.531 38.6134C102.498 39.0281 102.266 39.2604 101.918 39.2438C101.536 39.2272 101.37 38.9618 101.354 38.5305C101.337 37.8006 101.37 37.0541 101.254 36.3408C100.657 32.9569 97.9033 30.3857 94.5027 29.9378C93.9719 29.8715 93.7563 29.6558 93.806 29.2577C93.8558 28.8762 94.1378 28.6937 94.652 28.7766C99.4128 29.4402 102.565 33.4379 102.565 37.7011C102.565 37.9499 102.565 38.1987 102.565 38.348Z" fill="#EC2029" stroke="#1D1819" stroke-width="0.352675"/>
<path d="M94.2539 31.7957C97.4388 32.2104 99.7446 35.0304 99.5289 38.2319C99.4958 38.7129 99.2635 38.9452 98.882 38.9286C98.5005 38.8954 98.318 38.6466 98.3512 38.1821C98.5005 35.5114 96.7421 33.3384 94.1046 32.9403C93.6236 32.8739 93.4411 32.6583 93.4909 32.2767C93.5406 31.9118 93.8226 31.7293 94.2539 31.7957Z" fill="#EC2029" stroke="#1D1819" stroke-width="0.352675"/>
<path d="M96.4767 37.9665C96.4435 38.4144 96.2445 38.63 95.8795 38.6135C95.498 38.5969 95.3321 38.3812 95.3321 37.9499C95.3487 36.8717 94.8013 36.2082 93.6899 35.9428C93.2254 35.8432 92.9932 35.4285 93.242 35.0968C93.3747 34.9309 93.6567 34.8148 93.8724 34.8314C95.3985 34.9475 96.6094 36.4072 96.4767 37.9665Z" fill="#EC2029" stroke="#1D1819" stroke-width="0.352675"/>
<path fill-rule="evenodd" clip-rule="evenodd" d="M85.429 37.3195C86.3082 40.3883 88.1495 42.8102 90.6377 44.7344C91.7823 45.6302 93.043 46.2937 94.8677 46.5094C95.5478 46.6089 96.4435 46.3767 97.2564 45.7131C97.6545 45.398 97.7208 45.0496 97.5384 44.6183C97.19 43.7226 96.6426 42.9761 95.8796 42.4121C95.1663 41.8979 95.0501 41.931 94.5027 42.5614C93.806 43.3742 92.96 43.3908 92.2965 42.578C91.0524 41.0519 89.7917 39.5092 88.5642 37.9499C88.3817 37.7342 88.249 37.4522 88.1992 37.1868C88.0831 36.5399 88.4481 36.0257 89.2609 35.7105C89.659 35.5446 89.7419 35.329 89.6092 34.9474C89.2443 33.8028 88.531 32.9071 87.4528 32.3265C87.2703 32.227 86.9219 32.227 86.7395 32.3265C86.0925 32.708 85.6281 33.272 85.3958 34.0019C85.0475 35.1133 85.1304 36.2247 85.429 37.3195Z" fill="#EC2029" stroke="#1D1819" stroke-width="0.352675"/>
</svg>
