<svg width="8" height="14" viewBox="0 0 8 14" fill="none" xmlns="http://www.w3.org/2000/svg">
<path d="M7.46668 11.7178V9.61945C7.46668 8.89891 7.168 8.21279 6.64695 7.73779L5.47148 6.66667L6.64695 5.59555C7.16803 5.12055 7.46668 4.43443 7.46668 3.71388V1.61555C7.77653 1.50055 8 1.195 8 0.833333C8 0.37388 7.64108 0 7.2 0H0.8C0.358925 0 0 0.37388 0 0.833333C0 1.195 0.223475 1.50055 0.533325 1.61555V3.71388C0.533325 4.43443 0.832 5.12055 1.35305 5.59555L2.52853 6.66667L1.35305 7.73779C0.831975 8.21279 0.533325 8.89891 0.533325 9.61945V11.7178C0.223475 11.8328 0 12.1383 0 12.5C0 12.9595 0.358925 13.3333 0.8 13.3333H7.2C7.64108 13.3333 8 12.9595 8 12.5C8 12.1383 7.77653 11.8328 7.46668 11.7178ZM6.93333 11.6667H1.06668V9.61945C1.06668 9.05891 1.2992 8.52557 1.704 8.15612L3.1088 6.87557C3.16693 6.82279 3.2 6.74669 3.2 6.66669C3.2 6.58669 3.16693 6.51057 3.1088 6.45781L1.704 5.17727C1.2992 4.80781 1.06668 4.27448 1.06668 3.71393V1.66667H6.93335V3.71388C6.93335 4.27443 6.70083 4.80776 6.29603 5.17721L4.89123 6.45776C4.83308 6.51055 4.8 6.58667 4.8 6.66667C4.8 6.74667 4.83308 6.82279 4.8912 6.87555L6.296 8.15609C6.70133 8.52555 6.93333 9.05888 6.93333 9.61943V11.6667Z" fill="#1E272E"/>
<path d="M6.34185 10.66L4.20853 7.8822C4.10721 7.75053 3.89333 7.75053 3.79201 7.8822L1.65869 10.66C1.59469 10.7433 1.58241 10.8578 1.62669 10.9539C1.67096 11.05 1.76429 11.1111 1.86669 11.1111H6.13335C6.23575 11.1111 6.32908 11.05 6.37388 10.9539C6.4181 10.8578 6.40585 10.7433 6.34185 10.66Z" fill="#1E272E"/>
<path d="M5.31312 4.61612C5.27204 4.51224 5.17444 4.44446 5.06672 4.44446H2.93339C2.82567 4.44446 2.72807 4.51224 2.68699 4.61612C2.64539 4.72 2.66832 4.83891 2.74459 4.91891L3.81127 6.03003C3.86354 6.08391 3.93179 6.11115 4.00007 6.11115C4.06834 6.11115 4.13659 6.08394 4.18887 6.03003L5.25554 4.91891C5.33177 4.83946 5.35472 4.72 5.31312 4.61612Z" fill="#1E272E"/>
</svg>
