<svg width="20" height="22" viewBox="0 0 20 22" fill="none" xmlns="http://www.w3.org/2000/svg">
<path d="M16.5663 15.5502C15.7269 15.5502 14.9759 15.8815 14.4016 16.4006L6.52711 11.8173C6.58233 11.5633 6.62651 11.3092 6.62651 11.0442C6.62651 10.7791 6.58233 10.5251 6.52711 10.2711L14.3133 5.73193C14.9096 6.28414 15.6938 6.62651 16.5663 6.62651C18.3996 6.62651 19.8795 5.14659 19.8795 3.31325C19.8795 1.47992 18.3996 0 16.5663 0C14.7329 0 13.253 1.47992 13.253 3.31325C13.253 3.57831 13.2972 3.83233 13.3524 4.08634L5.56626 8.6255C4.96988 8.07329 4.18574 7.73092 3.31325 7.73092C1.47992 7.73092 0 9.21084 0 11.0442C0 12.8775 1.47992 14.3574 3.31325 14.3574C4.18574 14.3574 4.96988 14.0151 5.56626 13.4629L13.4297 18.0572C13.3745 18.2892 13.3414 18.5321 13.3414 18.7751C13.3414 20.5532 14.7882 22 16.5663 22C18.3444 22 19.7912 20.5532 19.7912 18.7751C19.7912 16.997 18.3444 15.5502 16.5663 15.5502Z" fill="#1E272E"/>
</svg>
