<svg width="16" height="16" viewBox="0 0 16 16" fill="none" xmlns="http://www.w3.org/2000/svg">
<path d="M8 1.86622e-05C8.19657 1.86622e-05 8.38056 0.0388754 8.55313 0.116589C8.72368 0.18635 8.87861 0.289382 9.0089 0.419671C9.13919 0.549961 9.24222 0.704898 9.31198 0.875439C9.3897 1.04687 9.42855 1.23201 9.42855 1.42858C9.42855 1.62515 9.3897 1.80914 9.31198 1.98171C9.24232 2.15232 9.13936 2.30733 9.00913 2.43771C8.87757 2.56881 8.72299 2.67457 8.55313 2.74971C8.37768 2.82177 8.18967 2.85828 8 2.85713C7.80343 2.85713 7.61943 2.82171 7.44686 2.74971C7.10464 2.59757 6.831 2.32393 6.67887 1.98171C6.60681 1.80626 6.57029 1.61825 6.57144 1.42858C6.57144 1.23201 6.60687 1.04801 6.67887 0.875439C6.75544 0.702869 6.86058 0.55087 6.99086 0.419443C7.12229 0.289159 7.27429 0.187445 7.44686 0.116589C7.62082 0.0387566 7.80942 -0.000988187 8 1.86622e-05ZM1.86634 3.4377C1.86476 3.18645 1.93776 2.94037 2.0761 2.73063C2.21443 2.52088 2.41189 2.35689 2.64348 2.25943C2.80211 2.18878 2.97382 2.15227 3.14747 2.15227C3.32112 2.15227 3.49284 2.18878 3.65147 2.25943C3.80689 2.32457 3.94061 2.41714 4.05375 2.53599C4.1726 2.64914 4.26518 2.78285 4.33032 2.93713C4.40113 3.09592 4.43773 3.26784 4.43773 3.4417C4.43773 3.61556 4.40113 3.78748 4.33032 3.94627C4.20048 4.25192 3.95712 4.49528 3.65147 4.62512C3.32802 4.75704 2.96578 4.75704 2.64233 4.62512C2.49052 4.56154 2.3515 4.47093 2.23205 4.35769C2.1187 4.2379 2.02809 4.09849 1.96463 3.94627C1.899 3.78478 1.86561 3.61201 1.86634 3.4377V3.4377ZM1.14292 7.14281C1.29312 7.14013 1.44221 7.16895 1.58058 7.22742C1.71896 7.28588 1.84356 7.37268 1.94634 7.48223C2.05589 7.58502 2.1427 7.70961 2.20116 7.84799C2.25962 7.98637 2.28844 8.13546 2.28577 8.28565C2.28716 8.43878 2.2568 8.59054 2.19662 8.73136C2.07815 9.00324 1.86142 9.22037 1.58977 9.33936C1.4486 9.39969 1.29644 9.43005 1.14292 9.4285C0.989788 9.42989 0.838028 9.39954 0.69721 9.33936C0.562178 9.28092 0.43841 9.19931 0.331499 9.09822C0.230003 8.9914 0.148002 8.86762 0.0892158 8.73251C0.0288801 8.59133 -0.00147497 8.43917 7.38984e-05 8.28565C-0.00165044 8.13632 0.0268182 7.98817 0.0837708 7.85011C0.140723 7.71205 0.224986 7.58692 0.331499 7.48223C0.436437 7.37329 0.56256 7.28697 0.702106 7.2286C0.841652 7.17023 0.991667 7.14103 1.14292 7.14281V7.14281ZM2.15205 13.1336C2.15369 12.9381 2.21186 12.7472 2.31953 12.5839C2.4272 12.4207 2.57979 12.2921 2.7589 12.2136C2.88169 12.161 3.01388 12.1338 3.14747 12.1338C3.28106 12.1338 3.41326 12.161 3.53604 12.2136C3.66175 12.2673 3.76804 12.3393 3.85718 12.4285C3.99661 12.5701 4.09132 12.7497 4.12952 12.9447C4.16773 13.1398 4.14773 13.3418 4.07203 13.5256C3.96503 13.767 3.76807 13.9571 3.52305 14.0555C3.27802 14.1539 3.00428 14.1528 2.76005 14.0525C2.52535 13.9482 2.33735 13.761 2.23205 13.5267C2.17873 13.4026 2.1515 13.2687 2.15205 13.1336V13.1336ZM8 14.2856C8.23771 14.2856 8.43999 14.369 8.60685 14.5359C8.68781 14.6146 8.75179 14.709 8.79484 14.8134C8.83789 14.9178 8.85909 15.0298 8.85713 15.1427C8.85909 15.2556 8.83789 15.3677 8.79484 15.4721C8.75179 15.5764 8.68781 15.6709 8.60685 15.7496C8.52816 15.8305 8.43372 15.8945 8.32934 15.9376C8.22497 15.9806 8.11288 16.0018 8 15.9999C7.88711 16.0018 7.77502 15.9806 7.67065 15.9376C7.56628 15.8945 7.47183 15.8305 7.39315 15.7496C7.31218 15.6709 7.2482 15.5764 7.20515 15.4721C7.16211 15.3677 7.14091 15.2556 7.14286 15.1427C7.14286 14.905 7.22629 14.7027 7.39315 14.5359C7.47183 14.4549 7.56628 14.3909 7.67065 14.3479C7.77502 14.3048 7.88711 14.2836 8 14.2856V14.2856ZM12.1337 13.1336C12.1337 12.9313 12.2022 12.7622 12.3394 12.625C12.4765 12.4879 12.6457 12.4193 12.8479 12.4193C13.0502 12.4193 13.2205 12.4879 13.3565 12.625C13.4937 12.7622 13.5622 12.9313 13.5622 13.1336C13.5622 13.3359 13.4937 13.5062 13.3565 13.6422C13.2903 13.7093 13.211 13.7622 13.1235 13.7976C13.036 13.833 12.9423 13.8501 12.8479 13.8479C12.7536 13.8501 12.6599 13.833 12.5724 13.7976C12.4849 13.7622 12.4056 13.7093 12.3394 13.6422C12.2722 13.5759 12.2193 13.4966 12.1839 13.4092C12.1486 13.3217 12.1314 13.2279 12.1337 13.1336ZM14.8571 7.71423C14.9321 7.7134 15.0066 7.72798 15.0758 7.75708C15.145 7.78617 15.2074 7.82915 15.2594 7.88337C15.3136 7.93528 15.3566 7.99777 15.3856 8.06697C15.4147 8.13616 15.4293 8.21059 15.4285 8.28565C15.4293 8.36071 15.4147 8.43514 15.3856 8.50434C15.3566 8.57353 15.3136 8.63602 15.2594 8.68793C15.2074 8.74215 15.145 8.78514 15.0758 8.81423C15.0066 8.84332 14.9321 8.85791 14.8571 8.85708C14.782 8.85791 14.7076 8.84332 14.6384 8.81423C14.5692 8.78514 14.5067 8.74215 14.4548 8.68793C14.4006 8.63602 14.3576 8.57353 14.3285 8.50434C14.2994 8.43514 14.2848 8.36071 14.2856 8.28565C14.2848 8.21059 14.2994 8.13616 14.3285 8.06697C14.3576 7.99777 14.4006 7.93528 14.4548 7.88337C14.5067 7.82915 14.5692 7.78617 14.6384 7.75708C14.7076 7.72798 14.782 7.7134 14.8571 7.71423V7.71423ZM12.8479 1.86629C13.0628 1.86629 13.2651 1.90743 13.4548 1.992C13.8311 2.15482 14.1315 2.45472 14.2948 2.83085C14.3782 3.02056 14.4205 3.22284 14.4205 3.43656C14.4205 3.65141 14.3782 3.8537 14.2948 4.04455C14.1315 4.42068 13.8311 4.72058 13.4548 4.8834C13.2639 4.96702 13.0575 5.00983 12.8491 5.00911C12.6342 5.00911 12.432 4.96683 12.2411 4.8834C11.8653 4.72014 11.5655 4.42034 11.4022 4.04455C11.3185 3.85325 11.2757 3.64654 11.2765 3.4377C11.2765 3.22284 11.3188 3.02056 11.4022 2.83085C11.5651 2.4545 11.865 2.15419 12.2411 1.99086C12.432 1.90743 12.6342 1.86514 12.8479 1.86514V1.86629Z" fill="#747D8C"/>
</svg>
