<svg width="24" height="24" viewBox="0 0 24 24" fill="none" xmlns="http://www.w3.org/2000/svg">
<path d="M11.9991 0C18.6239 0 23.9943 5.37034 23.9943 11.9952C23.9943 18.62 18.6239 23.9903 11.9991 23.9903C5.37434 23.9903 0.0038147 18.62 0.0038147 11.9952C0.0038147 5.37034 5.37434 0 11.9991 0Z" fill="#00AED6"/>
<path fill-rule="evenodd" clip-rule="evenodd" d="M18.9964 11.6253C18.905 10.0987 17.6053 8.9282 16.0775 8.99632H8.50051C8.22447 8.99632 8.00075 8.77267 8.00075 8.49654C8.00075 8.22059 8.22447 7.99677 8.50051 7.99677H16.1775C16.1327 6.96212 15.4263 6.07413 14.4281 5.79765C12.1901 5.39797 9.89899 5.39797 7.66082 5.79765C6.38896 6.11027 5.43741 7.16873 5.26182 8.46665C4.91199 10.8194 4.91199 13.2109 5.26182 15.5638C5.52964 16.9371 6.62089 18.0004 8.00075 18.2326C10.7752 18.5826 13.5828 18.5826 16.3574 18.2326C17.5934 17.9822 18.5288 16.9661 18.6764 15.7136C18.9303 14.3663 19.0375 12.9957 18.9964 11.6253ZM16.4973 13.3047V13.7443C16.4973 14.0205 16.2736 14.2443 15.9975 14.2443C15.7215 14.2443 15.4978 14.0205 15.4978 13.7443V13.3047C15.3363 13.1638 15.2449 12.9591 15.2479 12.7448C15.2479 12.3309 15.5835 11.9951 15.9975 11.9951C16.4116 11.9951 16.7473 12.3309 16.7473 12.7448C16.745 12.958 16.6546 13.1606 16.4973 13.3047V13.3047Z" fill="white"/>
</svg>
