<svg width="160" height="160" viewBox="0 0 160 160" fill="none" xmlns="http://www.w3.org/2000/svg">
<path d="M80 160C124.183 160 160 124.183 160 80C160 35.8172 124.183 0 80 0C35.8172 0 0 35.8172 0 80C0 124.183 35.8172 160 80 160Z" fill="#F9D4DB"/>
<path d="M80 116.172C99.9772 116.172 116.172 99.9773 116.172 80.0001C116.172 60.0229 99.9772 43.8281 80 43.8281C60.0228 43.8281 43.828 60.0229 43.828 80.0001C43.828 99.9773 60.0228 116.172 80 116.172Z" fill="#EC2029" stroke="#1D1819" stroke-width="0.352581"/>
<path d="M58.3635 73.7865L73.4537 88.8766L101.637 60.8045L106.63 65.9085L73.4537 99.0847L68.3497 93.9807H68.4606L53.2595 78.8905L58.3635 73.7865Z" fill="#FEFEFE" stroke="#1D1819" stroke-width="0.352581"/>
</svg>
