<svg width="148" height="134" viewBox="0 0 148 134" fill="none" xmlns="http://www.w3.org/2000/svg">
<path fill-rule="evenodd" clip-rule="evenodd" d="M76.6429 21.3316C103.071 21.3316 127.423 29.2602 148 42.6633V133.653H0V46.4388C21.5204 30.5816 47.949 21.3316 76.6429 21.3316Z" fill="#F9D4DB"/>
<path d="M57.3878 102.316C63.9949 102.128 70.6021 102.128 77.2092 102.128C78.1531 102.128 79.097 102.128 80.0408 102.128C79.8521 102.316 79.8521 102.505 79.6633 102.694C75.8878 97.597 72.301 92.3113 68.5255 87.0255C67.9592 86.0817 67.3929 85.5153 66.2602 85.3266C65.8827 85.3266 65.5051 85.3266 65.3164 85.3266C63.8061 85.3266 62.1072 85.3266 60.597 85.3266C56.0664 85.5153 51.347 85.5153 46.8163 85.5153C44.7398 85.5153 42.6633 85.5153 40.5868 85.5153C40.0204 85.5153 39.2653 85.5153 38.5102 85.5153C38.1327 85.5153 37.7551 85.5153 37.3776 85.5153C36.8112 85.5153 37 85.8929 37.1888 86.2704C37.7551 87.2143 38.3214 87.9694 38.8878 88.9133C39.8317 90.6123 40.7755 92.3113 41.9082 93.8215C42.097 94.3878 41.3419 94.7653 41.1531 94.3878C40.2092 92.8776 39.2653 91.1786 38.3214 89.6684C37.7551 88.9133 37.1888 87.9694 36.6225 87.0255C36.2449 86.4592 35.8674 85.8929 36.0561 85.3266C36.4337 84.3827 37.9439 84.5715 38.699 84.5715C40.5868 84.5715 42.2857 84.5715 43.9847 84.5715C49.0817 84.5715 53.9898 84.5715 58.898 84.5715C60.7857 84.5715 62.6735 84.5715 64.5612 84.5715C65.5051 84.5715 66.6378 84.3827 67.5817 84.7602C68.7143 85.3266 69.4694 86.8368 70.2245 87.7806C71.1684 89.2908 72.301 90.801 73.4337 92.3113C75.699 95.7092 77.9643 98.9184 80.4184 102.316C80.6072 102.505 80.4184 102.883 80.0408 102.883C73.4337 102.883 66.8266 103.071 60.2194 103.071C59.2755 103.071 58.3317 103.071 57.3878 103.071C56.8215 103.071 56.8215 102.316 57.3878 102.316Z" fill="#1D1819"/>
<path d="M125.725 106.469C124.026 107.98 121.76 108.357 120.25 108.168C119.495 108.168 118.74 107.98 118.173 107.413C117.418 107.036 115.342 105.148 114.398 103.827C114.209 103.638 114.02 103.638 114.02 103.449C114.776 103.071 115.531 102.694 115.719 101.939C115.719 101.939 117.985 101.184 117.985 99.4847C117.985 99.4847 120.061 99.1071 119.684 95.7092V95.1429H119.872C119.872 95.1429 121.76 95.898 122.704 96.0867C123.648 96.4643 127.046 98.5408 127.801 100.051C128.367 101.184 128.179 103.449 126.668 105.337C126.291 105.714 126.102 106.092 125.725 106.469Z" fill="white"/>
<path d="M114.964 89.1021L116.663 88.9133C117.23 88.9133 117.796 89.6684 117.607 90.2347L116.097 94.0102V94.199C114.398 93.8214 110.811 93.0663 109.49 93.2551C107.791 93.4439 108.546 95.5204 108.546 95.5204L106.847 94.9541C106.469 94.7653 106.092 94.5765 105.714 94.3878C105.526 94.3878 105.526 94.3878 105.337 94.3878L105.526 94.199L106.847 90.0459C107.036 89.6684 107.602 89.2908 108.168 89.2908L114.964 89.1021Z" fill="white"/>
<path d="M129.689 99.1072C129.689 99.1072 130.066 102.316 126.668 105.337C128.179 103.449 128.367 101.184 127.801 100.051C127.046 98.5409 123.648 96.4643 122.704 96.0868C121.76 95.898 119.872 95.1429 119.872 95.1429H119.684L118.929 91.1786L118.551 89.1021C118.362 88.7245 117.985 88.347 117.418 88.347C116.663 88.347 115.531 88.347 114.964 88.9133V89.1021L108.168 89.2909C107.602 89.2909 107.036 89.6684 106.847 90.046L105.526 94.199L105.337 94.3878C104.393 94.0102 104.015 94.7653 104.015 94.7653C101.939 94.5766 102.316 96.0868 102.316 96.0868L102.883 96.8419C102.316 97.0307 102.316 97.597 102.316 97.597C102.316 97.597 104.393 103.638 110.622 104.582C111.189 104.582 111.755 104.393 112.321 104.204L113.077 103.827C113.077 103.827 113.454 103.638 114.02 103.449C114.02 103.638 114.209 103.638 114.398 103.827L115.531 133.653H58.898C60.0306 123.459 61.7296 109.867 62.2959 104.77C62.2959 103.449 62.4847 102.694 62.4847 102.694L80.2296 102.505L80.4184 101.372C80.6072 100.429 80.4184 99.296 79.8521 98.5409L69.847 84.1939C69.0919 83.25 68.148 82.6837 67.0153 82.6837L51.7245 82.8725C51.7245 82.8725 52.2908 76.6429 54.9337 67.3929C57.3878 58.1429 72.4898 50.2143 72.4898 50.2143C72.8674 50.0255 73.8112 49.4592 74.9439 49.0817C74.9439 49.2704 75.1327 49.4592 75.1327 49.648C77.2092 54.5562 82.1174 57.5766 87.4031 57.7653C90.2347 57.9541 93.6327 57.5766 95.7092 55.6888C95.7092 55.6888 99.6735 53.046 101.184 49.2704L102.128 49.648C103.071 49.8368 104.015 50.2143 104.959 50.5919C109.112 52.6684 120.25 58.5204 123.459 67.3929C123.459 67.3929 130.444 93.8215 129.689 99.1072Z" fill="#EC2029"/>
<path d="M117.607 90.2347C117.796 89.6684 117.23 88.9133 116.663 88.9133L114.964 89.1021V88.9133C115.531 88.347 116.663 88.347 117.418 88.347C117.985 88.347 118.362 88.7245 118.551 89.1021L118.929 91.1786L119.684 95.1429V95.7092C120.061 99.1072 117.985 99.4847 117.985 99.4847C117.985 101.184 115.719 101.939 115.719 101.939C115.531 102.694 114.776 103.071 114.02 103.449C113.454 103.638 113.077 103.827 113.077 103.827L112.321 104.204C111.755 104.393 111.189 104.582 110.622 104.582C104.393 103.638 102.316 97.597 102.316 97.597C102.316 97.597 102.316 97.0306 102.883 96.8419L102.316 96.0868C102.316 96.0868 101.939 94.5766 104.015 94.7653C104.015 94.7653 104.393 94.0102 105.337 94.3878C105.526 94.3878 105.526 94.3878 105.714 94.3878C106.092 94.5766 106.469 94.7653 106.847 94.9541L108.546 95.5204C108.546 95.5204 107.791 93.4439 109.49 93.2551C110.811 93.0663 114.398 93.8215 116.097 94.199V94.0102L117.607 90.2347Z" fill="white"/>
<path d="M87.2143 13.0255C87.2143 13.2143 86.4592 13.5919 85.7041 14.1582C86.648 13.5919 87.2143 13.2143 87.2143 13.0255ZM100.429 24.7296C100.429 26.2398 98.9184 27.5612 99.1072 26.2398C99.2959 25.1072 98.7296 14.7245 98.7296 14.7245C98.7296 14.7245 97.0306 13.0255 97.0306 11.5153C97.0306 11.5153 90.9898 16.0459 86.648 16.0459C84.0051 16.0459 84.7602 15.1021 85.7041 14.1582C83.6276 15.6684 79.4745 18.1225 75.699 18.8776C75.699 21.7092 75.699 25.4847 76.2653 27.1837C76.2653 27.1837 75.699 28.3163 74.9439 26.4286C74.5663 25.4847 74.1888 23.7857 74 22.0868C74 22.0868 74 21.898 74 21.7092C73.8112 20.5765 73.0561 19.4439 71.9235 19.0663C71.3572 18.6888 70.9796 18.3112 71.1684 17.5561C71.5459 15.6684 70.4133 10.0051 74.9439 7.55104C79.4745 4.90818 84.1939 -3.58672 97.597 2.64287L98.3521 5.28573C98.3521 5.28573 104.393 10.5714 103.827 16.801C103.827 16.801 104.204 18.3112 102.505 18.5C101.372 18.8776 100.617 19.8214 100.617 20.9541C100.617 20.9541 100.617 21.1429 100.617 21.3317C100.617 23.2194 100.429 24.7296 100.429 24.7296Z" fill="black"/>
<path d="M93.0663 23.597C93.2551 23.597 93.8214 23.597 94.0102 23.7857C94.3878 23.7857 94.9541 24.3521 94.5765 24.9184C94.199 25.1072 93.4439 25.2959 92.6888 25.2959C92.3112 25.2959 92.1225 25.1072 91.9337 24.9184C91.9337 24.7296 91.9337 24.3521 92.1225 24.1633C92.3112 23.9745 92.6888 23.7857 93.0663 23.597Z" fill="black"/>
<path d="M95.7092 20.7653C93.8214 20.3877 91.7449 20.7653 90.801 20.9541C90.801 21.1428 90.6123 20.9541 90.6123 20.7653C91.1786 19.0663 93.0663 18.8775 93.0663 18.8775C93.0663 18.8775 95.898 19.0663 95.898 20.5765C95.898 20.7653 95.898 20.9541 95.7092 20.7653Z" fill="black"/>
<path d="M82.8725 25.2959C82.1174 25.2959 81.5511 25.1071 81.1735 24.7296C80.7959 24.352 81.3623 23.7857 81.7398 23.5969C81.9286 23.5969 82.3062 23.4082 82.6837 23.5969C82.8725 23.7857 83.25 23.9745 83.4388 24.1633C83.6276 24.352 83.6276 24.5408 83.4388 24.9184C83.4388 25.1071 83.25 25.1071 82.8725 25.2959Z" fill="black"/>
<path d="M80.0408 20.5765C80.6071 19.8214 81.551 18.6888 82.6837 18.8776C82.6837 18.8776 84.3827 19.0663 84.949 20.7653C84.949 20.9541 84.949 20.9541 84.7602 20.9541C84.0051 20.7653 81.9286 20.199 80.2296 20.7653C80.0408 20.7653 80.0408 20.5765 80.0408 20.5765Z" fill="black"/>
<path d="M101.184 49.2704C99.6735 53.0459 95.7092 55.6888 95.7092 55.6888C93.6327 57.5766 90.2347 57.9541 87.4031 57.7653C82.1174 57.5766 77.2092 54.5561 75.1327 49.648C75.1327 49.4592 74.9439 49.2704 74.9439 49.0817C75.5102 48.7041 76.2653 48.3266 76.8316 48.1378C77.7755 52.4796 81.3623 54.5561 81.3623 54.5561C81.3623 54.5561 89.8572 59.4643 97.2194 52.2908C97.2194 52.2908 99.1072 49.8368 99.2959 48.5153L101.184 49.2704Z" fill="#D84652"/>
<path d="M102.316 24.9184C101.75 31.148 99.2959 30.9592 99.2959 30.9592C98.7296 34.5459 97.4082 37 96.2755 38.699C96.2755 38.699 95.1429 46.0612 98.3521 48.3266L99.2959 48.5153C99.1072 49.8368 97.2194 52.2908 97.2194 52.2908C89.8572 59.4643 81.3623 54.5561 81.3623 54.5561C81.3623 54.5561 77.7755 52.4796 76.8316 48.1378C77.398 47.7602 77.7755 47.5715 77.7755 47.5715C80.0408 45.8725 79.8521 38.699 79.8521 38.699C77.0204 35.4898 76.4541 31.5255 76.4541 31.5255C74.9439 32.0919 72.6786 28.6939 72.301 25.1072C71.9235 21.5204 74 22.0868 74 22.0868C74.1888 23.7857 74.5663 25.4847 74.9439 26.4286C75.699 28.3163 76.2653 27.1837 76.2653 27.1837C75.699 25.4847 75.699 21.7092 75.699 18.8776C79.4745 18.1225 83.6276 15.6684 85.7041 14.1582C84.7602 15.1021 84.0051 16.0459 86.648 16.0459C90.9898 16.0459 97.0306 11.5153 97.0306 11.5153C97.0306 13.0255 98.7296 14.7245 98.7296 14.7245C98.7296 14.7245 99.2959 25.1072 99.1072 26.2398C98.9184 27.5612 100.429 26.2398 100.429 24.7296C100.429 24.7296 100.617 23.2194 100.617 21.3317H100.806C103.449 20.199 102.316 24.9184 102.316 24.9184Z" fill="white"/>
<path d="M62.4847 102.694C62.4847 102.694 62.2959 103.449 62.2959 104.77L59.6531 109.112C59.2755 109.867 58.7092 110.434 58.1429 111.189C57.0102 112.51 56.2551 113.077 56.2551 113.077C52.2908 115.908 46.8163 108.735 46.8163 108.735L54.9337 104.959C55.3112 104.77 55.6888 104.582 56.0663 104.204C56.2551 103.827 56.2551 103.638 56.2551 103.26L56.8214 102.883C57.0102 102.883 57.199 102.694 57.3878 102.694H62.4847Z" fill="white"/>
<path d="M54.9337 104.959L46.8163 108.735C46.4388 108.924 46.0612 109.112 45.6837 108.924C44.9286 108.735 43.7959 108.357 43.2296 107.225L41.5306 105.526C41.5306 105.526 41.153 104.959 41.3418 103.827C41.3418 103.638 41.153 103.26 40.9643 103.26C40.5867 102.883 39.8316 102.505 39.8316 102.128C39.8316 101.561 40.0204 100.806 40.0204 100.24C40.0204 100.051 40.0204 99.8623 39.8316 99.6735C39.4541 98.7296 38.1326 95.1429 40.3979 94.3878C40.7755 94.199 41.153 94.199 41.5306 94.199C43.9847 93.8215 46.8163 94.5766 46.8163 95.1429C46.8163 95.1429 47.5714 96.8419 45.3061 97.2194L43.2296 97.597L43.9847 98.7296L54.1786 98.5408C54.7449 98.5408 55.1224 98.5408 55.5 98.9184C55.8775 99.1072 56.0663 99.4847 56.0663 100.051C55.8775 100.24 55.6888 100.429 55.5 100.617C55.8775 100.617 56.4439 100.429 56.8214 100.429C57.3877 100.429 57.7653 100.995 57.7653 101.561C57.7653 101.939 57.5765 102.316 57.3877 102.694C57.199 102.694 57.0102 102.883 56.8214 102.883L56.2551 103.26C56.2551 103.638 56.2551 103.827 56.0663 104.204C55.6888 104.582 55.3112 104.77 54.9337 104.959Z" fill="white"/>
<path d="M45.3061 97.2194C47.5715 96.8419 46.8164 95.1429 46.8164 95.1429C46.8164 94.5766 43.9847 93.8215 41.5306 94.199L36.6225 86.0817C36.4337 85.7041 36.6225 85.3266 36.8112 85.1378C36.8112 85.1378 37 85.1378 37.1888 85.1378L66.449 84.949C67.2041 84.949 67.9592 85.3266 68.5255 86.0817C70.6021 89.1021 76.6429 97.7857 80.2296 102.505L62.4847 102.694H57.3878C57.5766 102.316 57.7653 101.939 57.7653 101.561C57.7653 100.995 57.3878 100.429 56.8215 100.429C56.4439 100.429 55.8776 100.617 55.5 100.617C55.6888 100.429 55.8776 100.24 56.0664 100.051C56.0664 99.4847 55.8776 99.1072 55.5 98.9184C55.1225 98.5408 54.7449 98.5408 54.1786 98.5408L43.9847 98.7296L43.2296 97.597L45.3061 97.2194Z" fill="white"/>
<path d="M80.2296 102.505C76.6429 97.7857 70.602 89.1021 68.5255 86.0816C67.9592 85.3265 67.2041 84.949 66.449 84.949L37.1888 85.1378C37 85.1378 36.8112 85.1378 36.8112 85.1378L37.1888 84.7602C37.3775 84.3827 37.5663 84.0051 37.9439 83.6276C38.3214 83.25 38.699 83.0612 39.2653 83.0612L51.7245 82.8725L67.0153 82.6837C68.148 82.6837 69.0918 83.25 69.8469 84.1939L79.852 98.5408C80.4184 99.2959 80.6071 100.429 80.4184 101.372L80.2296 102.505Z" fill="white"/>
<path d="M74 22.0867C74 22.0867 71.9235 21.5204 72.301 25.1071C72.6786 28.6939 74.9439 32.0918 76.4541 31.5255C76.4541 31.5255 77.0204 35.4898 79.8521 38.699C81.3623 40.2092 83.25 41.3418 85.8929 41.9082" stroke="#231F1F" stroke-width="0.0787585"/>
<path d="M91.5562 41.9082C91.5562 41.9082 94.0102 41.5306 96.2755 38.699C97.4082 37 98.7296 34.5459 99.296 30.9592C99.296 30.9592 101.75 31.148 102.316 24.9184C102.316 24.9184 103.449 20.199 100.806 21.3316" stroke="#231F1F" stroke-width="0.0787585"/>
<path d="M79.8521 38.699C79.8521 38.699 80.0408 45.8724 77.7755 47.5714C77.7755 47.5714 77.398 47.7602 76.8317 48.1378C76.2653 48.3265 75.5102 48.7041 74.9439 49.0816C73.8113 49.4592 72.8674 50.0255 72.4898 50.2143" stroke="#231F1F" stroke-width="0.0787585"/>
<path d="M42.4745 98.9184L43.9847 98.7296L54.1786 98.5408" stroke="#231F1F" stroke-width="0.0787585"/>
<path d="M54.1786 98.5408C54.7449 98.5408 55.1225 98.5408 55.5 98.9184C55.8776 99.1071 56.0664 99.4847 56.0664 100.051C55.8776 100.24 55.6888 100.429 55.5 100.617C55.3113 100.806 55.1225 100.806 54.9337 100.806" stroke="#231F1F" stroke-width="0.0787585"/>
<path d="M54.9337 100.806L44.3622 102.694" stroke="#231F1F" stroke-width="0.0787585"/>
<path d="M44.9286 105.903L50.2143 105.337" stroke="#231F1F" stroke-width="0.0787585"/>
<path d="M50.2143 105.337C50.5918 105.148 50.9694 105.148 51.1582 104.959" stroke="#231F1F" stroke-width="0.0787585"/>
<path d="M51.1582 104.959L56.2551 103.26L56.8215 102.883" stroke="#231F1F" stroke-width="0.0787585"/>
<path d="M56.8214 102.883C57.0102 102.883 57.199 102.694 57.3878 102.694C57.5765 102.316 57.7653 101.939 57.7653 101.561C57.7653 100.995 57.3878 100.429 56.8214 100.429C56.4439 100.429 55.8776 100.617 55.5 100.617" stroke="#231F1F" stroke-width="0.0787585"/>
<path d="M56.2551 103.26C56.2551 103.638 56.2551 103.827 56.0663 104.204C55.6888 104.582 55.3112 104.77 54.9336 104.959" stroke="#231F1F" stroke-width="0.0787585"/>
<path d="M54.9337 104.959L46.8163 108.735" stroke="#231F1F" stroke-width="0.0787585"/>
<path d="M46.8164 108.735C46.4388 108.923 46.0613 109.112 45.6837 108.923C44.9286 108.735 43.796 108.357 43.2296 107.224" stroke="#231F1F" stroke-width="0.0787585"/>
<path d="M43.2296 107.225L41.5306 105.526" stroke="#231F1F" stroke-width="0.0787585"/>
<path d="M41.5306 105.526C41.5306 105.526 41.153 104.959 41.3418 103.827C41.3418 103.638 41.153 103.26 40.9643 103.26C40.5867 102.883 39.8316 102.505 39.8316 102.128C39.8316 101.561 40.0204 100.806 40.0204 100.24C40.0204 100.051 40.0204 99.8623 39.8316 99.6735C39.4541 98.7296 38.1326 95.1429 40.3979 94.3878C40.7755 94.199 41.153 94.199 41.5306 94.199C43.9847 93.8215 46.8163 94.5766 46.8163 95.1429C46.8163 95.1429 47.5714 96.8419 45.3061 97.2194" stroke="#231F1F" stroke-width="0.0787585"/>
<path d="M45.3061 97.2194L43.2296 97.5969L42.097 97.7857" stroke="#231F1F" stroke-width="0.0787585"/>
<path d="M57.3878 102.694H62.4847L80.2296 102.505" stroke="#231F1F" stroke-width="0.0787585"/>
<path d="M80.2296 102.505C76.6429 97.7857 70.602 89.1021 68.5255 86.0817C67.9592 85.3266 67.2041 84.949 66.449 84.949" stroke="#231F1F" stroke-width="0.0787585"/>
<path d="M66.449 84.949L37.1888 85.1378" stroke="#231F1F" stroke-width="0.0787585"/>
<path d="M37.1888 85.1378C37 85.1378 36.8112 85.1378 36.8112 85.1378C36.6225 85.3266 36.4337 85.7041 36.6225 86.0817" stroke="#231F1F" stroke-width="0.0787585"/>
<path d="M36.6225 86.0816L41.5306 94.199" stroke="#231F1F" stroke-width="0.0787585"/>
<path d="M43.2296 97.597L43.9847 98.7296" stroke="#231F1F" stroke-width="0.0787585"/>
<path d="M117.985 95.1429L117.23 94.7653" stroke="#231F1F" stroke-width="0.0787585"/>
<path d="M117.23 94.7653C116.852 94.5765 116.663 94.3877 116.286 94.199C116.097 94.199 116.097 94.199 116.097 94.199C114.398 93.8214 110.811 93.0663 109.49 93.2551C107.791 93.4439 108.546 95.5204 108.546 95.5204" stroke="#231F1F" stroke-width="0.0787585"/>
<path d="M108.546 95.5205L106.847 94.9541" stroke="#231F1F" stroke-width="0.0787585"/>
<path d="M106.847 94.9541C106.469 94.7653 106.092 94.5766 105.714 94.3878C105.526 94.3878 105.526 94.3878 105.337 94.3878C104.393 94.0102 104.015 94.7653 104.015 94.7653C101.939 94.5766 102.316 96.0868 102.316 96.0868" stroke="#231F1F" stroke-width="0.0787585"/>
<path d="M102.316 96.0868L102.883 96.8419" stroke="#231F1F" stroke-width="0.0787585"/>
<path d="M102.883 96.8419C102.316 97.0306 102.316 97.597 102.316 97.597C102.316 97.597 104.393 103.638 110.622 104.582C111.189 104.582 111.755 104.393 112.321 104.204" stroke="#231F1F" stroke-width="0.0787585"/>
<path d="M112.321 104.204L113.077 103.827" stroke="#231F1F" stroke-width="0.0787585"/>
<path d="M113.077 103.827C113.077 103.827 113.454 103.638 114.02 103.449C114.776 103.071 115.531 102.694 115.719 101.939C115.719 101.939 117.985 101.184 117.985 99.4847C117.985 99.4847 120.061 99.1071 119.684 95.7092" stroke="#231F1F" stroke-width="0.0787585"/>
<path d="M119.684 95.7092V95.1429L118.929 91.1786L118.551 89.1021" stroke="#231F1F" stroke-width="0.0787585"/>
<path d="M118.551 89.1021C118.362 88.7245 117.985 88.347 117.418 88.347C116.663 88.347 115.531 88.347 114.964 88.9133" stroke="#231F1F" stroke-width="0.0787585"/>
<path d="M114.02 103.449C114.02 103.638 114.209 103.638 114.398 103.827C115.342 105.148 117.418 107.036 118.173 107.413C118.74 107.98 119.495 108.168 120.25 108.168C121.76 108.357 124.026 107.98 125.725 106.469C126.102 106.092 126.291 105.714 126.668 105.337C128.179 103.449 128.367 101.184 127.801 100.051C127.046 98.5408 123.648 96.4643 122.704 96.0867C121.76 95.898 119.872 95.1429 119.872 95.1429" stroke="#231F1F" stroke-width="0.0787585"/>
<path d="M122.704 107.791C124.403 107.036 125.725 106.281 126.668 105.337C130.066 102.316 129.689 99.1072 129.689 99.1072C130.444 93.8215 123.459 67.3929 123.459 67.3929C120.25 58.5204 109.112 52.6684 104.959 50.5919C104.015 50.2143 103.071 49.8368 102.128 49.648" stroke="#231F1F" stroke-width="0.0787585"/>
<path d="M102.128 49.648L101.184 49.2704L99.296 48.5153L98.3521 48.3266" stroke="#231F1F" stroke-width="0.0787585"/>
<path d="M98.3521 48.3265C95.1429 46.0612 96.2755 38.699 96.2755 38.699" stroke="#231F1F" stroke-width="0.0787585"/>
<path d="M105.526 94.199L106.847 90.046" stroke="#231F1F" stroke-width="0.0787585"/>
<path d="M106.847 90.046C107.036 89.6684 107.602 89.2909 108.168 89.2909" stroke="#231F1F" stroke-width="0.0787585"/>
<path d="M108.168 89.2908L114.964 89.1021L116.663 88.9133" stroke="#231F1F" stroke-width="0.0787585"/>
<path d="M116.663 88.9133C117.23 88.9133 117.796 89.6684 117.607 90.2347" stroke="#231F1F" stroke-width="0.0787585"/>
<path d="M117.607 90.2347L116.097 94.0102" stroke="#231F1F" stroke-width="0.0787585"/>
<path d="M106.658 94.199L107.602 91.5561" stroke="#231F1F" stroke-width="0.0787585"/>
<path d="M107.602 91.5562C107.791 90.9898 108.357 90.6123 108.923 90.6123" stroke="#231F1F" stroke-width="0.0787585"/>
<path d="M108.923 90.6122L116.475 90.2347" stroke="#231F1F" stroke-width="0.0787585"/>
<path d="M115.342 97.9745C115.342 97.9745 109.49 96.2755 108.546 95.5204" stroke="#231F1F" stroke-width="0.0787585"/>
<path d="M104.015 94.7653C104.015 94.7653 103.638 95.3317 104.77 96.6531C106.092 97.9745 109.679 99.8623 109.679 99.8623" stroke="#231F1F" stroke-width="0.0787585"/>
<path d="M109.679 99.8623L112.699 100.617" stroke="#231F1F" stroke-width="0.0787585"/>
<path d="M102.883 96.8419C103.26 97.0306 107.036 101.372 108.168 101.75C109.301 102.128 110.811 102.694 110.811 102.694" stroke="#231F1F" stroke-width="0.0787585"/>
<path d="M72.4898 50.2143C72.4898 50.2143 57.3878 58.1429 54.9337 67.3929C52.2908 76.6429 51.7245 82.8725 51.7245 82.8725" stroke="#231F1F" stroke-width="0.0787585"/>
<path d="M114.398 103.827L115.531 133.653" stroke="#231F1F" stroke-width="0.0787585"/>
<path d="M58.898 133.653C60.0306 123.459 61.7296 109.867 62.2959 104.77C62.2959 103.449 62.4847 102.694 62.4847 102.694" stroke="#231F1F" stroke-width="0.0787585"/>
<path d="M114.02 88.9133C114.02 88.9133 114.964 68.3367 115.342 63.9949" stroke="#231F1F" stroke-width="0.0787585"/>
<path d="M118.929 91.1786C118.929 91.1786 122.893 86.4592 123.27 76.8316" stroke="#231F1F" stroke-width="0.0787585"/>
<path d="M61.7296 64.3725L62.4847 82.6837" stroke="#231F1F" stroke-width="0.0787585"/>
<path d="M46.8163 108.735C46.8163 108.735 52.2908 115.908 56.2551 113.077C56.2551 113.077 57.0102 112.51 58.1429 111.189C58.7092 110.434 59.2755 109.867 59.6531 109.112" stroke="#231F1F" stroke-width="0.0787585"/>
<path d="M59.6531 109.112L62.2959 104.77" stroke="#231F1F" stroke-width="0.0787585"/>
<path d="M76.8316 48.1378C77.7755 52.4796 81.3623 54.5561 81.3623 54.5561C81.3623 54.5561 89.8572 59.4643 97.2194 52.2908C97.2194 52.2908 99.1072 49.8368 99.2959 48.5153" stroke="#231F1F" stroke-width="0.0787585"/>
<path d="M101.184 49.2704C99.6735 53.046 95.7092 55.6888 95.7092 55.6888C93.6327 57.5766 90.2347 57.9541 87.4031 57.7653C82.1174 57.5766 77.2092 54.5562 75.1327 49.648C75.1327 49.4592 74.9439 49.2704 74.9439 49.0817" stroke="#231F1F" stroke-width="0.0787585"/>
<path d="M85.7041 14.1582C83.6276 15.6684 79.4745 18.1225 75.699 18.8776" stroke="#231F1F" stroke-width="0.0787585"/>
<path d="M87.4031 13.0255H87.2143C87.2143 13.2143 86.648 13.5919 85.7041 14.1582" stroke="#231F1F" stroke-width="0.0787585"/>
<path d="M85.7041 14.1582C86.4592 13.5919 87.2143 13.2143 87.2143 13.0255" stroke="#231F1F" stroke-width="0.0787585"/>
<path d="M75.699 15.2908C75.699 15.2908 75.699 16.801 75.699 18.8775C75.699 21.7092 75.699 25.4847 76.2653 27.1837C76.2653 27.1837 75.699 28.3163 74.9439 26.4286C74.5663 25.4847 74.1888 23.7857 74 22.0867" stroke="#231F1F" stroke-width="0.0787585"/>
<path d="M74 22.0868C74 22.0868 74 21.898 74 21.7092C73.8112 20.5765 73.0561 19.4439 71.9235 19.0663C71.3572 18.6888 70.9796 18.3112 71.1684 17.5561C71.5459 15.6684 70.4133 10.0051 74.9439 7.55104C79.4745 4.90818 84.1939 -3.58672 97.597 2.64287" stroke="#231F1F" stroke-width="0.0787585"/>
<path d="M97.597 2.64284L98.3521 5.2857" stroke="#231F1F" stroke-width="0.0787585"/>
<path d="M98.3521 5.28574C98.3521 5.28574 104.393 10.5715 103.827 16.8011C103.827 16.8011 104.204 18.3113 102.505 18.5" stroke="#231F1F" stroke-width="0.0787585"/>
<path d="M102.505 18.5C101.372 18.8776 100.617 19.8214 100.617 20.9541C100.617 20.9541 100.617 21.1429 100.617 21.3317C100.617 23.2194 100.429 24.7296 100.429 24.7296C100.429 26.2398 98.9184 27.5612 99.1072 26.2398C99.2959 25.1072 98.7296 14.7245 98.7296 14.7245C98.7296 14.7245 97.0306 13.0255 97.0306 11.5153C97.0306 11.5153 90.9898 16.0459 86.648 16.0459C84.0051 16.0459 84.7602 15.1021 85.7041 14.1582" stroke="#231F1F" stroke-width="0.0787585"/>
<path d="M36.8112 85.1378L37.1888 84.7602" stroke="#231F1F" stroke-width="0.0787585"/>
<path d="M37.1888 84.7602C37.3776 84.3826 37.5663 84.0051 37.9439 83.6275C38.3214 83.25 38.699 83.0612 39.2653 83.0612" stroke="#231F1F" stroke-width="0.0787585"/>
<path d="M39.2653 83.0612L51.7245 82.8725L67.0153 82.6837" stroke="#231F1F" stroke-width="0.0787585"/>
<path d="M67.0153 82.6837C68.1479 82.6837 69.0918 83.25 69.8469 84.1939" stroke="#231F1F" stroke-width="0.0787585"/>
<path d="M69.8469 84.1939L79.852 98.5408" stroke="#231F1F" stroke-width="0.0787585"/>
<path d="M79.8521 98.5408C80.4184 99.2959 80.6072 100.429 80.4184 101.372" stroke="#231F1F" stroke-width="0.0787585"/>
<path d="M80.4184 101.372L80.2296 102.505" stroke="#231F1F" stroke-width="0.0787585"/>
<path d="M73.6225 22.6531C72.301 22.0867 72.6786 24.7296 72.6786 25.2959C72.8674 26.8061 73.4337 28.1275 74 29.2602C74.3776 30.0153 75.3215 31.3367 76.2653 31.148C76.4541 31.148 76.8317 31.148 76.8317 31.5255C77.5868 36.2449 81.1735 40.5867 86.0817 41.5306C86.4592 41.5306 86.2704 42.4745 85.7041 42.2857C80.6072 41.3418 76.8317 36.8112 76.0766 31.7143C76.2653 31.7143 76.2653 31.9031 76.4541 31.9031C75.3215 32.2806 74.3776 31.3367 73.8113 30.5816C72.6786 29.0714 72.1123 27.1837 71.7347 25.2959C71.7347 23.9745 71.9235 21.1429 74 21.7092C74.3776 21.898 74.1888 22.6531 73.6225 22.6531Z" fill="#1D1819"/>
<path d="M91.3674 41.5306C92.5 41.3418 93.6327 40.5867 94.3878 39.8316C97.0306 37.5663 98.1633 34.1684 98.9184 30.7704C98.9184 30.5816 99.1072 30.3929 99.296 30.3929C100.617 30.5816 101.372 27.75 101.561 26.8061C101.75 25.6735 101.939 24.5408 102.128 23.5969C102.128 22.6531 102.128 21.1428 100.806 21.7092C100.24 21.898 100.051 21.1428 100.617 20.9541C103.638 19.6326 102.883 24.5408 102.505 26.051C102.316 27.75 101.939 29.6377 100.806 30.5816C100.429 30.9592 99.8623 31.3367 99.296 31.3367C99.4847 31.148 99.4847 31.148 99.6735 30.9592C99.1072 34.5459 97.7857 38.1326 94.9541 40.398C94.0102 41.3418 92.8776 42.0969 91.5562 42.2857C90.9898 42.4745 90.8011 41.5306 91.3674 41.5306Z" fill="#1D1819"/>
<path d="M80.2296 38.699C80.2296 40.5867 80.2296 42.6633 79.6633 44.551C79.4745 45.6837 79.0969 46.8163 78.1531 47.7602C77.5867 48.3265 76.6429 48.5153 75.8878 48.8928C74.7551 49.4592 73.6225 50.0255 72.6786 50.5918C72.1123 50.7806 71.7347 50.2143 72.1123 49.8367C73.0561 49.4592 74 48.8928 74.9439 48.5153C75.699 48.1377 76.6429 47.7602 77.398 47.1939C78.1531 46.8163 78.5306 45.4949 78.7194 44.551C79.0969 43.4184 79.2857 42.0969 79.2857 40.7755C79.4745 40.0204 79.4745 39.4541 79.4745 38.699C79.4745 38.1326 80.2296 38.1326 80.2296 38.699Z" fill="#1D1819"/>
<path d="M42.4745 98.3521C46.0613 98.3521 49.648 98.1633 53.4235 98.1633C54.1786 97.9745 54.9337 97.9745 55.6888 98.5408C56.8215 99.2959 56.2551 100.995 54.9337 101.372C53.2347 101.75 51.5357 101.939 49.8368 102.128C48.1378 102.505 46.25 102.883 44.3623 103.071C43.7959 103.26 43.6072 102.316 44.1735 102.316C47.3827 101.75 50.7806 101.184 54.1786 100.617C54.3674 100.617 54.5561 100.429 54.7449 100.429C55.3113 100.429 55.8776 99.6735 55.1225 99.2959C54.7449 98.7296 53.801 98.9184 53.2347 98.9184C51.1582 98.9184 49.2704 99.1072 47.1939 99.1072C45.6837 99.1072 43.9847 99.2959 42.4745 99.2959C41.9082 99.2959 41.9082 98.3521 42.4745 98.3521Z" fill="#1D1819"/>
<path d="M44.9286 105.526C46.6276 105.337 48.3266 105.148 50.2143 104.77C50.7806 104.77 51.5358 104.393 52.2909 104.204C53.4235 103.827 54.5562 103.26 55.6888 102.883C55.8776 102.883 56.2551 102.694 56.6327 102.505C57.0102 102.316 57.3878 101.939 57.3878 101.372C57.199 100.617 56.2551 100.995 55.6888 100.995C55.1225 101.184 54.7449 100.24 55.3113 100.24C56.2551 100.051 57.3878 99.8623 57.9541 100.806C58.5204 101.561 58.1429 102.505 57.3878 103.071C57.0102 103.26 56.6327 103.449 56.2551 103.638C55.6888 103.827 55.1225 104.015 54.5562 104.204C53.4235 104.582 52.4796 104.959 51.347 105.337C50.4031 105.714 49.4592 105.714 48.5153 105.903C47.1939 106.092 46.0613 106.281 44.9286 106.281C44.3623 106.469 44.3623 105.526 44.9286 105.526Z" fill="#1D1819"/>
<path d="M56.6326 103.26C56.8214 104.77 55.1224 105.337 53.9898 105.903C52.4796 106.658 51.1582 107.224 49.6479 107.98C48.7041 108.357 47.7602 108.735 46.8163 109.301C45.8724 109.49 44.9286 109.301 44.1735 108.923C43.4184 108.546 43.0408 107.791 42.4745 107.224C42.0969 106.658 41.5306 106.281 41.153 105.903C40.9643 105.714 40.9643 105.337 40.7755 105.148C40.5867 104.582 40.9643 103.827 40.3979 103.449C40.0204 103.071 39.6428 102.883 39.4541 102.505C39.2653 101.939 39.4541 101.372 39.4541 100.995C39.4541 100.051 39.0765 99.2959 38.8877 98.5408C38.5102 97.0306 38.3214 94.9541 39.8316 94.199C41.7194 93.2551 44.551 93.4439 46.25 94.199C47.5714 94.7653 47.5714 96.2755 46.6275 97.2194C45.8724 97.5969 45.1173 97.7857 44.3622 97.7857C43.6071 97.9745 42.852 98.1633 42.0969 98.1633C41.7194 98.352 41.3418 97.4082 41.9081 97.4082C42.852 97.2194 43.9847 97.0306 44.9286 96.8418C45.4949 96.8418 46.25 96.4643 46.4388 95.7092C46.4388 95.3316 46.4388 95.3316 46.0612 95.1428C45.4949 94.7653 44.3622 94.5765 43.4184 94.5765C42.4745 94.3877 41.153 94.3877 40.2092 94.9541C38.8877 95.5204 39.6428 97.7857 40.0204 98.9184C40.2092 99.6735 40.3979 100.24 40.2092 100.995C40.2092 101.561 40.2092 101.939 40.5867 102.316C40.7755 102.694 41.3418 102.883 41.5306 103.26C41.7194 103.638 41.5306 104.204 41.5306 104.582C41.5306 104.77 41.7194 104.959 41.7194 105.148C41.7194 105.148 41.9081 105.337 41.7194 105.337C42.0969 105.714 42.4745 106.092 42.852 106.469C43.4184 106.847 43.6071 107.413 44.1735 107.791C44.7398 108.357 45.6837 108.735 46.4388 108.357C47.1939 108.168 47.949 107.791 48.7041 107.413C50.2143 106.847 51.5357 106.092 52.8571 105.526C53.801 104.959 55.8775 104.393 55.6888 103.26C55.6888 102.694 56.4439 102.694 56.6326 103.26Z" fill="#1D1819"/>
<path d="M43.4184 97.4082C43.6071 97.7857 43.9847 98.1633 44.1735 98.352C44.1735 98.5408 44.1735 98.5408 44.1735 98.5408C44.3622 98.7296 44.3622 98.7296 44.3622 98.9184C44.1735 98.9184 44.1735 99.1071 44.1735 99.1071C43.9847 99.2959 43.7959 99.2959 43.7959 99.2959C43.6071 99.1071 43.6071 99.1071 43.4184 98.9184C43.2296 98.7296 43.0408 98.352 42.852 97.9745L42.6633 97.7857C42.6633 97.7857 42.6633 97.5969 42.6633 97.4082C42.6633 97.4082 42.6633 97.2194 42.852 97.2194C42.852 97.2194 43.0408 97.2194 43.2296 97.2194C43.2296 97.2194 43.4184 97.2194 43.4184 97.4082Z" fill="#1D1819"/>
<path d="M117.796 95.5204C117.041 95.1429 116.286 94.7653 115.531 94.5766C114.398 94.3878 113.265 94.0102 112.321 93.8215C111.378 93.8215 110.245 93.4439 109.301 93.6327C108.546 93.8215 108.735 94.7653 108.924 95.3317C109.112 95.7092 108.735 95.898 108.357 95.898C107.791 95.7092 107.225 95.5204 106.658 95.3317C106.281 95.1429 105.903 94.9541 105.337 94.7653C104.77 94.5766 104.582 94.7653 104.204 94.9541C103.827 95.1429 103.827 95.1429 103.26 95.1429C102.883 95.1429 102.694 95.3317 102.505 95.7092V95.898C102.505 96.0868 102.505 95.7092 102.505 95.898C102.694 96.0868 102.883 96.2755 103.071 96.6531C103.26 96.8419 103.26 97.2194 102.883 97.2194C102.694 97.4082 102.694 97.7858 102.694 97.597C102.694 97.7858 102.694 97.9745 102.883 97.9745C103.071 98.5409 103.449 99.1072 103.827 99.6735C104.959 101.372 106.658 102.883 108.735 103.638C109.301 103.827 109.867 104.015 110.434 104.015C111.189 104.204 111.755 104.015 112.51 103.638C112.888 103.26 113.643 103.071 114.02 102.883C114.398 102.694 114.587 102.694 114.776 102.505C114.964 102.316 114.964 102.128 115.153 101.939C115.342 101.75 115.342 101.561 115.531 101.561C116.475 101.184 117.418 100.617 117.418 99.4847C117.418 99.296 117.607 99.1072 117.796 99.1072C118.551 98.9184 119.117 97.9745 119.306 97.2194C119.495 96.0868 119.117 94.7653 118.929 93.6327C118.74 92.6888 118.551 91.9337 118.362 91.1786C118.362 90.6123 118.174 89.8572 117.985 89.4796C117.796 88.9133 117.418 88.7245 116.852 88.7245C116.286 88.7245 115.531 88.7245 115.153 89.2909C114.776 89.6684 114.209 89.1021 114.587 88.7245C115.153 87.9694 116.475 87.7806 117.418 87.9694C118.362 87.9694 118.74 88.7245 118.929 89.4796C119.306 90.6123 119.495 91.9337 119.684 93.0664C119.872 94.5766 120.439 96.0868 120.061 97.597C119.872 98.5409 119.117 99.6735 117.985 100.051C118.174 99.8623 118.174 99.6735 118.362 99.4847C118.174 100.995 116.852 101.939 115.719 102.316L115.908 102.128C115.719 103.449 114.209 103.827 113.077 104.204C113.077 104.204 113.077 104.204 112.888 104.204C112.699 104.393 112.699 104.393 112.51 104.582C112.133 104.77 111.755 104.959 111.189 104.959C110.245 104.959 109.112 104.582 108.168 104.393C105.526 103.26 103.26 100.995 102.128 98.5409C101.75 97.597 101.561 96.8419 102.694 96.4643C102.694 96.6531 102.694 97.0307 102.505 97.2194C102.128 96.6531 101.75 96.2755 101.75 95.7092C101.939 94.5766 102.883 94.199 103.827 94.3878C103.638 94.3878 103.638 94.3878 103.449 94.5766C104.015 93.6327 104.959 93.6327 105.903 94.0102C106.658 94.5766 107.602 94.7653 108.546 94.9541C108.546 95.1429 108.357 95.3317 108.168 95.5204C107.791 94.9541 107.791 94.0102 108.168 93.4439C108.735 92.5 110.056 92.6888 111.189 92.8776C112.51 93.0664 113.832 93.2551 115.153 93.6327C116.286 93.8215 117.23 94.199 118.174 94.7653C118.551 95.1429 118.174 95.898 117.796 95.5204Z" fill="#1D1819"/>
<path d="M114.209 103.26C114.776 104.015 115.531 104.77 116.097 105.337C116.663 105.903 117.418 106.469 118.174 107.036C119.872 108.357 122.704 107.791 124.592 106.658C126.48 105.337 127.801 103.071 127.424 100.806C127.235 99.296 125.347 98.1633 124.026 97.4082C122.515 96.4643 121.005 96.0868 119.684 95.5204C119.117 95.3317 119.306 94.3878 119.872 94.5766C121.383 95.3317 122.893 95.7092 124.403 96.6531C125.913 97.4082 127.99 98.7296 128.367 100.617C128.745 102.883 127.612 105.337 125.913 106.658C124.026 108.357 121.005 109.301 118.74 108.357C117.607 107.791 116.852 107.036 115.908 106.281C115.153 105.526 114.209 104.77 113.643 103.638C113.265 103.26 114.02 102.694 114.209 103.26Z" fill="#1D1819"/>
<path d="M122.515 107.413C125.536 106.092 128.745 103.638 129.122 100.051C129.311 98.7296 129.122 97.2194 129.122 95.898C128.367 89.6684 126.857 83.4388 125.347 77.398C124.781 74.7551 124.214 72.3011 123.459 69.6582C123.082 67.9592 122.704 66.449 121.76 64.9388C117.985 58.5204 111.189 54.1786 104.77 51.1582C103.071 50.2143 101.184 49.8368 99.4847 49.0817C98.9184 49.0817 98.5408 48.8929 98.1633 48.7041C97.4082 48.3266 96.8418 47.5715 96.4643 46.8164C95.3316 44.3623 95.3316 41.1531 95.7092 38.5102C95.7092 37.9439 96.6531 38.1327 96.4643 38.699C96.4643 38.5102 96.4643 38.8878 96.4643 38.8878C96.4643 39.0766 96.4643 39.2653 96.4643 39.4541C96.4643 40.2092 96.2755 40.7755 96.2755 41.5306C96.4643 43.2296 96.4643 45.1174 97.4082 46.6276C97.5969 47.0051 97.9745 47.7602 98.5408 47.949C99.1072 48.3266 99.8623 48.3266 100.429 48.5153C101.939 49.0817 103.449 49.648 104.959 50.4031C111.566 53.2347 118.173 57.5766 122.138 63.8062C123.082 65.5051 123.837 67.0153 124.214 68.9031C124.781 71.3572 125.536 73.8113 126.102 76.2653C127.612 82.4949 129.122 88.7245 129.878 95.1429C130.066 96.8419 130.255 98.5409 129.878 100.24C129.5 104.015 126.102 106.658 122.893 108.168C122.327 108.357 121.949 107.602 122.515 107.413Z" fill="#1D1819"/>
<path d="M104.959 94.199C105.337 92.8775 105.903 91.3673 106.281 90.2347C106.658 89.2908 107.225 88.9133 107.98 88.7245C108.546 88.7245 109.112 88.7245 109.49 88.7245C111.189 88.7245 113.077 88.7245 114.776 88.5357C115.908 88.5357 118.174 88.1581 117.985 90.0459C117.796 90.801 117.418 91.5561 117.23 92.1224C116.852 92.8775 116.663 93.4439 116.286 94.199C116.097 94.7653 115.342 94.5765 115.531 94.0102C116.097 92.6888 116.475 91.5561 116.852 90.2347C117.041 90.2347 117.041 89.8571 117.041 89.6684C117.041 89.4796 116.663 89.4796 116.475 89.4796C115.908 89.4796 115.531 89.4796 114.964 89.4796C113.265 89.4796 111.755 89.4796 110.056 89.6684C109.49 89.6684 108.924 89.6684 108.357 89.6684C107.791 89.6684 107.413 89.8571 107.225 90.4235C106.658 91.7449 106.281 93.0663 105.714 94.3877C105.526 94.7653 104.77 94.5765 104.959 94.199Z" fill="#1D1819"/>
<path d="M106.092 94.199C106.469 93.2551 106.658 92.5 107.036 91.7449C107.413 90.801 107.98 90.2347 108.923 90.2347C110.622 90.0459 112.51 90.0459 114.398 90.0459C114.964 89.8572 115.719 89.8572 116.286 89.8572C116.852 89.8572 116.852 90.6123 116.286 90.801C114.776 90.801 113.265 90.801 111.755 90.9898C111 90.9898 110.056 90.9898 109.301 90.9898C108.546 90.9898 108.168 91.1786 107.791 91.9337C107.602 92.6888 107.225 93.4439 107.036 94.3878C106.847 94.7653 105.903 94.5766 106.092 94.199Z" fill="#1D1819"/>
<path d="M115.153 98.3521C113.265 97.7858 111.378 97.2194 109.679 96.4643C109.112 96.2756 108.735 96.0868 108.357 95.898C107.791 95.5205 108.357 94.7653 108.735 95.1429C109.112 95.3317 109.301 95.5205 109.679 95.5205C110.245 95.7092 110.811 96.0868 111.378 96.2756C112.51 96.6531 113.643 97.0307 114.776 97.2194C114.964 97.4082 115.153 97.4082 115.342 97.597C115.908 97.597 115.719 98.5409 115.153 98.3521Z" fill="#1D1819"/>
<path d="M104.204 94.9541C104.204 94.7653 104.204 94.9541 104.204 94.9541V95.1429C104.393 95.7092 104.77 96.2755 105.148 96.4643C105.903 97.2194 106.847 97.7857 107.602 98.3521C108.357 98.7296 109.112 98.9184 109.679 99.2959L109.867 99.4847C109.679 99.2959 109.867 99.4847 109.867 99.4847C110.245 99.4847 110.434 99.6735 110.811 99.6735C111.566 99.8623 112.133 100.051 112.888 100.24C113.265 100.429 113.077 101.184 112.51 101.184C111.944 100.995 111.378 100.806 110.811 100.617C110.245 100.429 109.679 100.429 109.301 100.051C108.546 99.6735 107.791 99.2959 107.036 98.9184C106.092 98.3521 105.148 97.7857 104.393 97.0306C104.015 96.4643 103.071 95.3317 103.449 94.5765C103.638 94.0102 104.393 94.3878 104.204 94.9541Z" fill="#1D1819"/>
<path d="M103.071 96.4643C103.449 96.6531 103.638 97.0306 103.827 97.4082C104.393 97.7857 104.959 98.3521 105.337 98.9184C105.903 99.4847 106.469 100.051 107.036 100.617C107.225 100.806 107.413 100.995 107.791 101.184C107.98 101.184 108.168 101.372 108.357 101.372C109.112 101.75 110.056 101.939 111 102.316C111.378 102.316 111.189 103.26 110.622 103.071C110.056 102.883 109.301 102.694 108.546 102.316C107.791 102.128 107.413 101.939 106.847 101.372C105.714 100.429 104.582 99.296 103.638 98.1633C103.449 97.9745 103.071 97.7857 102.883 97.597C102.883 97.4082 102.694 97.4082 102.694 97.2194C102.505 97.2194 102.694 97.2194 102.694 97.2194C102.128 97.0306 102.505 96.2755 103.071 96.4643Z" fill="#1D1819"/>
<path d="M72.6786 50.5919C68.9031 52.4796 65.5051 54.9337 62.296 57.7653C60.0307 59.8419 57.7653 62.1072 56.2551 64.9388C55.3113 66.6378 54.9337 68.5255 54.3674 70.4133C53.9898 72.301 53.4235 74.3776 53.046 76.4541C52.6684 78.5306 52.2909 80.7959 51.9133 82.8725C51.9133 83.4388 51.1582 83.4388 51.1582 82.8725C51.347 81.1735 51.7245 79.4745 51.9133 77.5868C52.2909 75.699 52.8572 73.6225 53.2347 71.7347C53.8011 69.6582 54.1786 67.5817 54.9337 65.6939C57.3878 60.0306 62.8623 55.6888 67.9592 52.4796C69.2807 51.5357 70.7909 50.5919 72.1123 49.8368C72.6786 49.648 73.0562 50.4031 72.6786 50.5919Z" fill="#1D1819"/>
<path d="M114.587 103.827C114.776 108.924 115.153 114.02 115.342 118.929L115.908 133.653H115.153V133.464C114.776 125.347 114.398 117.418 114.02 109.301C114.02 107.602 113.832 105.714 113.832 103.827C113.832 103.26 114.587 103.26 114.587 103.827ZM58.3317 133.653C58.898 129.689 59.2755 125.913 59.6531 121.949C60.4082 115.719 61.1633 109.301 61.9184 103.071C61.9184 102.883 61.9184 102.883 61.9184 102.694C61.9184 102.128 62.8623 102.128 62.8623 102.694C62.2959 107.036 61.7296 111.378 61.3521 115.531C60.597 121.571 59.8419 127.612 59.2755 133.653H58.3317Z" fill="#1D1819"/>
<path d="M72.301 50.5918C71.9235 50.5918 71.9235 49.8367 72.301 49.8367C72.8674 49.8367 72.8674 50.5918 72.301 50.5918Z" fill="#1D1819"/>
<path d="M113.454 88.9133C113.832 82.3062 114.209 75.5102 114.587 68.7143C114.587 67.2041 114.776 65.5051 114.964 63.9949C114.964 63.4286 115.719 63.4286 115.719 63.9949C114.964 71.3572 114.776 78.9082 114.398 86.2705C114.398 87.2143 114.398 88.1582 114.398 88.9133C114.398 89.4796 113.454 89.4796 113.454 88.9133Z" fill="#1D1819"/>
<path d="M118.551 90.9898C118.74 90.801 118.551 90.9898 118.551 90.9898C118.74 90.801 118.74 90.801 118.74 90.801C118.929 90.6122 119.117 90.4235 119.117 90.0459C119.684 89.2908 120.061 88.3469 120.439 87.4031C121.949 84.1939 122.515 80.4184 122.704 76.8316C122.704 76.2653 123.648 76.2653 123.459 76.8316C123.459 80.6071 122.704 84.3827 121.383 87.7806C120.816 89.102 120.061 90.4235 119.306 91.5561C118.929 91.9337 118.362 91.3674 118.551 90.9898Z" fill="#1D1819"/>
<path d="M62.1072 64.3725C62.296 69.6582 62.4847 74.9439 62.6735 80.4184C62.6735 81.1735 62.6735 81.9286 62.8623 82.6837C62.8623 83.25 61.9184 83.25 61.9184 82.6837C61.7296 77.398 61.5409 71.9235 61.3521 66.6378C61.1633 65.8827 61.1633 65.1276 61.1633 64.3725C61.1633 63.8061 61.9184 63.8061 62.1072 64.3725Z" fill="#1D1819"/>
<path d="M47.0051 108.546C47.0051 108.546 47.1939 108.546 47.1939 108.735C47.3826 108.924 47.3826 108.924 47.5714 109.112C47.949 109.679 48.3265 110.056 48.8928 110.622C50.0255 111.566 51.3469 112.699 52.8571 113.265C54.5561 113.643 55.6888 113.077 56.6326 111.944C57.9541 110.811 58.898 109.49 59.8418 107.98C60.4082 106.847 61.1633 105.714 61.7296 104.582C62.1071 104.015 62.8622 104.393 62.4847 104.959C60.9745 107.602 59.4643 110.434 57.199 112.699C56.0663 113.832 54.9337 114.398 53.2347 114.209C51.5357 113.832 50.0255 112.888 48.8928 111.755C47.949 110.811 47.0051 110.056 46.4388 109.112C46.0612 108.546 46.8163 108.168 47.0051 108.546Z" fill="#1D1819"/>
<path d="M61.1633 114.209C60.597 114.209 60.597 113.454 61.1633 113.454C61.7296 113.454 61.7296 114.209 61.1633 114.209Z" fill="#1D1819"/>
<path d="M45.4949 109.301C44.9286 109.301 44.9286 108.546 45.4949 108.546C46.0612 108.546 46.0612 109.301 45.4949 109.301Z" fill="#1D1819"/>
<path d="M58.7092 103.071C58.1429 103.071 58.1429 102.316 58.7092 102.316C59.2755 102.316 59.2755 103.071 58.7092 103.071Z" fill="#1D1819"/>
<path d="M77.0204 47.949C78.7194 55.3112 87.9694 57.5765 94.0102 54.1786C96.0868 53.0459 98.1633 50.9694 98.7296 48.5153C98.9184 47.949 99.6735 48.1378 99.4847 48.7041C99.1072 50.7806 97.597 52.6684 96.0868 53.801C93.8215 55.5 90.9898 56.4439 88.1582 56.6327C85.5153 56.6327 82.6837 55.8775 80.4184 54.3673C78.3419 52.8571 76.8317 50.7806 76.2653 48.1378C76.0766 47.5714 77.0204 47.3826 77.0204 47.949Z" fill="#1D1819"/>
<path d="M101.372 49.2704C100.617 51.5357 99.2959 53.2347 97.597 54.7449C96.2755 55.6888 94.9541 56.8215 93.6327 57.3878C89.1021 59.2755 83.25 58.3317 79.2857 55.5C77.0204 53.801 75.3214 51.7245 74.3776 49.0817C74.1888 48.7041 74.9439 48.3266 75.1327 48.8929C77.398 54.7449 83.25 57.7653 89.4796 57.3878C90.9898 57.199 92.6888 57.0102 94.0102 56.2551C94.7653 55.8776 95.3317 55.3113 95.898 54.9337C97.9745 53.4235 99.6735 51.5357 100.617 49.0817C100.806 48.7041 101.561 48.8929 101.372 49.2704Z" fill="#1D1819"/>
<path d="M76.0766 15.2908C75.8878 18.5 75.8878 21.898 76.2653 25.1071C76.2653 25.8623 77.2092 28.3163 75.5102 27.9388C74.5664 27.75 74.3776 26.4286 74.1888 25.6735C73.8113 24.352 73.8113 22.8418 73.4337 21.3316C73.2449 20.5765 72.6786 20.0102 71.9235 19.6327C71.546 19.2551 71.1684 19.0663 70.7908 18.6888C70.4133 17.9337 70.7908 17.1786 70.7908 16.4235C70.7908 14.5357 70.7908 12.648 71.546 10.7602C71.9235 9.81633 72.4898 8.87245 73.2449 8.11735C73.8113 7.55102 74.7551 7.17347 75.3215 6.60714C76.6429 5.66327 77.7755 4.71939 78.9082 3.77551C81.9286 1.5102 85.1378 0 89.1021 0C91.7449 0 94.199 0.755102 96.6531 1.69898C97.2194 1.88776 97.7857 2.07653 97.9745 2.45408C98.1633 2.64286 98.1633 3.02041 98.1633 3.20918C98.3521 3.77551 98.3521 4.15306 98.5408 4.53061C98.5408 4.71939 98.5408 4.90816 98.7296 4.90816C98.7296 5.28572 98.7296 5.09694 98.5408 5.09694C99.296 6.04082 100.429 6.79592 101.184 7.7398C102.505 9.62755 103.638 11.7041 104.015 13.9694C104.393 15.2908 104.77 17.7449 103.449 18.6888C103.071 18.8776 102.505 18.8776 102.128 19.0663C101.184 19.6327 100.995 20.3878 100.995 21.1429C100.995 22.4643 100.806 23.5969 100.806 24.7296C100.617 25.4847 100.429 26.4286 99.6735 26.9949C99.1072 27.3725 98.5408 26.9949 98.5408 26.4286C98.5408 25.1071 98.5408 23.7857 98.5408 22.4643C98.5408 20.5765 98.3521 18.6888 98.3521 16.801C98.3521 16.2347 98.3521 15.6684 98.3521 15.102C98.3521 14.9133 98.3521 14.9133 98.3521 14.7245C98.1633 15.102 98.5408 15.102 98.3521 14.9133C98.1633 14.9133 97.9745 14.5357 97.7857 14.3469C97.2194 13.5918 96.6531 12.648 96.6531 11.5153C96.8419 11.5153 97.0306 11.7041 97.2194 11.8929C94.3878 13.9694 90.8011 16.2347 87.0255 16.4235C86.0817 16.6122 83.6276 16.4235 84.5715 14.7245C84.949 13.7806 86.0817 13.2143 87.0255 12.648C87.4031 12.4592 87.7806 13.0255 87.4031 13.4031C84.0051 16.0459 79.8521 18.3112 75.699 19.2551C75.1327 19.4439 74.9439 18.5 75.5102 18.5C79.6633 17.5561 83.6276 15.2908 87.0255 12.648C87.2143 12.8367 87.2143 13.2143 87.4031 13.4031C86.648 13.7806 85.8929 14.3469 85.3266 14.9133C84.949 15.6684 85.5153 15.6684 86.0817 15.6684C87.2143 15.6684 88.1582 15.4796 89.1021 15.2908C91.9337 14.3469 94.5766 12.8367 96.8419 11.1378C97.0306 10.949 97.4082 11.1378 97.4082 11.5153C97.597 12.648 98.1633 13.4031 98.9184 14.3469C99.1072 14.5357 99.1072 14.7245 99.1072 15.102C99.296 16.2347 99.296 17.3674 99.296 18.5C99.296 20.199 99.4847 21.898 99.4847 23.5969C99.4847 24.352 99.4847 24.9184 99.4847 25.4847C99.4847 25.6735 99.4847 26.051 99.4847 26.2398C99.4847 26.2398 99.4847 26.2398 99.4847 26.4286C99.296 26.6174 99.296 26.4286 99.296 26.2398C99.296 26.2398 99.4847 26.051 99.4847 25.8623C99.8623 25.2959 99.8623 24.1633 100.051 23.4082C100.051 22.2755 99.8623 20.7653 100.429 19.8214C100.806 18.8776 101.561 18.5 102.316 18.1225C103.071 17.9337 103.449 17.5561 103.449 16.801C103.638 12.648 101.372 9.06123 98.5408 6.22959C98.3521 6.04082 98.1633 5.85204 97.9745 5.66327C97.7857 5.28572 97.597 4.53061 97.597 4.15306C97.4082 3.77551 97.4082 3.39796 97.2194 3.20918C97.0306 2.64286 97.0306 2.83163 96.2755 2.45408C95.1429 2.07653 93.8215 1.5102 92.5 1.32143C88.7245 0.377551 84.949 0.943878 81.5511 3.02041C79.2857 4.34184 77.398 6.41837 75.1327 7.7398C73.2449 9.06123 72.1123 10.5714 71.9235 12.8367C71.546 14.3469 71.7347 15.8571 71.546 17.3674C71.546 18.1225 71.7347 18.3112 72.3011 18.6888C72.6786 19.0663 73.0562 19.4439 73.4337 19.8214C74.1888 20.7653 74.3776 21.898 74.5664 23.0306C74.5664 24.352 74.7551 25.8623 75.5102 26.8061C75.699 27.1837 75.5102 26.9949 75.699 26.9949C75.699 26.9949 75.699 27.1837 75.699 26.8061C75.5102 26.6174 75.5102 26.4286 75.5102 26.2398C74.9439 22.8418 75.1327 19.4439 75.1327 16.0459C75.1327 15.6684 75.1327 15.4796 75.1327 15.2908C75.3215 14.7245 76.0766 14.7245 76.0766 15.2908Z" fill="#1D1819"/>
<path d="M36.4336 84.949C37.1887 84.0051 37.7551 82.8725 39.0765 82.6837C39.4541 82.6837 39.6428 82.6837 39.8316 82.6837C41.5306 82.6837 43.0408 82.6837 44.551 82.6837C49.4592 82.4949 54.3673 82.4949 59.2755 82.3061C61.1632 82.3061 63.051 82.3061 64.9388 82.3061C66.0714 82.3061 67.2041 82.1174 68.1479 82.4949C69.6581 83.0612 70.4132 84.3827 71.3571 85.7041C72.6785 87.5918 74 89.4796 75.3214 91.1786C76.6428 93.2551 77.9643 95.1429 79.4745 97.2194C79.6632 97.597 80.0408 97.9745 80.2296 98.3521C81.1734 99.6735 80.7959 100.995 80.4183 102.505C80.4183 103.071 79.4745 102.883 79.6632 102.316C80.0408 100.995 80.2296 99.8623 79.4745 98.7296C79.2857 98.3521 78.9081 97.9745 78.7194 97.7857C77.5867 96.0868 76.4541 94.5765 75.3214 92.8776C73.4337 90.0459 71.5459 87.0255 69.2806 84.3827C68.3367 83.0612 67.0153 83.0612 65.5051 83.25C63.8061 83.25 62.1071 83.25 60.4081 83.25C55.6887 83.25 51.1581 83.4388 46.4387 83.4388C44.551 83.4388 42.4745 83.4388 40.5867 83.6276C40.2092 83.6276 39.6428 83.6276 39.2653 83.6276C38.1326 83.6276 37.7551 84.7602 37 85.5153C36.6224 85.8929 36.0561 85.3265 36.4336 84.949Z" fill="#1D1819"/>
<path d="M17.1786 25.8622H38.8878C40.0204 25.8622 40.7755 26.6173 40.7755 27.75V42.4745C40.7755 43.4184 40.0204 44.3622 38.8878 44.3622H26.4286L23.7857 47.949C23.597 48.3265 23.2194 48.3265 23.0306 47.949L20.3878 44.3622H17.1786C16.0459 44.3622 15.2908 43.4184 15.2908 42.4745V27.75C15.2908 26.6173 16.0459 25.8622 17.1786 25.8622Z" fill="#FEFEFE" stroke="#332C2B" stroke-width="0.352514"/>
<path d="M19.2552 29.6378H30.9592" stroke="#332C2B" stroke-width="0.352514" stroke-linecap="round"/>
<path d="M19.2552 33.2245H30.9592" stroke="#332C2B" stroke-width="0.352514" stroke-linecap="round"/>
<path d="M19.2552 36.8112H30.9592" stroke="#332C2B" stroke-width="0.352514" stroke-linecap="round"/>
<path d="M54.5562 20.3878H32.847C31.7143 20.3878 30.9592 21.1429 30.9592 22.2755V37C30.9592 37.9439 31.7143 38.8878 32.847 38.8878H45.3062L47.949 42.4745C48.1378 42.852 48.5154 42.852 48.7041 42.4745L51.347 38.8878H54.5562C55.6888 38.8878 56.4439 37.9439 56.4439 37V22.2755C56.4439 21.1429 55.6888 20.3878 54.5562 20.3878Z" fill="#EC2029" stroke="#332C2B" stroke-width="0.352514"/>
<path d="M34.3572 23.9745H51.9133" stroke="#332C2B" stroke-width="0.352514" stroke-linecap="round"/>
<path d="M34.3572 27.5612H51.9133" stroke="#332C2B" stroke-width="0.352514" stroke-linecap="round"/>
<path d="M34.3572 31.148H51.9133" stroke="#332C2B" stroke-width="0.352514" stroke-linecap="round"/>
<path d="M34.3572 34.7347H51.9133" stroke="#332C2B" stroke-width="0.352514" stroke-linecap="round"/>
</svg>
