<svg width="11" height="13" viewBox="0 0 11 13" fill="none" xmlns="http://www.w3.org/2000/svg">
<path d="M6.87484 6.18667V11.6035C6.90234 11.8097 6.8336 12.0296 6.6755 12.174C6.6119 12.2377 6.53636 12.2883 6.4532 12.3228C6.37005 12.3573 6.2809 12.375 6.19087 12.375C6.10084 12.375 6.0117 12.3573 5.92854 12.3228C5.84538 12.2883 5.76984 12.2377 5.70625 12.174L4.32456 10.7923C4.24959 10.719 4.19258 10.6294 4.158 10.5304C4.12342 10.4314 4.1122 10.3258 4.12521 10.2218V6.18667H4.10459L0.145117 1.1136C0.0334877 0.970297 -0.0168818 0.788635 0.00501502 0.608308C0.0269118 0.427982 0.119295 0.263653 0.261977 0.15123C0.392584 0.0549927 0.53694 0 0.68817 0H10.3119C10.4631 0 10.6075 0.0549927 10.7381 0.15123C10.8808 0.263653 10.9731 0.427982 10.995 0.608308C11.0169 0.788635 10.9666 0.970297 10.8549 1.1136L6.89547 6.18667H6.87484Z" fill="#EC2028"/>
</svg>
