<svg width="15" height="12" viewBox="0 0 15 12" fill="none" xmlns="http://www.w3.org/2000/svg">
<path d="M14.771 1.42545C14.2278 1.65977 13.6367 1.82841 13.0278 1.89409C13.66 1.51853 14.1334 0.925214 14.3592 0.225451C13.766 0.578331 13.1161 0.825777 12.4385 0.956812C12.1552 0.654019 11.8127 0.4128 11.4321 0.248186C11.0516 0.0835726 10.6412 -0.000908492 10.2266 7.36758e-06C8.54911 7.36758e-06 7.2 1.35977 7.2 3.02841C7.2 3.26273 7.2284 3.49705 7.27456 3.72249C4.76272 3.59113 2.52249 2.39113 1.03314 0.553854C0.761761 1.01737 0.619551 1.54514 0.621302 2.08226C0.621302 3.13314 1.15562 4.05977 1.97041 4.60474C1.49024 4.58583 1.02132 4.45385 0.601775 4.21953V4.25681C0.601775 5.72841 1.64201 6.94794 3.0284 7.22841C2.76809 7.29603 2.50031 7.33062 2.23136 7.33137C2.03432 7.33137 1.84793 7.31184 1.65976 7.28522C2.0432 8.48522 3.15976 9.35681 4.48935 9.38522C3.44911 10.2 2.14615 10.6793 0.731361 10.6793C0.477515 10.6793 0.243195 10.6704 0 10.642C1.34201 11.503 2.93432 12 4.64911 12C10.216 12 13.2621 7.38817 13.2621 3.38521C13.2621 3.25385 13.2621 3.12249 13.2533 2.99113C13.8426 2.55977 14.3592 2.02545 14.771 1.42545Z" fill="#1DA1F2"/>
</svg>
