<svg width="95" height="15" viewBox="0 0 95 15" fill="none" xmlns="http://www.w3.org/2000/svg">
<path d="M10.2249 0.258448H9.14263L5.10437 6.94581L1.0661 0.258448H0V11.5656H0.856112V1.51839L5.03975 8.4642H5.18513L9.36877 1.51839V11.5656H10.2249V0.258448Z" fill="white"/>
<path d="M18.6994 3.48906L15.8888 10.6772L12.6259 3.48906H11.7536L15.4688 11.711L15.2911 12.1471C14.7904 13.3263 13.9666 14.1339 12.8843 14.037V14.7962C14.2735 14.9093 15.4688 13.8593 16.0826 12.3086L19.5717 3.48906H18.6994Z" fill="white"/>
<path d="M23.3639 2.06759H20.1333V0H28.7752V2.06759H25.5445V11.5656H23.3639V2.06759Z" fill="white"/>
<path d="M32.7135 11.824C31.895 11.824 31.1574 11.6356 30.5005 11.2587C29.8436 10.8818 29.3267 10.3649 28.9498 9.70799C28.5837 9.04033 28.4006 8.2919 28.4006 7.46271C28.4006 6.6766 28.5837 5.94971 28.9498 5.28205C29.3159 4.60362 29.8221 4.06519 30.4682 3.66674C31.1143 3.2683 31.8358 3.06908 32.6327 3.06908C33.4834 3.06908 34.2157 3.25215 34.8295 3.61828C35.4433 3.98442 35.9064 4.48516 36.2187 5.12052C36.5417 5.75587 36.7033 6.46122 36.7033 7.23657C36.7033 7.48425 36.6871 7.72116 36.6548 7.9473H30.4682C30.5759 8.60419 30.8343 9.10494 31.2435 9.44954C31.6635 9.78337 32.1643 9.95028 32.7458 9.95028C33.2304 9.95028 33.645 9.84798 33.9896 9.64337C34.3449 9.428 34.6249 9.14263 34.8295 8.78726L36.5417 9.62722C35.7018 11.0918 34.4257 11.824 32.7135 11.824ZM34.668 6.44507C34.6465 6.18662 34.5495 5.93356 34.3772 5.68587C34.2157 5.42743 33.9842 5.21744 33.6826 5.05591C33.3919 4.88361 33.0473 4.79746 32.6489 4.79746C32.1427 4.79746 31.7066 4.94822 31.3405 5.24974C30.9851 5.5405 30.7266 5.93894 30.5651 6.44507H34.668Z" fill="white"/>
<path d="M38.2526 0H40.3686V11.5656H38.2526V0Z" fill="white"/>
<path d="M42.3678 0H44.4839V6.29969H44.5969L47.5529 3.32753H50.1536V3.45675L47.0361 6.50968L50.299 11.4364V11.5656H47.7952L45.55 7.96346L44.4839 9.0134V11.5656H42.3678V0Z" fill="white"/>
<path d="M55.0148 11.824C54.164 11.824 53.4049 11.6356 52.7372 11.2587C52.0695 10.871 51.5473 10.3487 51.1704 9.69183C50.8042 9.02417 50.6211 8.27575 50.6211 7.44656C50.6211 6.62814 50.8042 5.8851 51.1704 5.21744C51.5473 4.54978 52.0695 4.02749 52.7372 3.65059C53.4049 3.26292 54.164 3.06908 55.0148 3.06908C55.8547 3.06908 56.6085 3.26292 57.2762 3.65059C57.9439 4.02749 58.4608 4.54978 58.8269 5.21744C59.2038 5.8851 59.3923 6.62814 59.3923 7.44656C59.3923 8.27575 59.2038 9.02417 58.8269 9.69183C58.4608 10.3487 57.9439 10.871 57.2762 11.2587C56.6085 11.6356 55.8547 11.824 55.0148 11.824ZM55.0148 9.86952C55.424 9.86952 55.8009 9.7726 56.1455 9.57876C56.4901 9.38492 56.7647 9.10494 56.9693 8.7388C57.1739 8.37267 57.2762 7.94192 57.2762 7.44656C57.2762 6.96197 57.1739 6.5366 56.9693 6.17047C56.7647 5.80433 56.4901 5.52434 56.1455 5.33051C55.8009 5.13667 55.424 5.03975 55.0148 5.03975C54.6056 5.03975 54.2287 5.13667 53.8841 5.33051C53.5395 5.52434 53.2595 5.80433 53.0441 6.17047C52.8395 6.5366 52.7372 6.96197 52.7372 7.44656C52.7372 7.93115 52.8395 8.3619 53.0441 8.7388C53.2595 9.10494 53.5395 9.38492 53.8841 9.57876C54.2287 9.7726 54.6056 9.86952 55.0148 9.86952Z" fill="white"/>
<path d="M60.7728 3.32753H62.7597V4.36132H62.8889C63.1473 3.96288 63.4919 3.65059 63.9227 3.42445C64.3642 3.18754 64.8542 3.06908 65.3926 3.06908C65.9741 3.06908 66.4802 3.20907 66.911 3.48906C67.3417 3.75828 67.6487 4.10288 67.8317 4.52286C68.1009 4.09211 68.4671 3.74212 68.9301 3.47291C69.404 3.20369 69.9585 3.06908 70.5939 3.06908C71.5308 3.06908 72.2415 3.35984 72.7261 3.94134C73.2215 4.51209 73.4691 5.28743 73.4691 6.26739V11.5656H71.3692V6.65506C71.3692 6.13816 71.2454 5.73972 70.9977 5.45973C70.7608 5.17975 70.427 5.03975 69.9962 5.03975C69.447 5.03975 69.0055 5.26051 68.6717 5.70203C68.3486 6.13278 68.1871 6.70352 68.1871 7.41425V11.5656H66.071V6.65506C66.071 6.13816 65.9418 5.73972 65.6834 5.45973C65.4357 5.17975 65.0803 5.03975 64.6173 5.03975C64.1004 5.03975 63.6804 5.26051 63.3573 5.70203C63.045 6.13278 62.8889 6.70352 62.8889 7.41425V11.5656H60.7728V3.32753Z" fill="white"/>
<path d="M78.4645 11.824C77.463 11.824 76.6499 11.6194 76.0254 11.2102C75.4115 10.801 74.9808 10.268 74.7331 9.61107L76.623 8.78726C76.7953 9.17494 77.0376 9.47107 77.3499 9.67568C77.673 9.86952 78.0445 9.96643 78.4645 9.96643C78.8521 9.96643 79.1752 9.90721 79.4337 9.78875C79.6921 9.65953 79.8213 9.45492 79.8213 9.17493C79.8213 8.90572 79.7029 8.7065 79.466 8.57727C79.229 8.43728 78.8737 8.31344 78.3999 8.20575L77.4307 7.99576C76.763 7.83423 76.2084 7.54348 75.7669 7.1235C75.3254 6.69275 75.1046 6.1597 75.1046 5.52434C75.1046 5.05052 75.2446 4.62516 75.5246 4.24825C75.8154 3.87135 76.203 3.58059 76.6876 3.37599C77.183 3.17138 77.7268 3.06908 78.3191 3.06908C80.0205 3.06908 81.1566 3.66674 81.7274 4.86207L79.9182 5.65357C79.5952 5.07206 79.0783 4.7813 78.3676 4.7813C78.0014 4.7813 77.7107 4.8513 77.4953 4.99129C77.2799 5.12052 77.1722 5.28743 77.1722 5.49204C77.1722 5.87971 77.5384 6.17047 78.2706 6.3643L79.4821 6.65506C80.3005 6.85966 80.9143 7.17196 81.3236 7.59194C81.7435 8.01192 81.9535 8.52881 81.9535 9.14263C81.9535 9.67029 81.7974 10.1387 81.4851 10.5479C81.1836 10.9464 80.7636 11.2587 80.2252 11.4848C79.6975 11.711 79.1106 11.824 78.4645 11.824Z" fill="white"/>
<path d="M87.3449 11.824C86.5264 11.824 85.7888 11.6356 85.1319 11.2587C84.475 10.8818 83.9581 10.3649 83.5812 9.70799C83.2151 9.04033 83.032 8.2919 83.032 7.46271C83.032 6.6766 83.2151 5.94971 83.5812 5.28205C83.9473 4.60362 84.4535 4.06519 85.0996 3.66674C85.7457 3.2683 86.4672 3.06908 87.2641 3.06908C88.1148 3.06908 88.8471 3.25215 89.4609 3.61828C90.0747 3.98442 90.5378 4.48516 90.8501 5.12052C91.1731 5.75587 91.3347 6.46122 91.3347 7.23657C91.3347 7.48425 91.3185 7.72116 91.2862 7.9473H85.0996C85.2073 8.60419 85.4657 9.10494 85.8749 9.44954C86.2949 9.78337 86.7957 9.95028 87.3772 9.95028C87.8618 9.95028 88.2764 9.84798 88.621 9.64337C88.9763 9.428 89.2563 9.14263 89.4609 8.78726L91.1731 9.62722C90.3332 11.0918 89.0571 11.824 87.3449 11.824ZM89.2994 6.44507C89.2778 6.18662 89.1809 5.93356 89.0086 5.68587C88.8471 5.42743 88.6156 5.21744 88.314 5.05591C88.0233 4.88361 87.6787 4.79746 87.2802 4.79746C86.7741 4.79746 86.338 4.94822 85.9719 5.24974C85.6165 5.5405 85.358 5.93894 85.1965 6.44507H89.2994Z" fill="white"/>
<path d="M92.884 0H95V11.5656H92.884V0Z" fill="white"/>
</svg>
